<?xml version="1.0" encoding="UTF-8"?>
<svg width="29px" height="29px" viewBox="0 0 29 29" version="1.1" xmlns="http://www.w3.org/2000/svg" xmlns:xlink="http://www.w3.org/1999/xlink">
    <!-- Generator: Sketch 52.5 (67469) - http://www.bohemiancoding.com/sketch -->
    <title>headset</title>
    <desc>Created with Sketch.</desc>
    <defs>
        <polygon id="path-1" points="0 0 30 0 30 30 0 30"></polygon>
    </defs>
    <g id="Ui-Kit" stroke="none" stroke-width="1" fill="none" fill-rule="evenodd">
        <g id="ui-kit" transform="translate(-727.000000, -5164.000000)">
            <g id="headset" transform="translate(727.000000, 5163.000000)">
                <mask id="mask-2" fill="white">
                    <use xlink:href="#path-1"></use>
                </mask>
                <g id="Clip-2"></g>
                <path d="M25.8125,21.1953125 C25.8125,22.4015 24.8311875,23.3828125 23.625,23.3828125 L22.53125,23.3828125 L22.53125,15.2890625 L23.625,15.2890625 C24.8311875,15.2890625 25.8125,16.270375 25.8125,17.4765625 L25.8125,21.1953125 Z M23.625,13.1015625 L21.4375,13.1015625 C20.8334219,13.1015625 20.34375,13.5912344 20.34375,14.1953125 L20.34375,25.625 C20.34375,26.2280937 19.8530938,26.71875 19.25,26.71875 L15.9140625,26.71875 L15.9140625,26.7534219 C15.5409844,26.0806016 14.8238125,25.625 14,25.625 C12.7918984,25.625 11.8125,26.6043984 11.8125,27.8125 C11.8125,29.0206016 12.7918984,30 14,30 C14.8238125,30 15.5409844,29.5443984 15.9140625,28.8715781 L15.9140625,28.90625 L19.25,28.90625 C21.0592813,28.90625 22.53125,27.4342812 22.53125,25.625 L22.53125,25.5703125 L23.625,25.5703125 C26.037375,25.5703125 28,23.6076875 28,21.1953125 L28,17.4765625 C28,15.0641875 26.037375,13.1015625 23.625,13.1015625 Z M5.46875,23.3828125 L4.375,23.3828125 C3.1688125,23.3828125 2.1875,22.4015 2.1875,21.1953125 L2.1875,17.4765625 C2.1875,16.270375 3.1688125,15.2890625 4.375,15.2890625 L5.46875,15.2890625 L5.46875,23.3828125 Z M6.5625,13.1015625 L4.40130469,13.1015625 C4.76639844,8.125 8.93189063,4.1875 14,4.1875 C18.0104531,4.1875 21.6394063,6.71351562 23.0302734,10.4732266 C23.2398359,11.0397344 23.8689609,11.3290859 24.4355781,11.1195781 C25.0020859,10.9099609 25.2914922,10.2808359 25.0819297,9.71427344 C24.2529766,7.47339844 22.7802969,5.55583594 20.8231953,4.16885156 C18.8210859,2.74998437 16.4616484,2 14,2 C10.8448047,2 7.87839063,3.22871875 5.64730469,5.45980469 C3.4453125,7.66179687 2.22058594,10.5801406 2.18897656,13.6892891 C0.881835938,14.4467109 0,15.8601641 0,17.4765625 L0,21.1953125 C0,23.6076875 1.962625,25.5703125 4.375,25.5703125 L6.5625,25.5703125 C7.16657813,25.5703125 7.65625,25.0806406 7.65625,24.4765625 L7.65625,14.1953125 C7.65625,13.5912344 7.16657813,13.1015625 6.5625,13.1015625 Z" id="Fill-1" stroke="#B1B1B1" stroke-width="0.4" fill="#B1B1B1" mask="url(#mask-2)"></path>
            </g>
        </g>
    </g>
</svg>