<?xml version="1.0" encoding="UTF-8"?>
<svg width="42px" height="42px" viewBox="0 0 42 42" version="1.1" xmlns="http://www.w3.org/2000/svg" xmlns:xlink="http://www.w3.org/1999/xlink">
    <!-- Generator: sketchtool 52.5 (67469) - http://www.bohemiancoding.com/sketch -->
    <title>6BAEE614-4363-442D-9769-D28FE9CB5DFC</title>
    <desc>Created with sketchtool.</desc>
    <defs>
        <linearGradient x1="0%" y1="0%" x2="101.999998%" y2="100.999999%" id="linearGradient-1">
            <stop stop-color="#3023AE" offset="0%"></stop>
            <stop stop-color="#C86DD7" offset="100%"></stop>
        </linearGradient>
    </defs>
    <g id="my-account" stroke="none" stroke-width="1" fill="none" fill-rule="evenodd">
        <g id="My-account" transform="translate(-1117.000000, -72.000000)" fill="url(#linearGradient-1)">
            <g id="header" transform="translate(-156.000000, 0.000000)">
                <g id="Group-3" transform="translate(1226.000000, 52.000000)">
                    <g id="sun-umbrella" transform="translate(47.000000, 20.000000)">
                        <path d="M14.9721404,22.2057193 L18.0100585,20.6069357 L14.9721404,19.0080702 L16.8036023,16.1044211 L13.3732749,16.2386901 L13.5075439,12.8083626 L10.6038947,14.6398246 L9.00502924,11.6019064 L7.40616374,14.6398246 L4.50251462,12.8083626 L4.63678363,16.2386901 L1.20645614,16.1044211 L3.03791813,19.0080702 L0,20.6069357 L3.03791813,22.2058012 L1.20645614,25.1094503 L4.63678363,24.9751813 L4.50251462,28.4054269 L7.40616374,26.5739649 L9.00502924,29.6119649 L10.6038947,26.5740468 L13.5075439,28.4054269 L13.3732749,24.9750994 L16.8036023,25.1093684 L14.9721404,22.2057193 Z M9.00502924,25.1094503 C6.51835088,25.1094503 4.50251462,23.0935322 4.50251462,20.6069357 C4.50251462,18.1203392 6.51835088,16.1044211 9.00502924,16.1044211 C11.4917076,16.1044211 13.5075439,18.1203392 13.5075439,20.6069357 C13.5075439,23.0935322 11.4917076,25.1094503 9.00502924,25.1094503 Z" id="Shape" fill-rule="nonzero"></path>
                        <path d="M37.7149357,38.4310643 C36.8855789,39.0142339 36.2863626,39.4356257 34.9282807,39.4356257 C33.5701988,39.4356257 32.9709006,39.0142339 32.141462,38.4310643 C31.2218012,37.7844444 30.0771579,36.979731 27.9422807,36.979731 C25.8073216,36.979731 24.6627602,37.7845263 23.7430994,38.4310643 C22.9137427,39.0142339 22.3145263,39.4356257 20.9566082,39.4356257 C19.5986901,39.4356257 18.9994737,39.0143158 18.170117,38.4310643 C17.2504561,37.7845263 16.1058947,36.979731 13.9710994,36.979731 C11.8361404,36.979731 10.6916608,37.7845263 9.772,38.4310643 C8.94264327,39.0142339 8.3434269,39.4356257 6.98550877,39.4356257 C5.62759064,39.4356257 5.02845614,39.0143158 4.19909942,38.4310643 C3.2794386,37.7844444 2.13495906,36.9796491 0,36.9796491 L0,39.4355439 C1.35783626,39.4355439 1.9571345,39.8568538 2.78649123,40.4401053 C3.70615205,41.0866433 4.85071345,41.8914386 6.98550877,41.8914386 C9.12046784,41.8914386 10.2649474,41.0866433 11.1846082,40.4401053 C12.0139649,39.8569357 12.6131813,39.4355439 13.9710994,39.4355439 C15.3290175,39.4355439 15.928152,39.8568538 16.7575088,40.4401053 C17.6771696,41.0866433 18.821731,41.8914386 20.9565263,41.8914386 C23.0913216,41.8914386 24.2359649,41.0867251 25.1556257,40.4401053 C25.9849825,39.8569357 26.5841988,39.4355439 27.9421988,39.4355439 C29.3001988,39.4355439 29.8994971,39.8568538 30.7289357,40.4401053 C31.6485965,41.0867251 32.7932398,41.8914386 34.9281988,41.8914386 C37.0631579,41.8914386 38.2077193,41.0867251 39.1273801,40.4401053 C39.9569006,39.8570175 40.556117,39.4355439 41.9141988,39.4355439 L41.9141988,36.9796491 C39.7792398,36.9796491 38.6346784,37.7843626 37.7149357,38.4310643 Z" id="Path"></path>
                        <path d="M40.6455205,8.96974269 C39.2950526,6.0737076 37.0169006,3.79768421 34.1582807,2.45761404 L34.7372749,0.866935673 L32.4293216,0.0267719298 L31.8500819,1.61826901 C25.1771579,-0.147859649 18.1163275,3.44850292 15.710538,10.058386 L15.214807,11.4204795 L16.6398596,11.6855789 C18.9428187,12.1140117 21.1445029,12.9153684 23.1838363,14.067462 L23.4705497,14.2294035 L23.7997544,14.2262105 C23.8411813,14.2258012 23.8826082,14.2256374 23.9239532,14.2256374 C25.0079298,14.2256374 26.0790526,14.3642456 27.1136608,14.6314737 L21.391345,30.3532281 C21.2465965,30.3514269 21.1020117,30.348807 20.9570994,30.348807 C17.1627719,30.348807 13.4363977,30.9701287 9.88146199,32.1954971 C7.64187135,32.967462 5.49823392,33.9704678 3.4737193,35.1883041 C4.40909942,35.5774386 5.0982924,36.0613801 5.61138012,36.4221053 C6.32947368,36.9270877 6.40454971,36.9798129 6.9854269,36.9798129 C7.56638596,36.9798129 7.64138012,36.9270058 8.35922807,36.422269 C9.36935673,35.7120351 11.059345,34.5239181 13.9710175,34.5239181 C16.8826901,34.5239181 18.5726784,35.7121988 19.5823977,36.4221053 C20.3004912,36.9270877 20.3755673,36.9798129 20.9564444,36.9798129 C21.5374035,36.9798129 21.6123977,36.9270058 22.3301637,36.422269 C23.3403743,35.712117 25.0303626,34.5239181 27.942117,34.5239181 C30.8541988,34.5239181 32.5441871,35.7122807 33.5539883,36.4221871 C34.272,36.9270058 34.347076,36.9798129 34.928117,36.9798129 C35.5091579,36.9798129 35.5842339,36.9270058 36.302,36.422269 C36.8152515,36.0613801 37.5046901,35.5773567 38.4402339,35.1881404 C36.4157193,33.9703041 34.2721637,32.9672982 32.0324912,32.1953333 C29.4200585,31.2948304 26.7148655,30.7219766 23.9583392,30.4807836 L29.4214503,15.4712281 C30.422655,15.949193 31.3647485,16.5589708 32.2205497,17.2913099 L32.4707485,17.5054035 L32.7944678,17.5655789 C35.0974269,17.9940117 37.2991111,18.7953684 39.3385263,19.947462 L40.600655,20.6603977 L41.0964678,19.2982222 C42.3304327,15.9077661 42.1703743,12.2396842 40.6455205,8.96974269 Z" id="Path"></path>
                    </g>
                </g>
            </g>
        </g>
    </g>
</svg>