<svg width="53" height="50" viewBox="0 0 53 50" fill="none" xmlns="http://www.w3.org/2000/svg">
<path d="M23 10.4177C18.819 5.6328 12.383 -0.870439 10.1034 1.50606C6.61775 5.13997 2.94654 15 10.1034 15C14.4064 15 19.5675 15 23 15V10.4177Z" fill="#FFDB57"/>
<path d="M30 10.4177C34.1809 5.6328 40.617 -0.870439 42.8966 1.50606C46.3822 5.13997 50.0535 15 42.8966 15C38.5936 15 33.4324 15 30 15V10.4177Z" fill="#FFDB57"/>
<path d="M48 23H4V49H48V23Z" fill="#F7105F"/>
<path d="M48 23H4V26H48V23Z" fill="#E0004D"/>
<path d="M52 15H1V23H52V15Z" fill="#F7105F"/>
<path d="M32 15H21V23H32V15Z" fill="#FFDB57"/>
<path d="M31 23H22V49H31V23Z" fill="#FFDB57"/>
<path d="M31 23H22V26H31V23Z" fill="#F5BA3D"/>
<path d="M11.5354 7.85267C8.29066 6.46214 6.93601 7.01154 6.37611 7.81258C5.45443 11.0175 6.04423 14 10.2095 14C13.3457 14 16.9264 14 20 14C20.0001 14.0001 17.5524 10.4312 11.5354 7.85267Z" fill="#EF9325"/>
<path d="M41.4647 7.85267C44.7095 6.46214 46.0641 7.01154 46.6239 7.81258C47.5456 11.0175 46.9558 14 42.7905 14C39.6543 14 36.0736 14 33 14C33 14.0001 35.4476 10.4312 41.4647 7.85267Z" fill="#EF9325"/>
<path d="M30 9H23V14H30V9Z" fill="#F5BA3D"/>
<path d="M52.1632 13.6837H46.9063C46.9677 13.602 47.0242 13.5193 47.077 13.4363C47.0786 13.4339 47.0799 13.4316 47.0815 13.4292C47.1364 13.3427 47.1866 13.2561 47.2329 13.1696C47.2358 13.1642 47.2386 13.159 47.2414 13.1536C47.291 13.06 47.3361 12.9668 47.3766 12.8748C47.3772 12.8733 47.378 12.8717 47.3785 12.8702C47.3918 12.8398 47.4051 12.8094 47.4174 12.7791C47.4318 12.7443 47.4435 12.7073 47.4572 12.6718C47.4767 12.6209 47.4961 12.5701 47.5141 12.518C47.5288 12.4748 47.5422 12.4306 47.5557 12.3865C47.5769 12.3183 47.5974 12.2497 47.6161 12.1796C47.6222 12.1558 47.6277 12.1316 47.6336 12.1075C47.8749 11.1382 47.8669 9.98619 47.6046 8.68591C47.6036 8.68162 47.6027 8.67722 47.6018 8.67293C47.5748 8.54013 47.5459 8.40629 47.5136 8.27046C47.4988 8.20731 47.4817 8.14332 47.4657 8.07965C47.4484 8.01095 47.4327 7.94309 47.4141 7.87355C47.4131 7.86968 47.4112 7.86632 47.4102 7.86245C47.2823 7.38689 47.1247 6.89813 46.9351 6.39838C46.1146 4.23463 44.8199 2.12136 43.4718 0.745148C42.9771 0.240263 42.311 -0.0156881 41.5527 0.000753947C39.1853 0.0564683 35.4132 2.89319 30.3326 8.43436C30.2319 8.391 30.1211 8.36681 30.0048 8.36681H22.9945C22.8783 8.36681 22.7674 8.391 22.6668 8.43436C17.5862 2.89319 13.8141 0.0566778 11.4467 0.000753947C10.6864 -0.0157928 10.0222 0.240263 9.52758 0.745148C8.1796 2.12125 6.88482 4.23463 6.06436 6.39838C5.87503 6.89782 5.71748 7.38626 5.58964 7.86161C5.58839 7.8657 5.58653 7.86947 5.58539 7.87365C5.5651 7.94927 5.54792 8.02299 5.52918 8.09777C5.515 8.15432 5.49989 8.21129 5.48654 8.26753C5.13676 9.74071 5.09877 11.0366 5.36625 12.1091C5.37194 12.1323 5.37733 12.1559 5.38333 12.179C5.40196 12.2497 5.42287 12.3191 5.4443 12.3878C5.45765 12.4312 5.4709 12.4748 5.4854 12.5173C5.50351 12.5699 5.52308 12.6214 5.54285 12.6727C5.5562 12.7079 5.568 12.7446 5.58208 12.779C5.5945 12.8091 5.60754 12.8393 5.62079 12.8695C5.62162 12.8713 5.62235 12.8731 5.62318 12.875C5.66355 12.9668 5.70868 13.0599 5.75806 13.1532C5.76095 13.1588 5.76396 13.1643 5.76696 13.1698C5.81323 13.2562 5.86333 13.3426 5.9182 13.429C5.91975 13.4314 5.9212 13.4338 5.92275 13.4363C5.97565 13.5191 6.03206 13.6018 6.09345 13.6837H0.83682C0.374519 13.6837 0 14.0628 0 14.5303V22.8846C0 23.3522 0.374519 23.7312 0.83682 23.7312H3.59748V27.5026C3.59748 27.9702 3.972 28.3492 4.4343 28.3492C4.8966 28.3492 5.27112 27.9701 5.27112 27.5026V23.7312H20.9087H21.3881V33.7113C21.3881 34.1789 21.7626 34.5579 22.2249 34.5579C22.6872 34.5579 23.0617 34.1788 23.0617 33.7113V23.7312H29.9383V48.3067H23.0617V37.0978C23.0617 36.6302 22.6872 36.2512 22.2249 36.2512C21.7626 36.2512 21.3881 36.6303 21.3881 37.0978V48.3067H5.27122V30.8893C5.27122 30.4217 4.8967 30.0427 4.4344 30.0427C3.9721 30.0427 3.59758 30.4218 3.59758 30.8893V49.1534C3.59758 49.621 3.9721 50 4.4344 50H22.2248H30.775H48.5655C49.0278 50 49.4023 49.6209 49.4023 49.1534V44.5379C49.4023 44.0703 49.0278 43.6913 48.5655 43.6913C48.1032 43.6913 47.7287 44.0704 47.7287 44.5379V48.3068H31.612V23.7313H32.0914H47.7289V41.1515C47.7289 41.6191 48.1034 41.9981 48.5657 41.9981C49.028 41.9981 49.4025 41.619 49.4025 41.1515V23.7313H52.1632C52.6255 23.7313 53 23.3522 53 22.8847V14.5304C53 14.0628 52.6255 13.6837 52.1632 13.6837ZM46.1139 11.0594C46.1126 11.0752 46.1112 11.0912 46.1097 11.1069C46.1035 11.1731 46.0951 11.2376 46.0862 11.3019C46.0813 11.3365 46.0766 11.3715 46.0709 11.4053C46.0639 11.4476 46.0554 11.4888 46.0472 11.5301C46.0375 11.5777 46.0284 11.6257 46.0173 11.6718C46.0121 11.6931 46.0059 11.7135 46.0004 11.7346C45.9249 12.0228 45.8186 12.2805 45.68 12.5026C45.6115 12.6114 45.5351 12.7126 45.4505 12.8061C45.444 12.8132 45.4373 12.8199 45.4307 12.8268C45.3975 12.8626 45.3629 12.897 45.3272 12.9306C45.3103 12.9463 45.2932 12.9618 45.2759 12.977C45.2516 12.9983 45.2267 13.0188 45.2013 13.0391C45.1747 13.0603 45.1483 13.0816 45.1207 13.1017C45.1111 13.1088 45.1009 13.1152 45.0911 13.1221C44.7032 13.3945 44.2011 13.5681 43.5885 13.6412C43.5681 13.6437 43.5476 13.6461 43.527 13.6483C43.4774 13.6536 43.4271 13.6581 43.3763 13.6622C43.3353 13.6653 43.2937 13.6679 43.2518 13.6704C43.2139 13.6725 43.1763 13.6749 43.1376 13.6764C43.0527 13.6796 42.9664 13.6818 42.8778 13.6818H35.1335C36.3151 12.4196 38.5103 10.4762 41.9332 8.90866C43.8868 8.01409 45.292 7.85658 45.8313 8.46274C46.0699 9.39931 46.1786 10.2923 46.1139 11.0594ZM23.8317 10.0602H29.1683V13.6821H23.8317V10.0602ZM7.16887 8.46284C7.70839 7.8569 9.11383 8.01441 11.067 8.90887C14.4902 10.4765 16.6855 12.4202 17.8667 13.682H10.1224C10.0336 13.682 9.94744 13.6799 9.86255 13.6766C9.82394 13.6752 9.78626 13.6727 9.74838 13.6706C9.70656 13.6682 9.66494 13.6656 9.62395 13.6624C9.57302 13.6583 9.52271 13.6538 9.47323 13.6485C9.45253 13.6464 9.43214 13.6439 9.41174 13.6415C8.79914 13.5684 8.29698 13.3947 7.90911 13.1223C7.89928 13.1154 7.88913 13.1089 7.87951 13.1019C7.85176 13.0817 7.82537 13.0603 7.79887 13.0393C7.77361 13.019 7.74856 12.9984 7.72444 12.9772C7.70705 12.9619 7.68987 12.9465 7.67299 12.9308C7.63738 12.8973 7.6027 12.8628 7.56958 12.827C7.56306 12.82 7.55623 12.8134 7.54981 12.8063C7.46524 12.7126 7.38884 12.6116 7.32031 12.5028C7.18181 12.2812 7.07571 12.024 7.00035 11.7364C6.99465 11.7147 6.98824 11.6935 6.98296 11.6716C6.97188 11.6261 6.96287 11.5787 6.95335 11.5316C6.94497 11.4895 6.93638 11.4476 6.92923 11.4045C6.92364 11.3714 6.91919 11.3374 6.91433 11.3034C6.90532 11.2382 6.89683 11.1725 6.89041 11.1051C6.88896 11.0905 6.88772 11.0759 6.88638 11.0612C6.82116 10.2936 6.92985 9.39983 7.16887 8.46284ZM20.0719 22.0381H4.4344H1.67364V15.3771H20.0719V22.0381ZM20.0752 13.6821C19.2825 12.6277 16.7277 9.64269 11.7572 7.36647C10.5439 6.81089 9.10296 6.33324 7.86377 6.42288C8.583 4.71459 9.61701 3.05991 10.7167 1.93735C10.8287 1.82299 11.0037 1.69344 11.3701 1.69344C11.3825 1.69344 11.3952 1.69365 11.4079 1.69386C13.3285 1.73911 17.2388 4.89953 22.1579 10.377V13.6823H20.0751V13.6821H20.0752ZM31.2544 22.0381H30.775H22.2248H21.7454V15.3771H31.2543V22.0381H31.2544ZM30.842 13.6821V10.3768C35.7611 4.89932 39.6714 1.739 41.592 1.69365C41.983 1.68475 42.1676 1.81891 42.2833 1.93714C43.3831 3.05981 44.4171 4.71427 45.1363 6.42257C43.897 6.33292 42.4561 6.81068 41.2429 7.36626C36.2723 9.64259 33.7177 12.6277 32.9249 13.6819H30.8421V13.6821H30.842ZM51.3264 22.0381H48.5657H32.928V15.3771H51.3263V22.0381H51.3264Z" fill="black"/>
</svg>
