<svg width="490" height="258" viewBox="0 0 490 258" fill="none" xmlns="http://www.w3.org/2000/svg">
<path d="M295.657 1.36751C295.657 1.36751 284.545 0.309225 284.479 0.309225C275.947 -0.352201 258.419 0.243083 258.287 0.309225C134.071 6.39434 32.1453 100.317 15.8081 223.54L15.3451 226.781C15.3451 226.781 5.55598 226.781 0 226.781C4.76227 234.189 16.0726 251.519 20.1735 257.868C24.2743 251.519 35.5186 234.189 40.347 226.781C35.5186 226.781 26.0602 226.781 26.0602 226.781L26.6555 222.548C43.9187 101.772 149.019 10.6275 271.118 10.6275C278.791 10.6275 286.728 11.0243 295.26 11.8842C304.124 13.0086 312.854 14.5299 321.122 16.5142C371.655 27.097 417.69 52.2311 454.135 89.2048C467.76 103.029 479.666 118.175 489.852 134.38C451.621 62.5494 380.386 11.4873 295.657 1.36751Z" fill="#E0004D"/>
</svg>
