<svg width="97" height="90" viewBox="0 0 97 90" fill="none" xmlns="http://www.w3.org/2000/svg">
<path d="M41.8748 18.0907C34.2751 9.67343 22.5768 -1.76651 18.4334 2.41401C12.0976 8.80648 5.42467 26.1514 18.4334 26.1514C26.2547 26.1514 35.6358 26.1514 41.8748 26.1514V18.0907Z" fill="#FFDB57"/>
<path d="M54.6409 18.0907C62.2404 9.67343 73.939 -1.76651 78.0823 2.41401C84.4181 8.80648 91.091 26.1514 78.0823 26.1514C70.261 26.1514 60.8797 26.1514 54.6409 26.1514V18.0907Z" fill="#FFDB57"/>
<path d="M88.4393 41.1923H8.07527V88.4769H88.4393V41.1923Z" fill="#F7105F"/>
<path d="M88.4393 41.1923H8.07527V47.288H88.4393V41.1923Z" fill="#E0004D"/>
<path d="M94.9918 26.1541H1.5239V41.1922H94.9918V26.1541Z" fill="#F7105F"/>
<path d="M58.4399 26.1541H38.076V41.1922H58.4399V26.1541Z" fill="#FFDB57"/>
<path d="M56.0441 41.1923H40.4736V88.4769H56.0441V41.1923Z" fill="#FFDB57"/>
<path d="M56.0441 41.1923H40.4736V47.2554H56.0441V41.1923Z" fill="#F5BA3D"/>
<path d="M20.7822 14.6479C15.0338 12.0457 12.6339 13.0738 11.642 14.5729C10.0092 20.5702 11.0541 26.1515 18.4332 26.1515C23.9894 26.1515 30.3329 26.1515 35.7781 26.1515C35.7783 26.1517 31.4419 19.4731 20.7822 14.6479Z" fill="#EF9325"/>
<path d="M75.7336 14.6479C81.4819 12.0457 83.8818 13.0738 84.8735 14.5729C86.5064 20.5702 85.4615 26.1515 78.0823 26.1515C72.5261 26.1515 66.1826 26.1515 60.7374 26.1515C60.7374 26.1517 65.0737 19.4731 75.7336 14.6479Z" fill="#EF9325"/>
<path d="M54.6417 16.5837H41.8756V26.152H54.6417V16.5837Z" fill="#F5BA3D"/>
<path d="M94.9918 24.6306H85.4189C85.5306 24.4835 85.6336 24.3348 85.7297 24.1853C85.7325 24.181 85.735 24.1768 85.7378 24.1725C85.8377 24.0168 85.9291 23.8609 86.0136 23.7052C86.0189 23.6956 86.024 23.6862 86.0291 23.6765C86.1193 23.508 86.2015 23.3403 86.2752 23.1746C86.2764 23.1719 86.2777 23.1691 86.2786 23.1664C86.303 23.1116 86.3271 23.0569 86.3495 23.0024C86.3757 22.9397 86.397 22.8731 86.4219 22.8092C86.4575 22.7176 86.4928 22.6262 86.5256 22.5323C86.5523 22.4546 86.5769 22.3751 86.6014 22.2957C86.64 22.173 86.6773 22.0495 86.7113 21.9232C86.7224 21.8805 86.7326 21.8369 86.7433 21.7936C87.1827 20.0487 87.168 17.9751 86.6903 15.6346C86.6886 15.6269 86.6869 15.619 86.6852 15.6113C86.6362 15.3722 86.5835 15.1313 86.5246 14.8868C86.4977 14.7732 86.4666 14.658 86.4375 14.5434C86.4059 14.4197 86.3774 14.2976 86.3435 14.1724C86.3416 14.1654 86.3382 14.1594 86.3363 14.1524C86.1035 13.2964 85.8164 12.4166 85.4713 11.5171C83.977 7.62233 81.6193 3.81844 79.1644 1.34127C78.2635 0.432473 77.0505 -0.0282385 75.6696 0.0013571C71.3585 0.101643 64.4893 5.20774 55.2371 15.1818C55.0539 15.1038 54.852 15.0603 54.6403 15.0603H41.8742C41.6626 15.0603 41.4607 15.1038 41.2774 15.1818C32.0253 5.20774 25.1561 0.10202 20.8449 0.0013571C19.4605 -0.028427 18.2509 0.432473 17.3502 1.34127C14.8955 3.81825 12.5376 7.62233 11.0435 11.5171C10.6987 12.4161 10.4118 13.2953 10.179 14.1509C10.1768 14.1583 10.1734 14.165 10.1713 14.1726C10.1343 14.3087 10.103 14.4414 10.0689 14.576C10.0431 14.6778 10.0156 14.7803 9.99126 14.8816C9.35429 17.5333 9.28511 19.8659 9.77222 21.7964C9.78258 21.8382 9.79239 21.8806 9.80332 21.9221C9.83725 22.0495 9.87533 22.1743 9.91435 22.298C9.93867 22.3762 9.9628 22.4546 9.98919 22.5312C10.0222 22.6258 10.0578 22.7186 10.0938 22.8109C10.1181 22.8743 10.1396 22.9402 10.1653 23.0023C10.1879 23.0564 10.2116 23.1107 10.2358 23.1651C10.2373 23.1683 10.2386 23.1715 10.2401 23.1749C10.3136 23.3403 10.3958 23.5078 10.4857 23.6758C10.491 23.6858 10.4965 23.6958 10.5019 23.7056C10.5862 23.8611 10.6774 24.0166 10.7773 24.1721C10.7802 24.1765 10.7828 24.1808 10.7856 24.1853C10.882 24.3344 10.9847 24.4832 11.0965 24.6306H1.52389C0.682019 24.6306 0 25.313 0 26.1545V41.1923C0 42.034 0.682019 42.7162 1.52389 42.7162H6.55119V49.5047C6.55119 50.3464 7.23321 51.0286 8.07509 51.0286C8.91696 51.0286 9.59898 50.3462 9.59898 49.5047V42.7162H38.0758H38.9488V60.6803C38.9488 61.522 39.6308 62.2042 40.4727 62.2042C41.3146 62.2042 41.9966 61.5218 41.9966 60.6803V42.7162H54.5191V86.952H41.9966V66.7761C41.9966 65.9344 41.3146 65.2522 40.4727 65.2522C39.6308 65.2522 38.9488 65.9346 38.9488 66.7761V86.952H9.59917V55.6008C9.59917 54.7591 8.91715 54.0769 8.07527 54.0769C7.2334 54.0769 6.55138 54.7593 6.55138 55.6008V88.4761C6.55138 89.3178 7.2334 90 8.07527 90H40.4725H56.0428H88.4403C89.2821 90 89.9641 89.3176 89.9641 88.4761V80.1682C89.9641 79.3265 89.2821 78.6443 88.4403 78.6443C87.5984 78.6443 86.9164 79.3267 86.9164 80.1682V86.9522H57.5671V42.7163H58.4401H86.9167V74.0726C86.9167 74.9143 87.5988 75.5965 88.4406 75.5965C89.2825 75.5965 89.9645 74.9141 89.9645 74.0726V42.7163H94.9918C95.8337 42.7163 96.5157 42.034 96.5157 41.1925V26.1547C96.5157 25.313 95.8337 24.6306 94.9918 24.6306ZM83.9758 19.907C83.9734 19.9354 83.9709 19.9641 83.9681 19.9924C83.9568 20.1115 83.9415 20.2276 83.9253 20.3434C83.9165 20.4058 83.9078 20.4687 83.8974 20.5296C83.8848 20.6058 83.8693 20.6798 83.8542 20.7541C83.8367 20.8399 83.8201 20.9262 83.7998 21.0092C83.7903 21.0476 83.779 21.0844 83.769 21.1223C83.6316 21.641 83.438 22.105 83.1856 22.5046C83.0608 22.7005 82.9217 22.8827 82.7677 23.0509C82.7558 23.0637 82.7436 23.0758 82.7317 23.0882C82.6712 23.1527 82.6082 23.2145 82.5432 23.275C82.5125 23.3033 82.4812 23.3312 82.4497 23.3585C82.4056 23.397 82.3601 23.4338 82.3139 23.4703C82.2655 23.5086 82.2174 23.5469 82.1671 23.583C82.1496 23.5959 82.1311 23.6074 82.1132 23.6198C81.4069 24.1101 80.4924 24.4227 79.3768 24.5542C79.3397 24.5586 79.3024 24.5629 79.2648 24.5669C79.1746 24.5765 79.0829 24.5846 78.9904 24.5919C78.9157 24.5976 78.84 24.6023 78.7638 24.6066C78.6948 24.6104 78.6262 24.6147 78.5559 24.6176C78.4011 24.6232 78.2441 24.6272 78.0827 24.6272H63.9799C66.1317 22.3553 70.1292 18.8572 76.3626 16.0356C79.9201 14.4254 82.4791 14.1419 83.4612 15.2329C83.8957 16.9188 84.0936 18.5262 83.9758 19.907ZM43.3987 18.1084H53.117V24.6278H43.3987V18.1084ZM13.0549 15.2331C14.0374 14.1424 16.5967 14.4259 20.1535 16.036C26.3874 18.8577 30.3851 22.3564 32.5362 24.6276H18.4334C18.2716 24.6276 18.1148 24.6238 17.9602 24.618C17.8899 24.6153 17.8213 24.6108 17.7523 24.607C17.6761 24.6027 17.6004 24.5982 17.5257 24.5923C17.433 24.585 17.3413 24.5769 17.2512 24.5672C17.2135 24.5635 17.1764 24.559 17.1393 24.5546C16.0237 24.423 15.1092 24.1105 14.4029 23.6202C14.385 23.6077 14.3665 23.5961 14.349 23.5834C14.2985 23.547 14.2504 23.5086 14.2021 23.4707C14.1561 23.4341 14.1105 23.3972 14.0666 23.3589C14.0349 23.3314 14.0036 23.3037 13.9729 23.2754C13.9081 23.2151 13.8449 23.1531 13.7846 23.0886C13.7727 23.076 13.7603 23.0641 13.7486 23.0513C13.5946 22.8827 13.4555 22.7008 13.3307 22.505C13.0784 22.1061 12.8852 21.6431 12.748 21.1255C12.7376 21.0865 12.7259 21.0484 12.7163 21.0088C12.6962 20.927 12.6798 20.8416 12.6624 20.7569C12.6471 20.6812 12.6315 20.6058 12.6185 20.5281C12.6083 20.4685 12.6002 20.4073 12.5913 20.3462C12.5749 20.2288 12.5595 20.1106 12.5478 19.9892C12.5452 19.963 12.5429 19.9366 12.5404 19.9102C12.4217 18.5284 12.6196 16.9197 13.0549 15.2331ZM36.5519 39.6686H8.07527H3.04779V27.6787H36.5519V39.6686ZM36.558 24.6278C35.1144 22.7299 30.462 17.3568 21.4105 13.2596C19.201 12.2596 16.577 11.3998 14.3203 11.5612C15.6301 8.48626 17.5131 5.50784 19.5156 3.48723C19.7196 3.28138 20.0383 3.0482 20.7054 3.0482C20.7281 3.0482 20.7513 3.04858 20.7744 3.04895C24.2718 3.13039 31.3927 8.81916 40.3507 18.6787V24.6281H36.5578V24.6278H36.558ZM56.9158 39.6686H56.0428H40.4725H39.5995V27.6787H56.9156V39.6686H56.9158ZM56.1648 24.6278V18.6783C65.1228 8.81878 72.2437 3.1302 75.7411 3.04858C76.4533 3.03255 76.7894 3.27403 77.0001 3.48686C79.0028 5.50765 80.8858 8.48569 82.1956 11.5606C79.9388 11.3993 77.3147 12.2592 75.1054 13.2593C66.0537 17.3567 61.4017 22.7299 59.9579 24.6274H56.165V24.6278H56.1648ZM93.4679 39.6686H88.4406H59.9636V27.6787H93.4677V39.6686H93.4679Z" fill="black"/>
</svg>
