<?xml version="1.0" encoding="UTF-8"?>
<svg width="40px" height="40px" viewBox="0 0 40 40" version="1.1" xmlns="http://www.w3.org/2000/svg" xmlns:xlink="http://www.w3.org/1999/xlink">
    <!-- Generator: sketchtool 52.5 (67469) - http://www.bohemiancoding.com/sketch -->
    <title>D4AD734A-24F9-4933-8CC0-BE5FBAE0F068</title>
    <desc>Created with sketchtool.</desc>
    <defs>
        <linearGradient x1="0%" y1="0%" x2="101.999998%" y2="100.999999%" id="linearGradient-1">
            <stop stop-color="#3023AE" offset="0%"></stop>
            <stop stop-color="#C86DD7" offset="100%"></stop>
        </linearGradient>
    </defs>
    <g id="Packaged-tour" stroke="none" stroke-width="1" fill="none" fill-rule="evenodd">
        <g id="main-page" transform="translate(-975.000000, -73.000000)">
            <g id="header" transform="translate(-156.000000, 0.000000)">
                <g id="Group-4" transform="translate(1083.000000, 52.000000)">
                    <g id="tag-(1)" transform="translate(48.000000, 21.000000)">
                        <path d="M39.1325,16.6779687 L36.4809375,6.07132813 C36.3152344,5.4415625 36.0003906,4.89460938 35.5528906,4.44710938 C35.1053906,3.99960938 34.5584375,3.6846875 33.9286719,3.5190625 L23.3220312,0.8675 C22.1289062,0.56921875 20.8528125,0.9171875 19.974375,1.79554688 L1.03164062,20.7382812 C-0.343828125,22.11375 -0.34390625,24.3345312 1.03164062,25.7101562 L14.2899219,38.9684375 C15.6654687,40.3439844 17.8863281,40.3439062 19.2617969,38.9684375 L38.2045312,20.0257031 C39.0828906,19.1472656 39.4308594,17.8710937 39.1325,16.6779687 Z M25.8908594,14.1091406 C24.5153125,12.7335938 24.5153906,10.5127344 25.8908594,9.13726562 C27.2664062,7.76171875 29.4871094,7.76171875 30.8627344,9.13726562 C32.2383594,10.5128125 32.2382812,12.7335156 30.8627344,14.1091406 C29.4872656,15.4846094 27.2664062,15.4846875 25.8908594,14.1091406 Z" id="Shape" fill="url(#linearGradient-1)" fill-rule="nonzero"></path>
                        <path d="M14.2899219,19.0810156 C12.9191406,17.7102344 12.9191406,15.48 14.2899219,14.1091406 C15.6607031,12.7382812 17.8909375,12.7383594 19.2617969,14.1091406 C20.6326562,15.4799219 20.6325781,17.7101562 19.2617969,19.0810156 C17.8910156,20.451875 15.6607031,20.4517969 14.2899219,19.0810156 Z M17.6044531,15.7664062 C17.1472656,15.3092187 16.404375,15.3092187 15.9471875,15.7664062 C15.49,16.2235937 15.49,16.9664844 15.9471875,17.4236719 C16.404375,17.8808594 17.1472656,17.8808594 17.6044531,17.4236719 C18.0616406,16.9664844 18.0616406,16.2235937 17.6044531,15.7664062 Z" id="Shape" fill="#FFE470" fill-rule="nonzero"></path>
                        <path d="M15.9471875,30.6819531 C14.5764063,29.3111719 14.5764063,27.0809375 15.9471875,25.7100781 C17.3179688,24.3392969 19.5482031,24.3392969 20.9190625,25.7100781 C22.2898437,27.0808594 22.2898437,29.3110937 20.9190625,30.6819531 C19.5482031,32.0527344 17.3179688,32.0527344 15.9471875,30.6819531 Z M19.2617187,27.3674219 C18.8045312,26.9102344 18.0616406,26.9102344 17.6044531,27.3674219 C17.1472656,27.8246094 17.1472656,28.5675 17.6044531,29.0246875 C18.0616406,29.481875 18.8045312,29.481875 19.2617187,29.0246875 C19.7189844,28.5675 19.7189844,27.8246094 19.2617187,27.3674219 Z" id="Shape" fill="#FFD400" fill-rule="nonzero"></path>
                        <path d="M25.1948437,22.7270313 L16.2786719,23.7213281 L10.2792969,24.3842969 C9.89804688,24.4339844 9.56664063,24.3014844 9.31804688,24.0528125 C9.13578125,23.8705469 9.01984375,23.621875 8.9865625,23.3567969 C8.90375,22.7103125 9.384375,22.1303125 10.0140625,22.0640625 L18.9302344,21.0697656 L24.9296094,20.4067969 C25.5760937,20.3239844 26.1560156,20.8045313 26.2223438,21.4342969 C26.3053125,22.080625 25.8246094,22.660625 25.1948437,22.7270313 Z" id="Path" fill="#FFE470"></path>
                        <path d="M25.1948438,22.7270312 L16.2786719,23.7213281 L18.9303125,21.0696875 L24.9296875,20.4067188 C25.5761719,20.3239063 26.1560937,20.8044531 26.2224219,21.4342187 C26.3053125,22.080625 25.8246094,22.660625 25.1948438,22.7270312 Z" id="Path" fill="#FFD400"></path>
                        <path d="M39.6519531,2.0053125 L30.8627344,10.7946094 C30.3986719,11.2586719 29.6695312,11.2586719 29.2054687,10.7946094 C28.7414062,10.3305469 28.7414062,9.60140625 29.2054687,9.13734375 L37.9946875,0.348046875 C38.45875,-0.116015625 39.1878906,-0.116015625 39.6519531,0.348046875 C40.1160156,0.812109375 40.1160156,1.54125 39.6519531,2.0053125 Z" id="Path" fill="#3E5959"></path>
                        <path d="M29.2053906,10.7946094 L39.6519531,0.348046875 C40.1160156,0.812109375 40.1160156,1.54125 39.6519531,2.0053125 L30.8627344,10.7946094 C30.3985937,11.2586719 29.6695312,11.2586719 29.2053906,10.7946094 Z" id="Path" fill="#384949"></path>
                    </g>
                </g>
            </g>
        </g>
    </g>
</svg>