<svg width="151" height="150" viewBox="0 0 151 150" fill="none" xmlns="http://www.w3.org/2000/svg">
<path class="timer__circle-path" d="M76.9697 10.9867C79.413 11.0572 81.8327 11.2608 84.2054 11.6053L86.1083 0.798747C83.1169 0.352388 80.0707 0.0783085 76.9697 0V10.9867Z" fill="green"/>
<path class="timer__circle-path" d="M88.0576 12.2787C90.446 12.7721 92.7796 13.4142 95.0662 14.1738L98.825 3.85275C95.9433 2.88955 92.9832 2.09081 89.9683 1.47217L88.0576 12.2787Z" fill="green"/>
<path class="timer__circle-path" d="M98.7393 15.513C100.995 16.4135 103.195 17.4315 105.317 18.5748L110.799 9.07602C108.121 7.61948 105.349 6.31956 102.49 5.18408L98.7393 15.513Z" fill="green"/>
<path class="timer__circle-path" d="M108.708 20.5482C110.768 21.8246 112.749 23.2263 114.644 24.722L121.699 16.3117C119.311 14.4088 116.805 12.6468 114.197 11.0415L108.708 20.5482Z" fill="green"/>
<path class="timer__circle-path" d="M122.772 32.3647L131.175 25.317C129.147 23.0303 126.985 20.8612 124.691 18.833L117.643 27.2355C119.444 28.8487 121.159 30.5636 122.772 32.3647Z" fill="green"/>
<path class="timer__circle-path" d="M125.286 35.372C126.781 37.2671 128.183 39.2483 129.459 41.3078L138.966 35.8184C137.361 33.2107 135.599 30.7048 133.696 28.3164L125.286 35.372Z" fill="green"/>
<path class="timer__circle-path" d="M131.425 44.6828C132.569 46.805 133.587 49.0054 134.487 51.2607L144.808 47.5019C143.681 44.6436 142.381 41.8715 140.916 39.1934L131.425 44.6828Z" fill="green"/>
<path class="timer__circle-path" d="M146.155 51.1826L135.834 54.9414C136.586 57.228 137.236 59.5616 137.729 61.95L148.536 60.0471C147.917 57.0244 147.126 54.0644 146.155 51.1826Z" fill="green"/>
<path class="timer__circle-path" d="M138.402 65.8106C138.747 68.1834 138.95 70.5953 139.021 73.0463H150.008C149.929 69.9531 149.655 66.8991 149.209 63.9077L138.402 65.8106Z" fill="green"/>
<path class="timer__circle-path" d="M139.021 76.9536C138.95 79.3968 138.747 81.8166 138.402 84.1893L149.209 86.0922C149.655 83.1008 149.929 80.0468 150.008 76.9536H139.021Z" fill="green"/>
<path class="timer__circle-path" d="M137.729 88.0425C137.236 90.4309 136.594 92.7645 135.834 95.0511L146.155 98.8099C147.118 95.9281 147.917 92.9759 148.536 89.9532L137.729 88.0425Z" fill="green"/>
<path class="timer__circle-path" d="M134.495 98.7314C133.594 100.987 132.576 103.187 131.433 105.309L140.931 110.791C142.388 108.113 143.688 105.341 144.823 102.482L134.495 98.7314Z" fill="green"/>
<path class="timer__circle-path" d="M129.459 108.692C128.183 110.752 126.781 112.733 125.286 114.628L133.696 121.684C135.599 119.295 137.361 116.789 138.966 114.182L129.459 108.692Z" fill="green"/>
<path class="timer__circle-path" d="M122.772 117.627C121.159 119.429 119.444 121.143 117.643 122.757L124.691 131.159C126.977 129.131 129.147 126.97 131.175 124.675L122.772 117.627Z" fill="green"/>
<path class="timer__circle-path" d="M114.636 125.27C112.741 126.766 110.76 128.167 108.7 129.444L114.19 138.951C116.797 137.345 119.303 135.583 121.692 133.68L114.636 125.27Z" fill="green"/>
<path class="timer__circle-path" d="M105.325 131.417C103.203 132.561 101.002 133.579 98.7471 134.479L102.506 144.8C105.364 143.673 108.136 142.373 110.814 140.908L105.325 131.417Z" fill="green"/>
<path class="timer__circle-path" d="M95.0662 135.826C92.7796 136.578 90.446 137.228 88.0576 137.721L89.9606 148.528C92.9833 147.917 95.9433 147.118 98.825 146.147L95.0662 135.826Z" fill="green"/>
<path class="timer__circle-path" d="M84.1976 138.387C81.8248 138.731 79.413 138.935 76.9697 139.005V149.992C80.0629 149.914 83.1169 149.64 86.1083 149.193L84.1976 138.387Z" fill="green"/>
<path class="timer__circle-path" d="M73.0541 139.013C70.6109 138.943 68.1912 138.739 65.8184 138.395L63.9155 149.201C66.9069 149.647 69.9531 149.922 73.0541 150V139.013Z" fill="green"/>
<path class="timer__circle-path" d="M61.9579 137.721C59.5694 137.228 57.2358 136.586 54.9492 135.826L51.1904 146.147C54.0722 147.11 57.0322 147.909 60.0471 148.528L61.9579 137.721Z" fill="green"/>
<path class="timer__circle-path" d="M51.2763 134.479C49.021 133.579 46.8206 132.561 44.6984 131.417L39.2168 140.916C41.8949 142.373 44.6671 143.673 47.5254 144.808L51.2763 134.479Z" fill="green"/>
<path class="timer__circle-path" d="M41.3078 129.452C39.2483 128.175 37.2671 126.774 35.372 125.278L28.3164 133.688C30.7048 135.591 33.2107 137.353 35.8184 138.958L41.3078 129.452Z" fill="green"/>
<path class="timer__circle-path" d="M27.2433 117.627L18.8408 124.675C20.869 126.962 23.0303 129.131 25.3247 131.159L32.3725 122.757C30.5714 121.151 28.8565 119.436 27.2433 117.627Z" fill="green"/>
<path class="timer__circle-path" d="M24.7298 114.628C23.2341 112.733 21.8324 110.752 20.556 108.692L11.0493 114.182C12.6546 116.789 14.4166 119.295 16.3195 121.684L24.7298 114.628Z" fill="green"/>
<path class="timer__circle-path" d="M18.5905 105.309C17.4472 103.187 16.4291 100.987 15.5286 98.7314L5.20752 102.49C6.33516 105.349 7.63511 108.121 9.09948 110.799L18.5905 105.309Z" fill="green"/>
<path class="timer__circle-path" d="M14.1816 95.0511C13.4299 92.7645 12.7799 90.4309 12.2866 88.0425L1.47998 89.9454C2.09079 92.9681 2.88956 95.9281 3.86059 98.8021L14.1816 95.0511Z" fill="green"/>
<path class="timer__circle-path" d="M11.6131 84.1893C11.2686 81.8166 11.065 79.4047 10.9945 76.9536H0.0078125C0.086121 80.0468 0.360216 83.1008 0.806575 86.0922L11.6131 84.1893Z" fill="green"/>
<path class="timer__circle-path" d="M10.9945 73.0385C11.065 70.5953 11.2686 68.1755 11.6131 65.8028L0.798715 63.8999C0.352356 66.8913 0.0861394 69.9453 0 73.0385H10.9945Z" fill="green"/>
<path class="timer__circle-path" d="M12.2866 61.95C12.7799 59.5616 13.4221 57.228 14.1816 54.9414L3.86059 51.1826C2.8974 54.0644 2.09862 57.0166 1.47998 60.0393L12.2866 61.95Z" fill="green"/>
<path class="timer__circle-path" d="M15.5207 51.2685C16.4213 49.0132 17.4393 46.8127 18.5826 44.6906L9.08381 39.209C7.62727 41.8871 6.32737 44.6593 5.19189 47.5175L15.5207 51.2685Z" fill="green"/>
<path class="timer__circle-path" d="M20.556 41.3C21.8324 39.2405 23.2341 37.2593 24.7298 35.3642L16.3195 28.3086C14.4166 30.697 12.6546 33.2029 11.0493 35.8105L20.556 41.3Z" fill="green"/>
<path class="timer__circle-path" d="M27.2433 32.3647C28.8565 30.5636 30.5714 28.8487 32.3725 27.2355L25.3247 18.833C23.0381 20.8612 20.869 23.0225 18.8408 25.317L27.2433 32.3647Z" fill="green"/>
<path class="timer__circle-path" d="M35.3798 24.722C37.2749 23.2263 39.2561 21.8246 41.3156 20.5482L35.8262 11.0415C33.2185 12.6468 30.7126 14.4088 28.3242 16.3117L35.3798 24.722Z" fill="green"/>
<path class="timer__circle-path" d="M44.6984 18.5826C46.8206 17.4393 49.0211 16.4213 51.2764 15.5208L47.5176 5.19971C44.6593 6.32735 41.8871 7.62727 39.209 9.09164L44.6984 18.5826Z" fill="green"/>
<path class="timer__circle-path" d="M65.8184 11.6053C68.1912 11.2608 70.6031 11.0572 73.0541 10.9867V0C69.9609 0.0783085 66.9069 0.352388 63.9155 0.798747L65.8184 11.6053Z" fill="green"/>
<path class="timer__circle-path" d="M54.9492 14.1738C57.2358 13.4221 59.5694 12.7799 61.9578 12.2787L60.0549 1.47217C57.0322 2.08297 54.0722 2.88172 51.1982 3.85275L54.9492 14.1738Z" fill="green"/>
</svg>
