<?xml version="1.0" encoding="UTF-8"?>
<svg width="210px" height="121px" viewBox="0 0 210 121" version="1.1" xmlns="http://www.w3.org/2000/svg" xmlns:xlink="http://www.w3.org/1999/xlink">
    <title>Group</title>
    <g id="Page-1" stroke="none" stroke-width="1" fill="none" fill-rule="evenodd">
        <g id="Artboard" transform="translate(-70.000000, -44.000000)" fill="#FFFFFF" fill-rule="nonzero">
            <g id="Group" transform="translate(70.839844, 44.582354)">
                <path d="M48.800781,80.4176459 C51.714844,80.4762399 54.601562,79.8278019 57.210937,78.5270209 C56.4375,78.0817079 55.714844,77.5543649 55.050781,76.9567079 C53.683594,77.9528019 52.023437,78.4684269 50.332031,78.4176459 C48.585937,78.4840519 46.902344,77.7926459 45.710937,76.5192079 C44.460937,75.3004579 43.777344,73.6129579 43.832031,71.8668649 C43.832031,71.1676459 43.832031,47.6481149 43.589844,48.0074899 C42.988281,44.4762399 40.589844,42.6871769 36.339844,42.6871769 C35.921875,42.6871769 35.503906,42.7106149 35.0897817,42.7574899 L35.0897817,68.3160839 C35.070312,73.6285839 39.640625,80.4176459 48.800781,80.4176459 Z" id="Path"></path>
                <path d="M66.390625,80.4176459 L66.390625,79.6285839 C65.121094,79.6285839 61.738281,78.8082709 61.75,71.8863959 C61.75,71.1871769 61.75,47.6793649 61.511718,48.0465519 C60.898437,44.4762399 58.511718,42.7067079 54.25,42.7067079 C53.78125,42.7067079 53.53125,42.7067079 53.011718,42.7770209 L53.011718,68.3395209 C52.96875,73.5778019 57.441406,80.2887399 66.390625,80.4176459 Z" id="Path"></path>
                <path d="M4.511718,77.7965519 C7.636718,79.9449899 11.371094,81.0270209 15.160156,80.8785839 C19.386718,80.8785839 22.71875,80.1403019 25.160156,78.6676459 C29.730468,75.9567079 32.011718,72.1988959 32.019531,67.3395209 C32.136718,62.4918649 29.59375,57.9723339 25.390625,55.5582709 L13.160156,50.0465519 C8.738281,48.0465519 6.535156,45.4449899 6.539062,42.2379579 C6.460937,40.0856149 7.441406,38.0309269 9.160156,36.7379579 C10.90625,35.4840519 13.011718,34.8356149 15.160156,34.8981149 C17.300781,34.8668649 19.414062,35.3707709 21.308594,36.3590519 L21.308594,32.8785839 C19.304687,32.3356149 17.238281,32.0699899 15.160156,32.0895209 C11.265625,31.9488959 7.457031,33.2574899 4.46875,35.7574899 C1.539062,38.2848339 -0.054688,42.0309269 0.160156,45.8981149 C0.207031,50.4918649 2.640625,54.7340519 6.582031,57.0973339 L18.140625,62.6285839 C22.230468,64.6285839 24.289062,67.2067079 24.28125,70.3590519 C24.304687,72.7028019 23.128906,74.8942079 21.160156,76.1676459 C19.242187,77.5270209 16.933594,78.2301459 14.582031,78.1676459 C12.046875,78.1949899 9.582031,77.3629579 7.582031,75.8082709 C5.796875,74.5934269 4.613281,72.6754579 4.332031,70.5387399 L3.55271368e-15,70.5387399 C0.464844,73.4684269 2.089844,76.0856149 4.511718,77.7965519 Z" id="Path"></path>
                <path d="M80.671875,42.7692079 C77.761718,42.6988959 74.875,43.3395209 72.269531,44.6363959 C73.039062,45.0895209 73.757812,45.6207709 74.421875,46.2184269 C75.796875,45.2184269 77.460937,44.6988959 79.160156,44.7379579 C80.90625,44.6793649 82.59375,45.3746769 83.789062,46.6481149 C85.019531,47.8746769 85.6875,49.5543649 85.640625,51.2887399 C85.640625,51.9957709 85.640625,75.5192079 85.898437,75.1559269 C86.488281,78.6910839 88.898437,80.4645209 93.140625,80.4762399 C93.609375,80.4762399 93.859375,80.4762399 94.3790649,80.4059269 L94.3790649,54.8590519 C94.410156,49.5660839 89.832031,42.7770209 80.671875,42.7692079 Z" id="Path"></path>
                <path d="M63.082031,42.7574899 L63.082031,43.5387399 C64.351562,43.5387399 67.71875,44.3590519 67.71875,51.2692079 C67.71875,51.9684269 67.71875,75.4957709 67.96875,75.1363959 C68.558594,78.6676459 70.96875,80.4488959 75.210937,80.4488959 C75.632812,80.4528019 76.050781,80.4293649 76.46875,80.3785839 L76.46875,54.8278019 C76.5,49.6090519 72.03125,42.9059269 63.082031,42.7574899 Z" id="Path"></path>
                <path d="M96.308594,42.2262399 L96.308594,43.0192079 C97.609375,43.0192079 101.03125,43.8668649 101.019531,50.8785839 C101.019531,51.5778019 101.019531,75.4488959 101.28125,75.0895209 C101.886718,78.6793649 104.335937,80.4801459 108.628906,80.4879579 C109.109375,80.4879579 109.359375,80.4879579 109.871094,80.4176459 L109.871094,54.4762399 C109.921875,49.1988959 105.390625,42.4176459 96.308594,42.2262399 Z" id="Path"></path>
                <path d="M151.082031,78.0465519 C153.324218,80.0973339 156.292968,81.1715519 159.328125,81.0231149 C162.367187,80.8746769 165.21875,79.5192079 167.25,77.2574899 L167.160156,74.0582709 C167.039062,74.2692079 166.910156,74.4762399 166.78125,74.6793649 C165.835937,76.5973339 163.871094,77.8043649 161.730468,77.7770209 C158.890625,77.7770209 157.46875,74.9645209 157.46875,69.3395209 C157.46875,66.6168649 158.089844,64.5660839 159.300781,63.1871769 C160.554687,61.9918649 161.996094,61.0074899 163.570312,60.2770209 C164.839844,59.6481149 166.046875,58.8981149 167.171875,58.0387399 L167.171875,54.7692079 C166.0625,55.8785839 164.71875,56.7223339 163.238281,57.2379579 L153.488281,60.9684269 C150.121094,62.6832709 148.042968,66.1871769 148.160156,69.9684269 C148.015625,72.9410839 149.066406,75.8512399 151.082031,78.0465519 Z" id="Path"></path>
                <path d="M114.21875,42.2457709 C111.046875,42.0348339 107.890625,42.8512399 105.21875,44.5778019 C105.949218,45.0465519 106.621094,45.5934269 107.21875,46.2184269 L107.441406,46.0387399 C108.898437,44.8356149 110.742187,44.2028019 112.628906,44.2457709 C114.394531,44.1910839 116.097656,44.8942079 117.308594,46.1793649 C118.570312,47.4137399 119.257812,49.1207709 119.210937,50.8863959 C119.210937,51.5973339 119.210937,75.4684269 119.460937,75.0895209 C120.066406,78.6871769 122.515625,80.4918649 126.808594,80.4957709 C127.300781,80.4957709 127.539062,80.4957709 128.082031,80.4371769 L128.082031,54.5074899 C128.160156,49.1559269 123.511718,42.2457709 114.21875,42.2457709 Z" id="Path"></path>
                <path d="M177.21875,55.0465519 C177.21875,49.6988959 172.589844,42.8082709 163.289062,42.7770209 C160.265625,42.7067079 157.269531,43.3942079 154.582031,44.7770209 C153.113281,45.5543649 151.886718,46.7184269 151.039062,48.1481149 L155.160156,48.1481149 C155.515625,47.5387399 155.984375,47.0035839 156.539062,46.5660839 C157.996094,45.3629579 159.839844,44.7262399 161.730468,44.7770209 C163.5,44.7184269 165.210937,45.4254579 166.421875,46.7184269 C167.683594,47.9528019 168.375,49.6520209 168.332031,51.4176459 C168.332031,52.1168649 168.332031,75.9879579 168.589844,75.6168649 C169.191406,79.2184269 171.589844,81.0074899 175.921875,81.0270209 C176.339844,81.0270209 176.761718,80.9996769 177.179687,80.9488959 L177.21875,55.0465519 Z" id="Path"></path>
                <path d="M204.71875,44.3278019 C202.035156,42.9488959 199.046875,42.2613959 196.03125,42.3278019 C186.730468,42.3278019 182.03125,49.2067079 182.03125,54.5582709 L182.03125,80.4879579 C182.570312,80.4879579 182.820312,80.5660839 183.300781,80.5660839 C187.59375,80.5660839 190.050781,78.7692079 190.671875,75.1793649 C190.871094,75.5387399 190.960937,51.6793649 190.988281,50.9684269 C190.964844,49.2106149 191.644531,47.5153019 192.882812,46.2653019 C194.121094,45.0153019 195.8125,44.3160839 197.570312,44.3278019 C199.457031,44.2848339 201.292968,44.9293649 202.738281,46.1363959 C203.3125,46.5660839 203.792968,47.1051459 204.160156,47.7184269 L208.308594,47.7184269 C207.429687,46.2926459 206.191406,45.1246769 204.71875,44.3278019 Z" id="Path"></path>
                <path d="M131.621094,42.2457709 C128.664062,42.1871769 125.734375,42.8473339 123.089844,44.1676459 C123.867187,44.6285839 124.601562,45.1598339 125.28125,45.7574899 C126.667968,44.7496769 128.34375,44.2223339 130.058594,44.2574899 C131.847656,44.2067079 133.566406,44.9371769 134.769531,46.2574899 C136.03125,47.4879579 136.714844,49.1949899 136.648437,50.9567079 C136.648437,51.6676459 136.648437,75.5387399 136.910156,75.1559269 C137.511718,78.7574899 139.957031,80.5582709 144.25,80.5582709 C144.671875,80.5582709 145.09375,80.5348339 145.511718,80.4879579 L145.511718,54.5582709 C145.550781,49.1676459 140.898437,42.2457709 131.621094,42.2457709 Z" id="Path"></path>
                <path d="M163.398437,24.0973339 C175.140625,20.7574899 180.839844,14.2887399 191.648437,11.3590519 C193.792968,10.7106149 196.058594,10.5621769 198.269531,10.9293649 C199.886718,11.4488959 201.457031,12.0973339 202.96875,12.8668649 L193.910156,6.57780194 C190.789062,4.41764594 186.851562,3.41764594 181.691406,4.72623994 C170.058594,7.60905194 164.011718,14.3082709 151.320312,17.6090519 C117.371094,26.4176459 87.78125,17.4176459 53.738281,3.34733394 L53.679687,3.41764594 C93.621094,20.5895209 125.089844,35.0387399 163.398437,24.0973339 Z" id="Path"></path>
                <path d="M152.28125,12.8278019 C160.929687,10.1988959 165.339844,6.25748994 173.710937,3.75748994 C175.394531,3.23014594 177.148437,2.97623994 178.910156,2.99577094 C180.113281,3.10123994 181.300781,3.34342694 182.449218,3.71842694 L175.679687,0.847333941 C173.320312,-0.152666059 170.28125,-0.383135059 166.199218,0.788739941 C157.199218,3.36686494 152.671875,7.53873994 143.378906,10.2692079 C119.621094,17.2692079 98.519531,14.6871769 73.53125,9.85905194 C102.820312,15.8863959 125.46875,20.9567079 152.28125,12.8278019 Z" id="Path"></path>
                <polygon id="Path" points="28.050781 100.53874 29.910156 100.53874 29.910156 113.22624 28.050781 113.22624"></polygon>
                <path d="M25.550781,109.327802 C25.550781,106.847334 23.699218,105.527021 20.191406,105.527021 C19.75,105.527021 19.25,105.527021 18.648437,105.616865 L18.300781,105.616865 L18.300781,100.50749 L16.449218,100.50749 L16.449218,113.206708 L20.21875,113.206708 C23.710937,113.237958 25.550781,111.878584 25.550781,109.327802 Z M18.300781,111.905927 L18.300781,107.00749 L18.589844,107.00749 C19.113281,106.948896 19.636718,106.917646 20.160156,106.917646 C22.550781,106.917646 23.671875,107.706708 23.671875,109.417646 C23.671875,111.128584 22.550781,111.937177 20.160156,111.937177 L18.300781,111.905927 Z" id="Shape"></path>
                <polygon id="Path" points="43.238281 100.53874 34.949218 100.53874 34.949218 113.237958 36.800781 113.237958 36.800781 102.097334 42.699218 102.097334"></polygon>
                <path d="M52.308594,100.198896 C48.730468,100.198896 46.230468,102.948896 46.230468,106.878584 C46.230468,110.808271 48.71875,113.519208 52.28125,113.519208 C55.839844,113.519208 58.351562,110.78874 58.351562,106.878584 C58.351562,102.968427 55.808594,100.198896 52.308594,100.198896 Z M52.308594,112.109052 C49.851562,112.109052 48.199218,109.995771 48.199218,106.878584 C48.199218,103.75749 49.859375,101.616865 52.339844,101.616865 C54.820312,101.616865 56.441406,103.72624 56.441406,106.878584 C56.441406,110.027021 54.75,112.109052 52.28125,112.109052 L52.308594,112.109052 Z" id="Shape"></path>
                <path d="M74.71875,117.859052 L74.71875,111.859052 L72.820312,111.859052 L72.820312,100.53874 L66.160156,100.53874 C65.160156,106.277021 64.160156,109.218427 62.160156,111.72624 L62.058594,111.847334 L61.398437,111.847334 L61.398437,117.847334 L63.109375,117.847334 L63.109375,113.22624 L73.03125,113.22624 L73.03125,117.847334 L74.71875,117.859052 Z M70.960937,111.859052 L64.320312,111.859052 L64.320312,111.277021 C65.953125,108.499677 66.976562,105.409834 67.320312,102.206708 L67.320312,101.937177 L70.960937,101.937177 L70.960937,111.859052 Z" id="Shape"></path>
                <polygon id="Path" points="89.332031 113.237958 89.332031 100.53874 87.46875 100.53874 87.46875 105.679365 80.71875 105.679365 80.71875 100.53874 78.859375 100.53874 78.859375 113.237958 80.71875 113.237958 80.71875 107.198896 87.46875 107.198896 87.46875 113.237958"></polygon>
                <path d="M103.488281,109.327802 C103.488281,106.847334 101.628906,105.527021 98.121094,105.527021 C97.695312,105.527021 97.183594,105.558271 96.589844,105.616865 L96.230468,105.616865 L96.230468,100.50749 L94.378906,100.50749 L94.378906,113.206708 L98.160156,113.206708 C101.640625,113.237958 103.488281,111.878584 103.488281,109.327802 Z M96.230468,111.905927 L96.230468,107.00749 L96.519531,107.00749 C97.042968,106.948896 97.566406,106.917646 98.089844,106.917646 C100.488281,106.917646 101.601562,107.706708 101.601562,109.417646 C101.601562,111.128584 100.488281,111.937177 98.089844,111.937177 L96.230468,111.905927 Z" id="Shape"></path>
                <polygon id="Path" points="105.980468 100.53874 107.839844 100.53874 107.839844 113.22624 105.980468 113.22624"></polygon>
                <path d="M118.671875,112.128584 C117.429687,112.159834 116.234375,111.66374 115.375,110.769208 C114.515625,109.870771 114.074218,108.655927 114.160156,107.417646 L114.160156,107.097334 L122.832031,107.097334 L122.832031,106.796552 C122.832031,102.655927 120.832031,100.179365 117.609375,100.179365 C114.390625,100.179365 112.25,102.827802 112.25,106.769208 C112.25,110.019208 113.871094,113.495771 118.441406,113.495771 C119.835937,113.511396 121.214844,113.167646 122.441406,112.495771 L121.929687,111.347334 C120.921875,111.866865 119.804687,112.136396 118.671875,112.128584 Z M114.160156,105.566084 C114.160156,103.198896 115.609375,101.566084 117.609375,101.566084 C119.832031,101.566084 120.859375,103.566084 120.890625,105.566084 L120.890625,105.898115 L114.160156,105.898115 L114.160156,105.566084 Z" id="Shape"></path>
                <polygon id="Path" points="143.800781 100.53874 132.921875 100.53874 132.921875 102.00749 137.148437 102.00749 137.148437 113.237958 139.011718 113.237958 139.011718 102.00749 143.28125 102.00749"></polygon>
                <path d="M158.320312,100.53874 L156.390625,100.53874 L152.949218,110.886396 L152.449218,110.886396 L152.359375,110.698896 L148.039062,100.53874 L146.039062,100.53874 L151.859375,113.53874 L151.859375,113.648115 C150.859375,116.917646 149.460937,118.448896 147.460937,118.448896 C146.875,118.44499 146.292968,118.339521 145.738281,118.136396 L145.320312,119.519208 C146.023437,119.777021 146.769531,119.902021 147.519531,119.886396 C149.519531,119.886396 151.519531,119.448896 153.441406,114.25749 L158.320312,100.53874 Z" id="Path"></path>
                <path d="M166.21875,100.198896 C164.753906,100.214521 163.300781,100.460615 161.910156,100.929365 L161.910156,119.929365 L163.761718,119.929365 L163.761718,112.929365 L164.199218,113.097334 C164.890625,113.362958 165.621094,113.495771 166.359375,113.495771 C170.269531,113.495771 172.890625,110.808271 172.890625,106.796552 C172.890625,102.616865 170.460937,100.198896 166.21875,100.198896 Z M166.21875,112.046552 C165.421875,112.062177 164.636718,111.890302 163.921875,111.53874 L163.730468,111.448896 L163.730468,102.03874 L163.96875,101.968427 C164.660156,101.753584 165.378906,101.648115 166.101562,101.648115 C169.101562,101.648115 170.921875,103.566084 170.921875,106.78874 C170.921875,110.00749 169.160156,112.046552 166.25,112.046552 L166.21875,112.046552 Z" id="Shape"></path>
                <polygon id="Path" points="188.800781 100.53874 190.660156 100.53874 190.660156 113.22624 188.800781 113.22624"></polygon>
                <path d="M186.308594,109.327802 C186.308594,106.847334 184.449218,105.527021 180.941406,105.527021 C180.507812,105.527021 179.996094,105.558271 179.410156,105.616865 L179.058594,105.616865 L179.058594,100.50749 L177.160156,100.50749 L177.160156,113.206708 L180.929687,113.206708 C184.460937,113.237958 186.308594,111.878584 186.308594,109.327802 Z M179.058594,111.905927 L179.058594,107.00749 L179.339844,107.00749 C179.863281,106.948896 180.386718,106.917646 180.910156,106.917646 C183.300781,106.917646 184.421875,107.706708 184.421875,109.417646 C184.421875,111.128584 183.300781,111.937177 180.910156,111.937177 L179.058594,111.905927 Z" id="Shape"></path>
                <path d="M8.480468,104.046552 C8.058594,103.937177 7.859375,103.898115 7.410156,103.796552 L8.410156,103.339521 C9.792968,102.659834 10.644531,101.22624 10.582031,99.6871769 C10.582031,97.5582709 9.148437,95.2965519 5.128906,95.2965519 L0.761718,95.2965519 L0.761718,113.237958 L5.691406,113.237958 C9.460937,113.237958 11.800781,111.316084 11.800781,108.237958 C11.84375,106.22624 10.449218,104.464521 8.480468,104.046552 Z M2.640625,96.7379579 L4.929687,96.7379579 C7.339844,96.7379579 8.71875,97.9371769 8.71875,100.019208 C8.71875,102.097334 7.28125,103.359052 4.871094,103.359052 L2.640625,103.359052 L2.640625,96.7379579 Z M5.550781,111.796552 L2.640625,111.796552 L2.640625,104.796552 L5.839844,104.796552 C8.28125,104.796552 9.839844,106.155927 9.839844,108.25749 C9.859375,109.866865 9.160156,111.796552 5.550781,111.796552 Z" id="Shape"></path>
            </g>
        </g>
    </g>
</svg>