<?xml version="1.0" encoding="UTF-8"?>
<svg width="21px" height="21px" viewBox="0 0 21 21" version="1.1" xmlns="http://www.w3.org/2000/svg" xmlns:xlink="http://www.w3.org/1999/xlink">
    <!-- Generator: Sketch 52.6 (67491) - http://www.bohemiancoding.com/sketch -->
    <title>united-states</title>
    <desc>Created with Sketch.</desc>
    <defs>
        <path d="M2,0 L19,0 C20.1045695,-2.02906125e-16 21,0.8954305 21,2 L21,19 C21,20.1045695 20.1045695,21 19,21 L2,21 C0.8954305,21 1.3527075e-16,20.1045695 0,19 L0,2 C-1.3527075e-16,0.8954305 0.8954305,2.02906125e-16 2,0 Z" id="path-1"></path>
    </defs>
    <g id="Ui-Kit" stroke="none" stroke-width="1" fill="none" fill-rule="evenodd">
        <g id="ui-kit" transform="translate(-400.000000, -6005.000000)">
            <g id="united-states" transform="translate(400.000000, 6005.000000)">
                <g id="Group">
                    <mask id="mask-2" fill="white">
                        <use xlink:href="#path-1"></use>
                    </mask>
                    <use id="Mask" fill="#F5F5F5" fill-rule="nonzero" xlink:href="#path-1"></use>
                    <g mask="url(#mask-2)" fill-rule="nonzero">
                        <polygon id="Rectangle-path" fill="#FF4B55" points="0 0.00963867187 21 0.00963867187 21 1.62319336 0 1.62319336"></polygon>
                        <polygon id="Rectangle-path" fill="#FF4B55" points="0 6.46529297 21 6.46529297 21 8.07884766 0 8.07884766"></polygon>
                        <polygon id="Rectangle-path" fill="#FF4B55" points="0 3.23756836 21 3.23756836 21 4.85112305 0 4.85112305"></polygon>
                        <polygon id="Rectangle-path" fill="#FF4B55" points="0 9.6928125 21 9.6928125 21 11.3063672 0 11.3063672"></polygon>
                        <polygon id="Rectangle-path" fill="#FF4B55" points="0 16.1482617 21 16.1482617 21 17.7618164 0 17.7618164"></polygon>
                        <polygon id="Rectangle-path" fill="#FF4B55" points="0 19.3761914 21 19.3761914 21 20.9897461 0 20.9897461"></polygon>
                        <polygon id="Rectangle-path" fill="#FF4B55" points="0 12.9207422 21 12.9207422 21 14.5342969 0 14.5342969"></polygon>
                        <polygon id="Rectangle-path" fill="#41479B" points="0 0 12 0 12 12 0 12"></polygon>
                        <g transform="translate(1.000000, 1.000000)" fill="#F5F5F5" id="Shape">
                            <path d="M0.528244978,0.0341466102 L0.619982096,0.301111017 L0.909978603,0.303292373 C0.947503493,0.303586017 0.963110044,0.350065678 0.932891266,0.371711441 L0.69961441,0.538878814 L0.787071616,0.807185593 C0.798398253,0.841919492 0.757674236,0.870654661 0.727066376,0.849470339 L0.49110917,0.685826695 L0.255151965,0.849470339 C0.224630568,0.87069661 0.183863319,0.841919492 0.195146725,0.807185593 L0.28260393,0.538878814 L0.0493270742,0.371711441 C0.0191515284,0.350065678 0.0346716157,0.303586017 0.072239738,0.303292373 L0.362236245,0.301111017 L0.453973362,0.0341466102 C0.465991703,-0.000419491525 0.516399563,-0.000419491525 0.528244978,0.0341466102 Z"></path>
                            <path d="M0.528244978,2.26114322 L0.619982096,2.52810763 L0.909978603,2.53028898 C0.947503493,2.53058263 0.963110044,2.57706229 0.932891266,2.59870805 L0.69961441,2.76587542 L0.787071616,3.0341822 C0.798398253,3.0689161 0.757674236,3.09765127 0.727066376,3.07646695 L0.49110917,2.91282331 L0.255151965,3.07646695 C0.224630568,3.09769322 0.183863319,3.0689161 0.195146725,3.0341822 L0.28260393,2.76587542 L0.0493270742,2.59870805 C0.0191515284,2.57706229 0.0346716157,2.53058263 0.072239738,2.53028898 L0.362236245,2.52810763 L0.453973362,2.26114322 C0.465991703,2.22653517 0.516399563,2.22653517 0.528244978,2.26114322 Z"></path>
                            <path d="M0.528244978,4.73102542 L0.619982096,4.99798983 L0.909978603,5.00017119 C0.947503493,5.00046483 0.963110044,5.04694449 0.932891266,5.0686322 L0.69961441,5.23579958 L0.787071616,5.50410636 C0.798398253,5.53884025 0.757674236,5.56757542 0.727066376,5.5463911 L0.49110917,5.38274746 L0.255151965,5.5463911 C0.224630568,5.56761737 0.183863319,5.53884025 0.195146725,5.50410636 L0.28260393,5.23579958 L0.0493270742,5.0686322 C0.0191515284,5.04698644 0.0346716157,5.00046483 0.072239738,5.00017119 L0.362236245,4.99798983 L0.453973362,4.73102542 C0.465991703,4.69645932 0.516399563,4.69645932 0.528244978,4.73102542 Z"></path>
                            <path d="M0.528244978,7.00030678 L0.619982096,7.26727119 L0.909978603,7.26945254 C0.947503493,7.26974619 0.963110044,7.31622585 0.932891266,7.33787161 L0.69961441,7.50503898 L0.787071616,7.77334576 C0.798398253,7.80807966 0.757674236,7.83681483 0.727066376,7.81563051 L0.49110917,7.65198686 L0.255151965,7.81563051 C0.224630568,7.83685678 0.183863319,7.80807966 0.195146725,7.77334576 L0.28260393,7.50503898 L0.0493270742,7.33787161 C0.0191515284,7.31622585 0.0346716157,7.26974619 0.072239738,7.26945254 L0.362236245,7.26727119 L0.453973362,7.00030678 C0.465991703,6.96574068 0.516399563,6.96574068 0.528244978,7.00030678 Z"></path>
                            <path d="M0.528244978,9.06529576 L0.619982096,9.33226017 L0.909978603,9.33444153 C0.947503493,9.33473517 0.963110044,9.38121483 0.932891266,9.40286059 L0.69961441,9.57002797 L0.787071616,9.83833475 C0.798398253,9.87306864 0.757674236,9.90180381 0.727066376,9.88061949 L0.49110917,9.71697585 L0.255151965,9.88061949 C0.224630568,9.90184576 0.183863319,9.87306864 0.195146725,9.83833475 L0.28260393,9.57002797 L0.0493270742,9.40286059 C0.0191515284,9.38121483 0.0346716157,9.33469322 0.072239738,9.33444153 L0.362236245,9.33226017 L0.453973362,9.06529576 C0.465991703,9.03072966 0.516399563,9.03072966 0.528244978,9.06529576 Z"></path>
                            <path d="M1.64530218,1.08870636 L1.7370393,1.35567076 L2.02703581,1.35785212 C2.0645607,1.35814576 2.08016725,1.40462542 2.04994847,1.42627119 L1.81667162,1.59343856 L1.90412882,1.86174534 C1.91545546,1.89647924 1.87473144,1.92521441 1.84412358,1.90403008 L1.60816638,1.74038644 L1.37220917,1.90403008 C1.34168777,1.92525636 1.30092052,1.89647924 1.31220393,1.86174534 L1.39966114,1.59343856 L1.16638428,1.42627119 C1.13620873,1.40462542 1.15172882,1.35814576 1.18929694,1.35785212 L1.47929345,1.35567076 L1.57103057,1.08870636 C1.58304891,1.05414025 1.63345677,1.05414025 1.64530218,1.08870636 Z"></path>
                            <path d="M1.64530218,3.55863051 L1.7370393,3.82559492 L2.02703581,3.82777627 C2.0645607,3.82806992 2.08016725,3.87454958 2.04994847,3.89619534 L1.81667162,4.06336271 L1.90412882,4.33166949 C1.91545546,4.36640339 1.87473144,4.39513856 1.84412358,4.37395424 L1.60816638,4.21031059 L1.37220917,4.37395424 C1.34168777,4.39518051 1.30092052,4.36640339 1.31220393,4.33166949 L1.39966114,4.06336271 L1.16638428,3.89619534 C1.13620873,3.87454958 1.15172882,3.82806992 1.18929694,3.82777627 L1.47929345,3.82559492 L1.57103057,3.55863051 C1.58304891,3.52406441 1.63345677,3.52406441 1.64530218,3.55863051 Z"></path>
                            <path d="M1.64530218,5.90522415 L1.7370393,6.17218856 L2.02703581,6.17436992 C2.0645607,6.17466356 2.08016725,6.22114322 2.04994847,6.24278898 L1.81667162,6.40995636 L1.90412882,6.67826314 C1.91545546,6.71299703 1.87473144,6.7417322 1.84412358,6.72054788 L1.60816638,6.55690424 L1.37220917,6.72054788 C1.34168777,6.74177415 1.30092052,6.71299703 1.31220393,6.67826314 L1.39966114,6.40995636 L1.16638428,6.24278898 C1.13620873,6.22114322 1.15172882,6.17466356 1.18929694,6.17436992 L1.47929345,6.17218856 L1.57103057,5.90522415 C1.58304891,5.8707 1.63345677,5.8707 1.64530218,5.90522415 Z"></path>
                            <path d="M1.64530218,8.01258178 L1.7370393,8.27954619 L2.02703581,8.28172754 C2.0645607,8.28202119 2.08016725,8.32850085 2.04994847,8.35014661 L1.81667162,8.51731398 L1.90412882,8.78562076 C1.91545546,8.82035466 1.87473144,8.84908983 1.84412358,8.82790551 L1.60816638,8.66426186 L1.37220917,8.82790551 C1.34168777,8.84913178 1.30092052,8.82035466 1.31220393,8.78562076 L1.39966114,8.51731398 L1.16638428,8.35014661 C1.13620873,8.32850085 1.15172882,8.28202119 1.18929694,8.28172754 L1.47929345,8.27954619 L1.57103057,8.01258178 C1.58304891,7.97797373 1.63345677,7.97797373 1.64530218,8.01258178 Z"></path>
                            <path d="M2.76240262,0.0341466102 L2.85413974,0.301111017 L3.14413624,0.303292373 C3.18166114,0.303586017 3.19726769,0.350065678 3.16704891,0.371711441 L2.93377205,0.538878814 L3.02122926,0.807185593 C3.0325559,0.841919492 2.99183188,0.870654661 2.96122402,0.849470339 L2.72526681,0.685826695 L2.48930961,0.849470339 C2.45878821,0.87069661 2.41802096,0.841919492 2.42930437,0.807185593 L2.51676157,0.538878814 L2.28348472,0.371711441 C2.25330917,0.350065678 2.26882926,0.303586017 2.30639738,0.303292373 L2.59639389,0.301111017 L2.688131,0.0341466102 C2.70014934,-0.000419491525 2.75051397,-0.000419491525 2.76240262,0.0341466102 Z"></path>
                            <path d="M2.76240262,2.26114322 L2.85413974,2.52810763 L3.14413624,2.53028898 C3.18166114,2.53058263 3.19726769,2.57706229 3.16704891,2.59870805 L2.93377205,2.76587542 L3.02122926,3.0341822 C3.0325559,3.0689161 2.99183188,3.09765127 2.96122402,3.07646695 L2.72526681,2.91282331 L2.48930961,3.07646695 C2.45878821,3.09769322 2.41802096,3.0689161 2.42930437,3.0341822 L2.51676157,2.76587542 L2.28348472,2.59870805 C2.25330917,2.57706229 2.26882926,2.53058263 2.30639738,2.53028898 L2.59639389,2.52810763 L2.688131,2.26114322 C2.70014934,2.22653517 2.75051397,2.22653517 2.76240262,2.26114322 Z"></path>
                            <path d="M2.76240262,4.73102542 L2.85413974,4.99798983 L3.14413624,5.00017119 C3.18166114,5.00046483 3.19726769,5.04694449 3.16704891,5.0686322 L2.93377205,5.23579958 L3.02122926,5.50410636 C3.0325559,5.53884025 2.99183188,5.56757542 2.96122402,5.5463911 L2.72526681,5.38274746 L2.48930961,5.5463911 C2.45878821,5.56761737 2.41802096,5.53884025 2.42930437,5.50410636 L2.51676157,5.23579958 L2.28348472,5.0686322 C2.25330917,5.04698644 2.26882926,5.00046483 2.30639738,5.00017119 L2.59639389,4.99798983 L2.688131,4.73102542 C2.70014934,4.69645932 2.75051397,4.69645932 2.76240262,4.73102542 Z"></path>
                            <path d="M2.76240262,7.00030678 L2.85413974,7.26727119 L3.14413624,7.26945254 C3.18166114,7.26974619 3.19726769,7.31622585 3.16704891,7.33787161 L2.93377205,7.50503898 L3.02122926,7.77334576 C3.0325559,7.80807966 2.99183188,7.83681483 2.96122402,7.81563051 L2.72535328,7.65194492 L2.48939607,7.81558856 C2.45887467,7.83681483 2.41810742,7.80803771 2.42939083,7.77330381 L2.51684803,7.50499703 L2.28357118,7.33782966 C2.25339563,7.3161839 2.26891572,7.26970424 2.30648384,7.26941059 L2.59648035,7.26722924 L2.68821747,7.00026483 C2.70014934,6.96574068 2.75051397,6.96574068 2.76240262,7.00030678 Z"></path>
                            <path d="M2.76240262,9.06529576 L2.85413974,9.33226017 L3.14413624,9.33444153 C3.18166114,9.33473517 3.19726769,9.38121483 3.16704891,9.40286059 L2.93377205,9.57002797 L3.02122926,9.83833475 C3.0325559,9.87306864 2.99183188,9.90180381 2.96122402,9.88061949 L2.72526681,9.71697585 L2.48930961,9.88061949 C2.45878821,9.90184576 2.41802096,9.87306864 2.42930437,9.83833475 L2.51676157,9.57002797 L2.28348472,9.40286059 C2.25330917,9.38121483 2.26882926,9.33469322 2.30639738,9.33444153 L2.59639389,9.33226017 L2.688131,9.06529576 C2.70014934,9.03072966 2.75051397,9.03072966 2.76240262,9.06529576 Z"></path>
                            <path d="M3.87945983,1.08870636 L3.97119694,1.35567076 L4.26119345,1.35785212 C4.29871834,1.35814576 4.31432489,1.40462542 4.28410611,1.42627119 L4.05082926,1.59343856 L4.13828646,1.86174534 C4.1496131,1.89647924 4.10888908,1.92521441 4.07828122,1.90403008 L3.84232402,1.74038644 L3.60636681,1.90403008 C3.57584541,1.92525636 3.53507817,1.89647924 3.54636157,1.86174534 L3.63381878,1.59343856 L3.40054192,1.42627119 C3.37036638,1.40462542 3.38588646,1.35814576 3.42345459,1.35785212 L3.71358079,1.35567076 L3.8053179,1.08870636 C3.81720655,1.05414025 3.86757118,1.05414025 3.87945983,1.08870636 Z"></path>
                            <path d="M3.87945983,3.55863051 L3.97119694,3.82559492 L4.26119345,3.82777627 C4.29871834,3.82806992 4.31432489,3.87454958 4.28410611,3.89619534 L4.05082926,4.06336271 L4.13828646,4.33166949 C4.1496131,4.36640339 4.10888908,4.39513856 4.07828122,4.37395424 L3.84232402,4.21031059 L3.60636681,4.37395424 C3.57584541,4.39518051 3.53507817,4.36640339 3.54636157,4.33166949 L3.63381878,4.06336271 L3.40054192,3.89619534 C3.37036638,3.87454958 3.38588646,3.82806992 3.42345459,3.82777627 L3.71345109,3.82559492 L3.80518821,3.55863051 C3.81720655,3.52406441 3.86757118,3.52406441 3.87945983,3.55863051 Z"></path>
                            <path d="M3.87945983,5.90522415 L3.97119694,6.17218856 L4.26119345,6.17436992 C4.29871834,6.17466356 4.31432489,6.22114322 4.28410611,6.24278898 L4.05082926,6.40995636 L4.13828646,6.67826314 C4.1496131,6.71299703 4.10888908,6.7417322 4.07828122,6.72054788 L3.84232402,6.55690424 L3.60636681,6.72054788 C3.57584541,6.74177415 3.53507817,6.71299703 3.54636157,6.67826314 L3.63381878,6.40995636 L3.40054192,6.24278898 C3.37036638,6.22114322 3.38588646,6.17466356 3.42345459,6.17436992 L3.71345109,6.17218856 L3.80518821,5.90522415 C3.81720655,5.8707 3.86757118,5.8707 3.87945983,5.90522415 Z"></path>
                            <path d="M3.87945983,8.01258178 L3.97119694,8.27954619 L4.26119345,8.28172754 C4.29871834,8.28202119 4.31432489,8.32850085 4.28410611,8.35014661 L4.05082926,8.51731398 L4.13828646,8.78562076 C4.1496131,8.82035466 4.10888908,8.84908983 4.07828122,8.82790551 L3.84232402,8.66426186 L3.60636681,8.82790551 C3.57584541,8.84913178 3.53507817,8.82035466 3.54636157,8.78562076 L3.63381878,8.51731398 L3.40054192,8.35014661 C3.37036638,8.32850085 3.38588646,8.28202119 3.42345459,8.28172754 L3.71345109,8.27954619 L3.80518821,8.01258178 C3.81720655,7.97797373 3.86757118,7.97797373 3.87945983,8.01258178 Z"></path>
                            <path d="M4.99651703,0.0341466102 L5.08825415,0.301111017 L5.37825066,0.303292373 C5.41577555,0.303586017 5.4313821,0.350065678 5.40116332,0.371711441 L5.16788646,0.538878814 L5.25534367,0.807185593 C5.26667031,0.841919492 5.22594629,0.870654661 5.19533843,0.849470339 L4.95938122,0.685826695 L4.72342402,0.849470339 C4.69290262,0.87069661 4.65213537,0.841919492 4.66341878,0.807185593 L4.75087598,0.538878814 L4.51759913,0.371711441 C4.48742358,0.350065678 4.50294367,0.303586017 4.54051179,0.303292373 L4.8305083,0.301111017 L4.92224541,0.0341466102 C4.93426376,-0.000419491525 4.98462838,-0.000419491525 4.99651703,0.0341466102 Z"></path>
                            <path d="M4.99651703,2.26114322 L5.08825415,2.52810763 L5.37825066,2.53028898 C5.41577555,2.53058263 5.4313821,2.57706229 5.40116332,2.59870805 L5.16788646,2.76587542 L5.25534367,3.0341822 C5.26667031,3.0689161 5.22594629,3.09765127 5.19533843,3.07646695 L4.95938122,2.91282331 L4.72342402,3.07646695 C4.69290262,3.09769322 4.65213537,3.0689161 4.66341878,3.0341822 L4.75087598,2.76587542 L4.51759913,2.59870805 C4.48742358,2.57706229 4.50294367,2.53058263 4.54051179,2.53028898 L4.8305083,2.52810763 L4.92224541,2.26114322 C4.93426376,2.22653517 4.98462838,2.22653517 4.99651703,2.26114322 Z"></path>
                            <path d="M4.99651703,4.73102542 L5.08825415,4.99798983 L5.37825066,5.00017119 C5.41577555,5.00046483 5.4313821,5.04694449 5.40116332,5.0686322 L5.16788646,5.23579958 L5.25534367,5.50410636 C5.26667031,5.53884025 5.22594629,5.56757542 5.19533843,5.5463911 L4.95938122,5.38274746 L4.72342402,5.5463911 C4.69290262,5.56761737 4.65213537,5.53884025 4.66341878,5.50410636 L4.75087598,5.23579958 L4.51759913,5.0686322 C4.48742358,5.04698644 4.50294367,5.00046483 4.54051179,5.00017119 L4.8305083,4.99798983 L4.92224541,4.73102542 C4.93426376,4.69645932 4.98462838,4.69645932 4.99651703,4.73102542 Z"></path>
                            <path d="M4.99651703,7.00030678 L5.08825415,7.26727119 L5.37825066,7.26945254 C5.41577555,7.26974619 5.4313821,7.31622585 5.40116332,7.33787161 L5.16788646,7.50503898 L5.25534367,7.77334576 C5.26667031,7.80807966 5.22594629,7.83681483 5.19533843,7.81563051 L4.95938122,7.65198686 L4.72342402,7.81563051 C4.69290262,7.83685678 4.65213537,7.80807966 4.66341878,7.77334576 L4.75087598,7.50503898 L4.51759913,7.33787161 C4.48742358,7.31622585 4.50294367,7.26974619 4.54051179,7.26945254 L4.8305083,7.26727119 L4.92224541,7.00030678 C4.93426376,6.96574068 4.98462838,6.96574068 4.99651703,7.00030678 Z"></path>
                            <path d="M4.99651703,9.06529576 L5.08825415,9.33226017 L5.37825066,9.33444153 C5.41577555,9.33473517 5.4313821,9.38121483 5.40116332,9.40286059 L5.16788646,9.57002797 L5.25534367,9.83833475 C5.26667031,9.87306864 5.22594629,9.90180381 5.19533843,9.88061949 L4.95938122,9.71697585 L4.72342402,9.88061949 C4.69290262,9.90184576 4.65213537,9.87306864 4.66341878,9.83833475 L4.75087598,9.57002797 L4.51759913,9.40286059 C4.48742358,9.38121483 4.50294367,9.33469322 4.54051179,9.33444153 L4.8305083,9.33226017 L4.92224541,9.06529576 C4.93426376,9.03072966 4.98462838,9.03072966 4.99651703,9.06529576 Z"></path>
                            <path d="M6.11357424,1.08870636 L6.20531135,1.35567076 L6.49530786,1.35785212 C6.53283275,1.35814576 6.5484393,1.40462542 6.51822052,1.42627119 L6.28494367,1.59343856 L6.37240087,1.86174534 C6.38372751,1.89647924 6.34300349,1.92521441 6.31239563,1.90403008 L6.07643843,1.74038644 L5.84048122,1.90403008 C5.80995983,1.92525636 5.76919258,1.89647924 5.78047598,1.86174534 L5.86793319,1.59343856 L5.63465633,1.42627119 C5.60448079,1.40462542 5.62000087,1.35814576 5.65752576,1.35785212 L5.94752227,1.35567076 L6.03925939,1.08870636 C6.05132096,1.05414025 6.10168559,1.05414025 6.11357424,1.08870636 Z"></path>
                            <path d="M6.11357424,3.55863051 L6.20531135,3.82559492 L6.49530786,3.82777627 C6.53283275,3.82806992 6.5484393,3.87454958 6.51822052,3.89619534 L6.28494367,4.06336271 L6.37240087,4.33166949 C6.38372751,4.36640339 6.34300349,4.39513856 6.31239563,4.37395424 L6.07643843,4.21031059 L5.84048122,4.37395424 C5.80995983,4.39518051 5.76919258,4.36640339 5.78047598,4.33166949 L5.86793319,4.06336271 L5.63465633,3.89619534 C5.60448079,3.87454958 5.62000087,3.82806992 5.65752576,3.82777627 L5.94752227,3.82559492 L6.03925939,3.55863051 C6.05132096,3.52406441 6.10168559,3.52406441 6.11357424,3.55863051 Z"></path>
                            <path d="M6.11357424,5.90522415 L6.20531135,6.17218856 L6.49530786,6.17436992 C6.53283275,6.17466356 6.5484393,6.22114322 6.51822052,6.24278898 L6.28494367,6.40995636 L6.37240087,6.67826314 C6.38372751,6.71299703 6.34300349,6.7417322 6.31239563,6.72054788 L6.07643843,6.55690424 L5.84048122,6.72054788 C5.80995983,6.74177415 5.76919258,6.71299703 5.78047598,6.67826314 L5.86793319,6.40995636 L5.63465633,6.24278898 C5.60448079,6.22114322 5.62000087,6.17466356 5.65752576,6.17436992 L5.94752227,6.17218856 L6.03925939,5.90522415 C6.05132096,5.8707 6.10168559,5.8707 6.11357424,5.90522415 Z"></path>
                            <path d="M6.11357424,8.01258178 L6.20531135,8.27954619 L6.49530786,8.28172754 C6.53283275,8.28202119 6.5484393,8.32850085 6.51822052,8.35014661 L6.28494367,8.51731398 L6.37240087,8.78562076 C6.38372751,8.82035466 6.34300349,8.84908983 6.31239563,8.82790551 L6.07643843,8.66426186 L5.84048122,8.82790551 C5.80995983,8.84913178 5.76919258,8.82035466 5.78047598,8.78562076 L5.86793319,8.51731398 L5.63465633,8.35014661 C5.60448079,8.32850085 5.62000087,8.28202119 5.65752576,8.28172754 L5.94752227,8.27954619 L6.03925939,8.01258178 C6.05132096,7.97797373 6.10168559,7.97797373 6.11357424,8.01258178 Z"></path>
                            <path d="M7.23063144,0.0341466102 L7.32236856,0.301111017 L7.61236507,0.303292373 C7.64988996,0.303586017 7.66549651,0.350065678 7.63527773,0.371711441 L7.40200087,0.538878814 L7.48945808,0.807185593 C7.50078472,0.841919492 7.4600607,0.870654661 7.42945284,0.849470339 L7.19349563,0.685826695 L6.95753843,0.849470339 C6.92701703,0.87069661 6.88624978,0.841919492 6.89753319,0.807185593 L6.98499039,0.538878814 L6.75171354,0.371711441 C6.72153799,0.350065678 6.73705808,0.303586017 6.7746262,0.303292373 L7.06462271,0.301111017 L7.15635983,0.0341466102 C7.16837817,-0.000419491525 7.21874279,-0.000419491525 7.23063144,0.0341466102 Z"></path>
                            <path d="M7.23063144,2.26114322 L7.32236856,2.52810763 L7.61236507,2.53028898 C7.64988996,2.53058263 7.66549651,2.57706229 7.63527773,2.59870805 L7.40200087,2.76587542 L7.48945808,3.0341822 C7.50078472,3.0689161 7.4600607,3.09765127 7.42945284,3.07646695 L7.19349563,2.91282331 L6.95753843,3.07646695 C6.92701703,3.09769322 6.88624978,3.0689161 6.89753319,3.0341822 L6.98499039,2.76587542 L6.75171354,2.59870805 C6.72153799,2.57706229 6.73705808,2.53058263 6.7746262,2.53028898 L7.06462271,2.52810763 L7.15635983,2.26114322 C7.16837817,2.22653517 7.21874279,2.22653517 7.23063144,2.26114322 Z"></path>
                            <path d="M7.23063144,4.73102542 L7.32236856,4.99798983 L7.61236507,5.00017119 C7.64988996,5.00046483 7.66549651,5.04694449 7.63527773,5.0686322 L7.40200087,5.23579958 L7.48945808,5.50410636 C7.50078472,5.53884025 7.4600607,5.56757542 7.42945284,5.5463911 L7.19349563,5.38274746 L6.95753843,5.5463911 C6.92701703,5.56761737 6.88624978,5.53884025 6.89753319,5.50410636 L6.98499039,5.23579958 L6.75171354,5.0686322 C6.72153799,5.04698644 6.73705808,5.00046483 6.7746262,5.00017119 L7.06462271,4.99798983 L7.15635983,4.73102542 C7.16837817,4.69645932 7.21874279,4.69645932 7.23063144,4.73102542 Z"></path>
                            <path d="M7.23063144,7.00030678 L7.32236856,7.26727119 L7.61236507,7.26945254 C7.64988996,7.26974619 7.66549651,7.31622585 7.63527773,7.33787161 L7.40200087,7.50503898 L7.48945808,7.77334576 C7.50078472,7.80807966 7.4600607,7.83681483 7.42945284,7.81563051 L7.19349563,7.65198686 L6.95753843,7.81563051 C6.92701703,7.83685678 6.88624978,7.80807966 6.89753319,7.77334576 L6.98499039,7.50503898 L6.75171354,7.33787161 C6.72153799,7.31622585 6.73705808,7.26974619 6.7746262,7.26945254 L7.06462271,7.26727119 L7.15635983,7.00030678 C7.16837817,6.96574068 7.21874279,6.96574068 7.23063144,7.00030678 Z"></path>
                            <path d="M7.23063144,9.06529576 L7.32236856,9.33226017 L7.61236507,9.33444153 C7.64988996,9.33473517 7.66549651,9.38121483 7.63527773,9.40286059 L7.40200087,9.57002797 L7.48945808,9.83833475 C7.50078472,9.87306864 7.4600607,9.90180381 7.42945284,9.88061949 L7.19349563,9.71697585 L6.95753843,9.88061949 C6.92701703,9.90184576 6.88624978,9.87306864 6.89753319,9.83833475 L6.98499039,9.57002797 L6.75171354,9.40286059 C6.72153799,9.38121483 6.73705808,9.33469322 6.7746262,9.33444153 L7.06462271,9.33226017 L7.15635983,9.06529576 C7.16837817,9.03072966 7.21874279,9.03072966 7.23063144,9.06529576 Z"></path>
                            <path d="M8.34773188,1.08870636 L8.439469,1.35567076 L8.7294655,1.35785212 C8.76699039,1.35814576 8.78259694,1.40462542 8.75237817,1.42627119 L8.51910131,1.59343856 L8.60655852,1.86174534 C8.61788515,1.89647924 8.57716114,1.92521441 8.54655328,1.90403008 L8.31059607,1.74038644 L8.07463886,1.90403008 C8.04411747,1.92525636 8.00335022,1.89647924 8.01463362,1.86174534 L8.10209083,1.59343856 L7.86881397,1.42627119 C7.83863843,1.40462542 7.85415852,1.35814576 7.89172664,1.35785212 L8.18172314,1.35567076 L8.27346026,1.08870636 C8.28543537,1.05414025 8.33584323,1.05414025 8.34773188,1.08870636 Z"></path>
                            <path d="M8.34773188,3.55863051 L8.439469,3.82559492 L8.7294655,3.82777627 C8.76699039,3.82806992 8.78259694,3.87454958 8.75237817,3.89619534 L8.51910131,4.06336271 L8.60655852,4.33166949 C8.61788515,4.36640339 8.57716114,4.39513856 8.54655328,4.37395424 L8.31059607,4.21031059 L8.07463886,4.37395424 C8.04411747,4.39518051 8.00335022,4.36640339 8.01463362,4.33166949 L8.10209083,4.06336271 L7.86881397,3.89619534 C7.83863843,3.87454958 7.85415852,3.82806992 7.89172664,3.82777627 L8.18172314,3.82559492 L8.27346026,3.55863051 C8.28543537,3.52406441 8.33584323,3.52406441 8.34773188,3.55863051 Z"></path>
                            <path d="M8.34773188,5.90522415 L8.439469,6.17218856 L8.7294655,6.17436992 C8.76699039,6.17466356 8.78259694,6.22114322 8.75237817,6.24278898 L8.51910131,6.40995636 L8.60655852,6.67826314 C8.61788515,6.71299703 8.57716114,6.7417322 8.54655328,6.72054788 L8.31059607,6.55690424 L8.07463886,6.72054788 C8.04411747,6.74177415 8.00335022,6.71299703 8.01463362,6.67826314 L8.10209083,6.40995636 L7.86881397,6.24278898 C7.83863843,6.22114322 7.85415852,6.17466356 7.89172664,6.17436992 L8.18172314,6.17218856 L8.27346026,5.90522415 C8.28543537,5.8707 8.33584323,5.8707 8.34773188,5.90522415 Z"></path>
                            <path d="M8.34773188,8.01258178 L8.439469,8.27954619 L8.7294655,8.28172754 C8.76699039,8.28202119 8.78259694,8.32850085 8.75237817,8.35014661 L8.51910131,8.51731398 L8.60655852,8.78562076 C8.61788515,8.82035466 8.57716114,8.84908983 8.54655328,8.82790551 L8.31059607,8.66426186 L8.07463886,8.82790551 C8.04411747,8.84913178 8.00335022,8.82035466 8.01463362,8.78562076 L8.10209083,8.51731398 L7.86881397,8.35014661 C7.83863843,8.32850085 7.85415852,8.28202119 7.89172664,8.28172754 L8.18172314,8.27954619 L8.27346026,8.01258178 C8.28543537,7.97797373 8.33584323,7.97797373 8.34773188,8.01258178 Z"></path>
                            <path d="M9.46478908,0.0341466102 L9.5565262,0.301111017 L9.84652271,0.303292373 C9.8840476,0.303586017 9.89965415,0.350065678 9.86943537,0.371711441 L9.63615852,0.538878814 L9.72361572,0.807185593 C9.73494236,0.841919492 9.69421834,0.870654661 9.66361048,0.849470339 L9.42765328,0.685826695 L9.19169607,0.849470339 C9.16117467,0.87069661 9.12040742,0.841919492 9.13169083,0.807185593 L9.21914803,0.538878814 L8.98587118,0.371711441 C8.95569563,0.350065678 8.97121572,0.303586017 9.00878384,0.303292373 L9.29878035,0.301111017 L9.39051747,0.0341466102 C9.40249258,-0.000419491525 9.45290044,-0.000419491525 9.46478908,0.0341466102 Z"></path>
                            <path d="M9.46478908,2.26114322 L9.5565262,2.52810763 L9.84652271,2.53028898 C9.8840476,2.53058263 9.89965415,2.57706229 9.86943537,2.59870805 L9.63615852,2.76587542 L9.72361572,3.0341822 C9.73494236,3.0689161 9.69421834,3.09765127 9.66361048,3.07646695 L9.42765328,2.91282331 L9.19169607,3.07646695 C9.16117467,3.09769322 9.12040742,3.0689161 9.13169083,3.0341822 L9.21914803,2.76587542 L8.98587118,2.59870805 C8.95569563,2.57706229 8.97121572,2.53058263 9.00878384,2.53028898 L9.29878035,2.52810763 L9.39051747,2.26114322 C9.40249258,2.22653517 9.45290044,2.22653517 9.46478908,2.26114322 Z"></path>
                            <path d="M9.46478908,4.73102542 L9.5565262,4.99798983 L9.84652271,5.00017119 C9.8840476,5.00046483 9.89965415,5.04694449 9.86943537,5.0686322 L9.63615852,5.23579958 L9.72361572,5.50410636 C9.73494236,5.53884025 9.69421834,5.56757542 9.66361048,5.5463911 L9.42765328,5.38274746 L9.19169607,5.5463911 C9.16117467,5.56761737 9.12040742,5.53884025 9.13169083,5.50410636 L9.21914803,5.23579958 L8.98587118,5.0686322 C8.95569563,5.04698644 8.97121572,5.00046483 9.00878384,5.00017119 L9.29878035,4.99798983 L9.39051747,4.73102542 C9.40249258,4.69645932 9.45290044,4.69645932 9.46478908,4.73102542 Z"></path>
                            <path d="M9.46478908,7.00030678 L9.5565262,7.26727119 L9.84652271,7.26945254 C9.8840476,7.26974619 9.89965415,7.31622585 9.86943537,7.33787161 L9.63615852,7.50503898 L9.72361572,7.77334576 C9.73494236,7.80807966 9.69421834,7.83681483 9.66361048,7.81563051 L9.42765328,7.65198686 L9.19169607,7.81563051 C9.16117467,7.83685678 9.12040742,7.80807966 9.13169083,7.77334576 L9.21914803,7.50503898 L8.98587118,7.33787161 C8.95569563,7.31622585 8.97121572,7.26974619 9.00878384,7.26945254 L9.29878035,7.26727119 L9.39051747,7.00030678 C9.40249258,6.96574068 9.45290044,6.96574068 9.46478908,7.00030678 Z"></path>
                            <path d="M9.46478908,9.06529576 L9.5565262,9.33226017 L9.84652271,9.33444153 C9.8840476,9.33473517 9.89965415,9.38121483 9.86943537,9.40286059 L9.63615852,9.57002797 L9.72361572,9.83833475 C9.73494236,9.87306864 9.69421834,9.90180381 9.66361048,9.88061949 L9.42765328,9.71697585 L9.19169607,9.88061949 C9.16117467,9.90184576 9.12040742,9.87306864 9.13169083,9.83833475 L9.21914803,9.57002797 L8.98587118,9.40286059 C8.95569563,9.38121483 8.97121572,9.33469322 9.00878384,9.33444153 L9.29878035,9.33226017 L9.39051747,9.06529576 C9.40249258,9.03072966 9.45290044,9.03072966 9.46478908,9.06529576 Z"></path>
                        </g>
                    </g>
                </g>
            </g>
        </g>
    </g>
</svg>