<?xml version="1.0" encoding="UTF-8"?>
<svg width="21px" height="21px" viewBox="0 0 21 21" version="1.1" xmlns="http://www.w3.org/2000/svg" xmlns:xlink="http://www.w3.org/1999/xlink">
    <!-- Generator: Sketch 52.6 (67491) - http://www.bohemiancoding.com/sketch -->
    <title>european-union (1)</title>
    <desc>Created with Sketch.</desc>
    <g id="Ui-Kit" stroke="none" stroke-width="1" fill="none" fill-rule="evenodd">
        <g id="ui-kit" transform="translate(-448.000000, -6005.000000)" fill-rule="nonzero">
            <g id="european-union-(1)" transform="translate(448.000000, 6005.000000)">
                <rect id="Rectangle-path" fill="#41479B" x="0" y="0" width="21" height="21" rx="2"></rect>
                <g id="Group" transform="translate(4.000000, 4.000000)" fill="#FFE15A">
                    <path d="M6.57705975,0.0778359621 L6.7516195,0.602921136 L7.30334277,0.607227129 C7.37476101,0.607801262 7.40439937,0.699211356 7.34692138,0.741820189 L6.90308176,1.07063407 L7.06950629,1.59834385 C7.09105031,1.66666562 7.0135,1.72317666 6.95540881,1.68151104 L6.50654088,1.35966877 L6.05767296,1.68151104 C5.99954088,1.72317666 5.92203145,1.66666562 5.94357547,1.59834385 L6.11,1.07063407 L5.66616038,0.741820189 C5.60868239,0.699252366 5.63832075,0.607801262 5.70973899,0.607227129 L6.26146226,0.602921136 L6.43602201,0.0778359621 C6.45858805,0.00984227129 6.55445283,0.00984227129 6.57705975,0.0778359621 Z" id="Shape"></path>
                    <path d="M6.57705975,11.3512965 L6.7516195,11.8763817 L7.30334277,11.8806877 C7.37476101,11.8812618 7.40439937,11.9726719 7.34692138,12.0152808 L6.90308176,12.3440946 L7.06950629,12.8718044 C7.09105031,12.9401262 7.0135,12.9966372 6.95540881,12.9549716 L6.50654088,12.6331293 L6.05767296,12.9549716 C5.99954088,12.9966372 5.92203145,12.9401262 5.94357547,12.8718044 L6.11,12.3440946 L5.66616038,12.0152808 C5.60868239,11.9727129 5.63832075,11.8812618 5.70973899,11.8806877 L6.26146226,11.8763817 L6.43602201,11.3512965 C6.45858805,11.2833028 6.55445283,11.2833028 6.57705975,11.3512965 Z" id="Shape"></path>
                    <path d="M12.196044,5.71454574 L12.3706038,6.23963091 L12.922327,6.24393691 C12.9937453,6.24451104 13.0233836,6.33592114 12.9659057,6.37852997 L12.522066,6.70734385 L12.6884906,7.23505363 C12.7100346,7.30337539 12.6324843,7.35988644 12.5743931,7.31822082 L12.1255252,6.99637855 L11.6766572,7.31822082 C11.6185252,7.35988644 11.5409748,7.30337539 11.5625597,7.23505363 L11.7289843,6.70734385 L11.2851447,6.37852997 C11.2276667,6.33596215 11.257305,6.24451104 11.3287233,6.24393691 L11.8804465,6.23963091 L12.0550063,5.71454574 C12.0776132,5.64655205 12.1734371,5.64655205 12.196044,5.71454574 Z" id="Shape"></path>
                    <path d="M0.958034591,5.71454574 L1.13259434,6.23963091 L1.68431761,6.24393691 C1.75573585,6.24451104 1.78537421,6.33592114 1.72789623,6.37852997 L1.2840566,6.70734385 L1.45048113,7.23505363 C1.47202516,7.30337539 1.39447484,7.35988644 1.33638365,7.31822082 L0.887515723,6.99637855 L0.438647799,7.31822082 C0.380515723,7.35988644 0.302965409,7.30337539 0.324550314,7.23505363 L0.490974843,6.70734385 L0.0471352201,6.37852997 C-0.0103427673,6.33596215 0.0192955975,6.24451104 0.0907138365,6.24393691 L0.642437107,6.23963091 L0.816996855,5.71454574 C0.839603774,5.64655205 0.935427673,5.64655205 0.958034591,5.71454574 Z" id="Shape"></path>
                    <path d="M1.80156289,2.77096845 L1.97612264,3.29605363 L2.52784591,3.30035962 C2.59926415,3.30093375 2.62890252,3.39234385 2.57142453,3.43495268 L2.12758491,3.76376656 L2.29400943,4.29147634 C2.31555346,4.35979811 2.23800314,4.41630915 2.17991195,4.37464353 L1.73104403,4.05280126 L1.2821761,4.37464353 C1.22404403,4.41630915 1.14649371,4.35979811 1.16807862,4.29147634 L1.33450314,3.76376656 L0.890663522,3.43495268 C0.833185535,3.39238486 0.862823899,3.30093375 0.934242138,3.30035962 L1.48596541,3.29605363 L1.66052516,2.77096845 C1.68309119,2.70301577 1.77895597,2.70301577 1.80156289,2.77096845 Z" id="Shape"></path>
                    <path d="M11.5339434,8.40771924 L11.7085031,8.93280442 L12.2602264,8.93711041 C12.3316447,8.93768454 12.361283,9.02909464 12.303805,9.07170347 L11.8599654,9.40051735 L12.0263899,9.92822713 C12.047934,9.9965489 11.9703836,10.0530599 11.9122925,10.0113943 L11.4634245,9.68955205 L11.0145566,10.0113943 C10.9564245,10.0530599 10.8789151,9.9965489 10.9004591,9.92822713 L11.0668836,9.40051735 L10.623044,9.07170347 C10.565566,9.02913565 10.5952044,8.93768454 10.6666226,8.93711041 L11.2183459,8.93280442 L11.3929057,8.40771924 C11.4155126,8.33972555 11.5113774,8.33972555 11.5339434,8.40771924 Z" id="Shape"></path>
                    <path d="M9.47724528,0.707782334 L9.65180503,1.23286751 L10.2035283,1.2371735 C10.2749465,1.23774763 10.3045849,1.32915773 10.2471069,1.37176656 L9.8032673,1.70058044 L9.96969182,2.22829022 C9.99123585,2.29661199 9.91368553,2.35312303 9.85559434,2.31145741 L9.40672642,1.98961514 L8.95785849,2.31145741 C8.89972642,2.35312303 8.82221698,2.29661199 8.84376101,2.22829022 L9.01018553,1.70058044 L8.56634591,1.37176656 C8.50886792,1.32919874 8.53850629,1.23774763 8.60992453,1.2371735 L9.1616478,1.23286751 L9.33620755,0.707782334 C9.35881447,0.639829653 9.45463836,0.639829653 9.47724528,0.707782334 Z" id="Shape"></path>
                    <path d="M3.85826101,10.4709054 L4.03282075,10.9959905 L4.58454403,11.0002965 C4.65596226,11.0008707 4.68560063,11.0922808 4.62812264,11.1348486 L4.18428302,11.4636625 L4.35070755,11.9913722 C4.37225157,12.059694 4.29470126,12.116205 4.23661006,12.0745394 L3.78774214,11.7526972 L3.33887421,12.0745394 C3.28074214,12.116205 3.2032327,12.059694 3.22477673,11.9913722 L3.39120126,11.4636625 L2.94736164,11.1348486 C2.88988365,11.0922808 2.91952201,11.0008297 2.99094025,11.0002555 L3.54266352,10.9959495 L3.71722327,10.4708644 C3.73978931,10.4029117 3.83565409,10.4029117 3.85826101,10.4709054 Z" id="Shape"></path>
                    <path d="M11.3929057,2.77096845 L11.2183459,3.29605363 L10.6666226,3.30035962 C10.5952044,3.30093375 10.565566,3.39234385 10.623044,3.43495268 L11.0668836,3.76376656 L10.9004591,4.29147634 C10.8789151,4.35979811 10.9564654,4.41630915 11.0145566,4.37464353 L11.4634245,4.05280126 L11.9122925,4.37464353 C11.9704245,4.41630915 12.047934,4.35979811 12.0263899,4.29147634 L11.8599654,3.76376656 L12.303805,3.43495268 C12.361283,3.39238486 12.3316447,3.30093375 12.2602264,3.30035962 L11.7085031,3.29605363 L11.5339434,2.77096845 C11.5113365,2.70301577 11.4155126,2.70301577 11.3929057,2.77096845 Z" id="Shape"></path>
                    <path d="M1.66048428,8.40771924 L1.48592453,8.93280442 L0.934201258,8.93711041 C0.862783019,8.93768454 0.833144654,9.02909464 0.890622642,9.07170347 L1.33446226,9.40051735 L1.16803774,9.92822713 C1.14649371,9.9965489 1.22404403,10.0530599 1.28213522,10.0113943 L1.73100314,9.68955205 L2.17987107,10.0113943 C2.23800314,10.0530599 2.31555346,9.9965489 2.29396855,9.92822713 L2.12754403,9.40051735 L2.57138365,9.07170347 C2.62886164,9.02913565 2.59922327,8.93768454 2.52780503,8.93711041 L1.97608176,8.93280442 L1.80152201,8.40771924 C1.77895597,8.33972555 1.68309119,8.33972555 1.66048428,8.40771924 Z" id="Shape"></path>
                    <path d="M3.71718239,0.707782334 L3.54262264,1.23286751 L2.99089937,1.2371735 C2.91948113,1.23774763 2.88984277,1.32915773 2.94732075,1.37176656 L3.39116038,1.70058044 L3.22473585,2.22829022 C3.20319182,2.29661199 3.28074214,2.35312303 3.33883333,2.31145741 L3.78770126,1.98961514 L4.23656918,2.31145741 C4.29470126,2.35312303 4.37225157,2.29661199 4.35066667,2.22829022 L4.18424214,1.70058044 L4.62808176,1.37176656 C4.68555975,1.32919874 4.65592138,1.23774763 4.58450314,1.2371735 L4.03277987,1.23286751 L3.85822013,0.707782334 C3.83565409,0.639829653 3.73978931,0.639829653 3.71718239,0.707782334 Z" id="Shape"></path>
                    <path d="M9.33620755,10.4709054 L9.1616478,10.9959905 L8.60992453,11.0002965 C8.53850629,11.0008707 8.50886792,11.0922808 8.56634591,11.1348486 L9.01018553,11.4636625 L8.84376101,11.9913722 C8.82221698,12.059694 8.8997673,12.116205 8.95785849,12.0745394 L9.40672642,11.7526972 L9.85559434,12.0745394 C9.91372642,12.116205 9.99127673,12.059694 9.96969182,11.9913722 L9.8032673,11.4636625 L10.2471069,11.1348486 C10.3045849,11.0922808 10.2749465,11.0008297 10.2035283,11.0002555 L9.65180503,10.9959495 L9.47724528,10.4708644 C9.45463836,10.4029117 9.35881447,10.4029117 9.33620755,10.4709054 Z" id="Shape"></path>
                </g>
            </g>
        </g>
    </g>
</svg>