<svg width="64" height="65" viewBox="0 0 64 65" fill="none" xmlns="http://www.w3.org/2000/svg">
<path d="M49.9048 0.475586H14.0952C6.31065 0.475586 0 6.78625 0 14.5708V50.3803C0 58.1649 6.31065 64.4756 14.0952 64.4756H49.9048C57.6893 64.4756 64 58.1649 64 50.3803V14.5708C64 6.78625 57.6893 0.475586 49.9048 0.475586Z" fill="url(#paint0_linear_136_18006)"/>
<path d="M32.0003 11.5557C25.7702 11.5557 19.7953 13.6171 15.39 17.2864C10.9847 20.9558 8.50981 25.9324 8.50977 31.1217C8.51544 34.497 9.56934 37.8137 11.569 40.7494C13.5687 43.6852 16.4462 46.1401 19.9218 47.8756C18.9961 49.948 17.6078 51.8913 15.8143 53.6251C19.2923 53.0146 22.5571 51.732 25.3548 49.8772C27.5119 50.4111 29.7499 50.684 32.0003 50.6877C38.2303 50.6876 44.2052 48.6262 48.6105 44.9569C53.0158 41.2875 55.4907 36.3109 55.4908 31.1217C55.4907 25.9324 53.0158 20.9558 48.6105 17.2864C44.2052 13.6171 38.2303 11.5557 32.0003 11.5557Z" fill="white"/>
<defs>
<linearGradient id="paint0_linear_136_18006" x1="32.5079" y1="60.2272" x2="32.5079" y2="8.41828" gradientUnits="userSpaceOnUse">
<stop stop-color="#0CBD2A"/>
<stop offset="1" stop-color="#5BF675"/>
</linearGradient>
</defs>
</svg>
