<svg width="81" height="81" viewBox="0 0 81 81" fill="none" xmlns="http://www.w3.org/2000/svg">
<g clip-path="url(#clip0_136_1256)">
<path d="M17.9262 1.09766H62.6881C71.8665 1.09766 79.3071 8.53827 79.3071 17.7167V62.4786C79.3071 71.6571 71.8665 79.0977 62.6881 79.0977H17.9262C8.74773 79.0977 1.30713 71.6571 1.30713 62.4786V17.7167C1.30713 8.53827 8.74773 1.09766 17.9262 1.09766Z" stroke="black" stroke-width="2"/>
<path d="M40.3072 19.2526C34.181 19.2526 28.3058 21.2954 23.974 24.9317C19.6422 28.5679 17.2086 33.4997 17.2086 38.6421C17.2141 41.987 18.2504 45.2738 20.2168 48.1831C22.1831 51.0923 25.0126 53.5251 28.4302 55.245C27.5199 57.2987 26.1548 59.2245 24.3912 60.9427C27.8112 60.3377 31.0216 59.0666 33.7725 57.2285C35.8937 57.7576 38.0944 58.0281 40.3072 58.0317C46.4333 58.0317 52.3085 55.9888 56.6403 52.3526C60.9721 48.7163 63.4057 43.7845 63.4057 38.6421C63.4057 33.4997 60.9721 28.5679 56.6403 24.9317C52.3085 21.2954 46.4333 19.2526 40.3072 19.2526Z" fill="black"/>
</g>
<defs>
<clipPath id="clip0_136_1256">
<rect width="80" height="80" fill="white" transform="translate(0.307129 0.0976562)"/>
</clipPath>
</defs>
</svg>
