<svg width="15" height="19" viewBox="0 0 15 19" fill="none" xmlns="http://www.w3.org/2000/svg">
<path d="M7.51356 17.68L7.51176 17.6779C7.2595 17.3779 6.97271 17.0509 6.66407 16.6989C5.77622 15.6864 4.70745 14.4676 3.75892 13.0938C2.48173 11.2439 1.49316 9.20621 1.49316 7.17169C1.49316 3.72597 4.38721 0.904175 7.99316 0.904175C11.5977 0.904175 14.4932 3.72604 14.4932 7.17169C14.4932 8.98704 13.5021 11.0219 12.2118 12.9379C11.1861 14.461 10.0163 15.8468 9.10266 16.9291C8.87448 17.1994 8.66228 17.4508 8.4723 17.6806C8.22367 17.9789 7.76191 17.9787 7.51356 17.68Z" stroke="#777777"/>
<path d="M10.9932 7.2614C10.9932 8.86913 9.65979 10.19 7.99316 10.19C6.32654 10.19 4.99316 8.86913 4.99316 7.2614C4.99316 5.65366 6.32654 4.33282 7.99316 4.33282C9.65979 4.33282 10.9932 5.65366 10.9932 7.2614Z" stroke="#777777"/>
</svg>
