<svg width="96" height="97" viewBox="0 0 96 97" fill="none" xmlns="http://www.w3.org/2000/svg">
<circle cx="48" cy="48.8203" r="48" fill="white"/>
<path d="M58.765 58.1051C65.1333 58.9317 70.4275 60.4651 73.7347 62.441C77.042 64.4169 78.155 66.7114 76.882 68.9289C75.609 71.1465 72.0296 73.148 66.7611 74.5885C61.4925 76.029 54.865 76.8181 48.0213 76.8197C41.1776 76.8214 34.5467 76.0355 29.2717 74.5976C23.9968 73.1597 20.4085 71.1599 19.1256 68.9429C17.8427 66.726 18.9455 64.4309 22.244 62.4534C25.5425 60.4759 30.8298 58.94 37.1944 58.1103" stroke="black" stroke-width="3" stroke-linecap="round" stroke-linejoin="round"/>
<path d="M55.4266 62.4548C57.7578 62.9774 59.5213 63.732 60.4593 64.6086C61.3974 65.4851 61.4609 66.4377 60.6406 67.327C59.8203 68.2163 58.1592 68.9958 55.8999 69.5516C53.6407 70.1074 50.9016 70.4105 48.083 70.4164C45.2644 70.4223 42.5139 70.1308 40.2333 69.5845C37.9528 69.0383 36.2617 68.2658 35.4071 67.38C34.5525 66.4942 34.5792 65.5415 35.4834 64.6611C36.3875 63.7806 38.1216 63.0186 40.4324 62.4863" stroke="black" stroke-width="3" stroke-linecap="round"/>
<path d="M64.5899 38.8174C64.3395 41.888 63.2419 44.8289 61.4192 47.3127L47.9481 65.7527L34.6431 47.3964C32.8048 44.9241 31.6888 41.9901 31.4193 38.9211C31.1498 35.8521 31.7373 32.7685 33.1165 30.0136C34.4957 27.2588 36.6125 24.9407 39.231 23.3176C41.8496 21.6945 44.8673 20.83 47.9481 20.8204C51.0289 20.8108 54.052 21.6564 56.6807 23.2631C59.3093 24.8698 61.4405 27.1745 62.8369 29.9207C64.2333 32.6669 64.8402 35.7467 64.5899 38.8174Z" stroke="black" stroke-width="3" stroke-linecap="round" stroke-linejoin="round"/>
<circle cx="48.0001" cy="37.3888" r="5.89761" stroke="black" stroke-width="3" stroke-linecap="round" stroke-linejoin="round"/>
</svg>
