<svg width="96" height="97" viewBox="0 0 96 97" fill="none" xmlns="http://www.w3.org/2000/svg">
<circle cx="48" cy="48.8203" r="48" fill="white"/>
<path d="M74.0474 45.3124H65.4322C64.2898 45.3124 63.1941 45.7663 62.3863 46.5741C61.5784 47.382 61.1246 48.4776 61.1246 49.6201V60.3891C61.1246 61.5316 61.5784 62.6272 62.3863 63.4351C63.1941 64.2429 64.2898 64.6967 65.4322 64.6967H69.7398C70.8823 64.6967 71.9779 64.2429 72.7858 63.4351C73.5936 62.6272 74.0474 61.5316 74.0474 60.3891M74.0474 45.3124V60.3891M74.0474 45.3124C74.0476 41.9001 73.372 38.5216 72.0597 35.3717C70.7473 32.2218 68.8243 29.363 66.4014 26.9602C63.9786 24.5573 61.1039 22.6581 57.9432 21.3719C54.7826 20.0858 51.3985 19.4383 47.9863 19.4667C44.5764 19.4419 41.1953 20.092 38.0377 21.3798C34.8802 22.6675 32.0087 24.5673 29.5887 26.9698C27.1687 29.3723 25.248 32.2299 23.9374 35.378C22.6268 38.5261 21.9521 41.9024 21.9521 45.3124M74.0474 60.3891V66.8506C74.0474 69.1355 73.1398 71.3268 71.5241 72.9425C69.9084 74.5581 67.7171 75.4658 65.4322 75.4658H49.9517M21.9521 45.3124V60.3891C21.9521 61.5316 22.406 62.6272 23.2138 63.4351C24.0217 64.2429 25.1173 64.6967 26.2598 64.6967H30.5674C31.7098 64.6967 32.8055 64.2429 33.6133 63.4351C34.4212 62.6272 34.875 61.5316 34.875 60.3891V49.6201C34.875 48.4776 34.4212 47.382 33.6133 46.5741C32.8055 45.7663 31.7098 45.3124 30.5674 45.3124H21.9521Z" stroke="black" stroke-width="3" stroke-linecap="round" stroke-linejoin="round"/>
</svg>
