<svg width="97" height="96" viewBox="0 0 97 96" fill="none" xmlns="http://www.w3.org/2000/svg">
<path d="M49.7781 51.3164C49.7781 51.3164 66.7141 51.2405 72.7629 51.8637C74.651 52.0587 76.0541 52.9031 77.0169 54.5405C81.3741 61.9537 85.7377 69.3623 90.0986 76.7727C90.8357 78.0256 91.5866 79.2702 92.3082 80.5313C93.4108 82.4575 92.9321 84.6726 91.1847 85.8242C89.429 86.9814 87.2184 86.5316 85.9295 84.7149C81.9359 79.0853 67.5062 64.5458 67.5062 64.5458" stroke="black" stroke-width="2" stroke-linecap="round" stroke-linejoin="round"/>
<path d="M32.2867 48.3156C32.2867 48.3156 28.848 39.3072 27.9985 36.4078C27.7902 35.6977 27.7875 34.9029 27.8103 34.1504C27.9254 30.4314 30.7033 28.1143 34.7271 28.3065C36.5695 28.3948 38.0758 29.0728 38.9975 30.7396C42.1597 36.4603 51.5803 51.2307 51.5803 51.2307" stroke="black" stroke-width="2" stroke-linecap="round" stroke-linejoin="round"/>
<path d="M28.5491 25.7936C31.3014 27.4594 33.9385 26.7005 35.5691 23.917C36.6862 22.0111 37.0827 19.9119 37.1621 17.7171C37.0717 16.8745 37.0251 16.0236 36.8826 15.1902C36.1235 10.7408 32.6697 8.2572 28.4194 9.07864C24.7436 9.78878 22.1238 13.0479 22.5358 16.5489C23.0135 20.611 25.0981 23.7036 28.5491 25.7926V25.7936Z" stroke="black" stroke-width="2" stroke-linejoin="round"/>
<path d="M67.4765 64.7105C66.5284 62.8275 65.0613 61.7678 62.9001 61.6961C60.7014 61.6234 58.5073 61.4339 56.3095 61.3364C55.7093 61.3097 55.4006 61.0733 55.1841 60.5168C54.4277 58.5694 53.6714 56.6193 52.831 54.7078C51.8737 52.5268 50.2486 51.1691 47.8197 50.9216C42.6642 50.3964 37.5177 49.7552 32.3512 49.3772C29.1979 49.1463 27.1216 47.8143 26.1789 44.753C25.9834 44.1174 25.714 43.5047 25.4783 42.882C23.8834 38.6616 22.3086 34.433 20.6881 30.2228C19.5837 27.3528 17.6161 26.0282 14.5843 26.0227C12.625 26.019 10.6647 26.0199 8.70531 26.0263C6.59886 26.0328 4.83862 27.3813 4.59838 29.4878C4.45497 30.7397 4.56184 32.1159 4.93453 33.3172C9.12915 46.8558 13.3932 60.3724 17.649 73.8917C18.5917 76.8849 20.668 78.4119 23.7747 78.4147C31.2221 78.422 38.6687 78.4174 46.1161 78.4165C50.5784 78.4165 55.0407 78.4165 59.5029 78.4165C62.6087 78.4165 65.7145 78.4404 68.8193 78.4045C71.6374 78.3723 73.0852 75.9255 71.8237 73.405C70.3731 70.5075 68.9326 67.6053 67.4765 64.7114V64.7105Z" stroke="#F0AB00" stroke-width="2" stroke-linejoin="round"/>
<path d="M26.4846 81.1235C26.4846 82.128 26.4819 83.0645 26.4846 84.0009C26.4928 86.0301 27.2538 86.8065 29.2734 86.8083C36.8414 86.8138 44.4095 86.8111 51.9775 86.8111C55.7163 86.8111 59.4551 86.8166 63.1939 86.8056C64.6427 86.801 65.6164 86.0494 65.674 84.8324C65.7315 83.6228 65.6867 82.4086 65.6867 81.1235H26.4846V81.1235Z" stroke="#F0AB00" stroke-width="2" stroke-linejoin="round"/>
</svg>
