<svg width="97" height="96" viewBox="0 0 97 96" fill="none" xmlns="http://www.w3.org/2000/svg">
<path d="M32.6189 8.78913C32.8552 8.78913 33.1198 8.84574 33.4553 8.9684C33.5073 9.00142 33.6254 9.10049 33.7152 9.17125C33.805 9.24673 33.8948 9.31749 33.9846 9.39297C34.0743 9.46373 34.1688 9.54393 34.2634 9.643C34.4665 9.84585 34.6556 10.0817 34.821 10.2893C34.8446 10.3412 34.8824 10.445 34.906 10.5063C35.0667 10.945 35.1517 11.4734 35.2415 12.03C35.3313 12.5914 35.4164 13.1528 35.4967 13.7189C35.5534 14.1104 35.6101 14.4973 35.6715 14.8888C35.8606 16.1201 36.0543 17.3514 36.2528 18.5779C36.2906 18.8185 36.3425 19.0261 36.3898 19.21C36.4134 19.2997 36.4371 19.3893 36.456 19.4837C36.5599 20.012 36.8056 20.4838 37.1742 20.847C37.4294 21.1017 37.7413 21.3046 38.0957 21.4461C38.4123 21.5735 38.7289 21.7056 39.0502 21.833C39.3952 21.9745 39.7401 22.116 40.0851 22.2575C40.7136 22.5076 41.3421 22.7481 41.9705 22.9935L42.2966 23.1208C42.4998 23.201 42.703 23.2765 42.9062 23.3567C43.1472 23.451 43.3929 23.5407 43.6339 23.635L44.664 24.0313L45.6753 24.4228C46.3085 24.6682 46.937 24.9135 47.5749 25.1541C48.1467 25.3711 48.7232 25.5833 49.2997 25.7956L50.0274 26.0645C50.0936 26.0881 50.2117 26.1353 50.3676 26.1683C50.5283 26.2061 50.689 26.2249 50.8544 26.2249C51.4261 26.2249 51.9648 25.9843 52.3429 25.5692C52.7209 25.1493 52.9052 24.5738 52.8438 23.9983C52.8201 23.7624 52.7776 23.5218 52.7209 23.2623L52.6358 22.8755C52.4705 22.116 52.3003 21.3518 52.1255 20.5923C51.8562 19.4412 51.5821 18.2901 51.3033 17.1438C51.1899 16.6768 51.0765 16.2144 50.963 15.7474C50.7882 15.0351 50.6134 14.3275 50.448 13.6151C50.259 12.8131 50.0841 12.0348 49.9802 11.2564C49.9707 11.1856 49.966 11.1007 50.018 10.9875C50.6039 11.1054 51.2088 11.2988 51.7333 11.4734C51.8656 11.5158 52.0357 11.596 52.2153 11.6762C52.3712 11.747 52.5319 11.8225 52.6926 11.8885C53.0989 12.0536 53.5006 12.4169 53.9684 12.8367C54.096 12.9547 54.2283 13.0679 54.3559 13.1858C54.4504 13.2943 54.5449 13.3981 54.6394 13.5066C54.923 13.8274 55.1923 14.1246 55.438 14.4312C55.594 14.6247 55.7452 14.8228 55.8066 14.969C55.9058 15.2096 56.024 15.3936 56.0996 15.5163L56.1327 15.5729L56.2886 15.8323C56.3926 16.0022 56.4918 16.1767 56.591 16.3465C56.6855 16.5116 56.7706 16.6768 56.8604 16.8419L56.9549 17.0211C57.1108 17.3089 57.2668 17.6014 57.418 17.8891L57.6306 18.2901C57.7724 18.559 57.9094 18.8232 58.0559 19.0874C58.141 19.2383 58.2308 19.3893 58.3158 19.5403C58.3773 19.644 58.4434 19.7478 58.5001 19.8563C58.5663 19.979 58.6324 20.1064 58.6939 20.2337C58.7553 20.3517 58.812 20.4743 58.8781 20.5923C58.9774 20.781 59.0813 20.9697 59.1853 21.1584L59.294 21.3612L59.4547 21.6584C59.5492 21.833 59.6484 22.0075 59.7429 22.182C59.8894 22.4557 60.0406 22.7293 60.1824 23.0076C60.2391 23.1161 60.2958 23.2293 60.3525 23.3378C60.4281 23.4841 60.5037 23.635 60.5793 23.7813C60.6644 23.9417 60.7541 24.1021 60.8392 24.2577L60.981 24.5172C61.1227 24.7814 61.2692 25.0456 61.411 25.3097C61.496 25.4654 61.5764 25.6258 61.6614 25.7815L61.8221 26.0928L61.9213 26.2815C62.0395 26.508 62.1623 26.7391 62.2852 26.9656C62.3466 27.0788 62.4128 27.192 62.4789 27.3052C62.512 27.3571 62.5404 27.4137 62.5734 27.4656C62.6349 27.5694 62.6916 27.6779 62.7483 27.7864L62.8381 27.9562C63.0224 28.3053 63.2114 28.6497 63.3909 28.9988C63.4713 29.1545 63.5563 29.3149 63.6367 29.4705C63.7548 29.697 63.8729 29.9281 63.9958 30.1546C64.147 30.4376 64.3077 30.716 64.44 30.9471C64.5439 31.1311 64.6763 31.2962 64.8275 31.4472C65.2102 31.8293 65.6261 31.9944 65.8529 32.084L65.9049 32.1029C66.2971 32.2633 66.694 32.419 67.091 32.5746L67.3272 32.6643L68.4897 33.1124C68.967 33.2964 69.4442 33.4804 69.9215 33.6691C70.1908 33.7729 71.3816 34.2446 71.7124 34.372C72.0857 34.5182 72.4543 34.6551 72.8276 34.7966L73.234 34.9523L73.7727 35.1551C74.0279 35.2495 74.2831 35.3485 74.5382 35.4429L74.8501 35.5608C75.2801 35.7259 75.7101 35.8863 76.1402 36.0561C76.3481 36.1363 76.5607 36.2213 76.7686 36.3062C77.0096 36.4052 77.2506 36.4996 77.4916 36.5939C77.7752 36.7024 78.0587 36.8109 78.3469 36.9147C78.5549 36.9902 78.7628 37.0704 78.966 37.1459C79.4054 37.3157 79.8449 37.4855 80.2844 37.6601C80.8278 37.8771 81.2673 38.0611 81.6642 38.2309C81.8201 38.2969 81.9761 38.3724 82.132 38.4432C82.3872 38.5611 82.6565 38.6838 82.9448 38.797C83.2189 38.9055 83.5213 39.08 83.8426 39.264L84.0647 39.3914C84.1498 39.4386 84.2632 39.5188 84.3813 39.6037C84.4475 39.6509 84.5136 39.6933 84.5798 39.7405L84.6838 39.8113C84.8397 39.915 84.9956 40.0235 85.1468 40.132L85.3737 40.2924C85.5958 40.4528 85.8084 40.6038 85.9832 40.75C86.2384 40.967 86.4983 41.2123 86.8007 41.519L86.8858 41.6039C87.1693 41.8869 87.467 42.1889 87.7364 42.4955C87.9112 42.6936 88.0813 42.9248 88.2704 43.1701L88.4027 43.3446C88.6106 43.6183 88.7807 43.8447 88.9272 44.0711C89.1257 44.3778 89.3147 44.6986 89.4942 45.0052C89.5604 45.1184 89.6313 45.2599 89.7022 45.4062L89.7683 45.543C89.9951 45.9959 90.1842 46.5242 90.3543 47.1988C90.5575 48.0055 90.6283 48.7745 90.5716 49.5481C90.5527 49.7934 90.5008 50.0104 90.4204 50.1944C90.4204 50.1944 90.4204 50.1944 90.4157 50.1944C90.0991 50.3124 89.7447 50.369 89.3383 50.369C89.1351 50.369 88.9225 50.3548 88.6862 50.3265C87.8971 50.2322 87.141 50.1001 86.4369 49.9302C85.5249 49.7085 84.3246 49.4113 83.1244 49.0764C82.1084 48.7933 81.0074 48.4678 79.6512 48.0527C78.9943 47.8498 78.3186 47.6281 77.6665 47.4111C77.3593 47.312 77.0522 47.2083 76.745 47.1092C76.4946 47.029 76.2488 46.9488 75.9984 46.8686C75.4739 46.6988 74.9494 46.5337 74.4296 46.3544C73.8956 46.1704 73.3616 45.9817 72.8276 45.7883C72.4969 45.6704 72.1708 45.5524 71.84 45.4345C71.5707 45.3401 71.3013 45.2458 71.0272 45.1562C70.7579 45.0618 70.4885 44.9722 70.2192 44.8778C69.8412 44.7457 69.4631 44.6089 69.0851 44.4721L68.4424 44.241L68.381 44.2174C68.2203 44.156 67.9557 44.0475 67.6155 44.0004C67.4973 43.9862 67.3745 43.9768 67.2516 43.9768C66.9303 43.9768 66.6042 44.0334 66.3113 44.1419C65.5127 44.4297 64.7188 44.7269 63.9202 45.0193L63.4902 45.1797C62.6112 45.5052 61.7276 45.8355 60.8487 46.1657C60.5935 46.26 60.343 46.3544 60.0879 46.4535C59.7145 46.595 59.3412 46.7365 58.9679 46.8733C58.5946 47.0101 58.2166 47.1469 57.8386 47.279C57.47 47.4111 57.1014 47.5432 56.7328 47.6753C56.3548 47.8121 55.9815 47.9536 55.6034 48.0951C55.2396 48.2319 54.8757 48.3688 54.5071 48.5008C54.1007 48.6518 53.6896 48.798 53.2832 48.9443C52.8768 49.0905 52.4752 49.2368 52.0688 49.383C51.7758 49.4915 51.4828 49.6 51.1899 49.7132C50.9063 49.8217 50.6228 49.9302 50.3393 50.034C49.9518 50.1755 49.5643 50.3124 49.1768 50.4539C48.8224 50.5812 48.468 50.7086 48.1089 50.836C47.8159 50.9445 47.5229 51.053 47.2347 51.1615C46.8661 51.2983 46.4975 51.4351 46.1242 51.5719C45.6611 51.737 45.198 51.8974 44.7349 52.0578C44.4703 52.1475 44.2104 52.2418 43.9458 52.3314C43.7284 52.4069 43.511 52.4824 43.2937 52.5626C42.9818 52.6758 42.6652 52.7843 42.3533 52.8928C41.4933 53.19 40.6805 53.4683 39.8677 53.6193C39.3999 53.7089 38.8659 53.7561 38.1902 53.7703C38.1477 53.7703 38.1004 53.7703 38.0579 53.7703C37.694 53.7703 37.4058 53.7372 37.1459 53.6712C36.5221 53.5061 35.8653 53.3221 35.284 53.0674L34.9674 52.9306C34.6745 52.8032 34.3957 52.6852 34.1452 52.5579C34.1263 52.5484 34.1027 52.5343 34.0838 52.5201C34.1499 52.388 34.2917 52.2088 34.6508 51.9729C34.7028 51.9399 34.7501 51.9069 34.8021 51.8691L35.2132 51.5672C35.492 51.3644 35.766 51.1568 36.0496 50.9586C36.4465 50.6756 36.8482 50.3925 37.2498 50.1095L37.5806 49.8783L37.7271 49.7746C37.9964 49.5859 38.2658 49.3972 38.5399 49.2085C38.71 49.0905 38.8801 48.9773 39.0549 48.8641C39.2723 48.7226 39.4897 48.5763 39.7023 48.4301C39.8535 48.3263 40 48.2178 40.1418 48.1093C40.2269 48.0432 40.3166 47.9772 40.4064 47.9159C40.5576 47.8074 40.7136 47.7036 40.8695 47.5998L41.0538 47.4772C41.1011 47.4488 41.1483 47.4158 41.1956 47.3875L41.4366 47.2224C41.6681 47.062 41.8997 46.9016 42.1312 46.7412C42.2493 46.6563 42.3675 46.5714 42.4856 46.4818C42.599 46.3968 42.7124 46.3119 42.8306 46.2317C43.0479 46.0855 43.2653 45.9393 43.4874 45.7977C43.6575 45.6845 43.8324 45.5713 44.0025 45.4581C44.1395 45.3637 44.2766 45.2694 44.4136 45.175C44.4986 45.1137 44.5884 45.0524 44.6735 44.991C44.8247 44.8873 44.9759 44.7835 45.1271 44.6844L45.4485 44.4674L45.5477 44.3966C45.6942 44.2976 45.8407 44.1985 45.9872 44.0947C46.0958 44.0145 46.1998 43.939 46.3085 43.8588C46.4219 43.7739 46.54 43.6843 46.6582 43.5994C46.748 43.5381 46.8377 43.4814 46.9322 43.4248C47.0362 43.3588 47.1449 43.2928 47.2489 43.2267C47.3859 43.1371 47.5182 43.0427 47.6505 42.9531C47.7214 42.9012 47.7923 42.854 47.8679 42.8021C48.0522 42.6748 48.2365 42.5521 48.4255 42.4247L48.6476 42.2738L48.8224 42.1558C48.9547 42.0662 49.087 41.9766 49.2194 41.8869C49.3186 41.8162 49.4178 41.7501 49.5171 41.6794C49.6399 41.5945 49.7628 41.5095 49.8856 41.4246C50.0369 41.3208 50.1928 41.2265 50.3487 41.1274C51.1237 40.6462 51.308 39.9669 51.3505 39.6037C51.4214 38.9951 51.204 38.3913 50.7598 37.9479C50.6937 37.8818 50.6228 37.8205 50.5472 37.7592C50.3251 37.5846 50.0699 37.4336 49.7864 37.3063C49.2997 37.0893 48.8508 36.8959 48.4113 36.7166C48.038 36.5609 47.6694 36.4147 47.2961 36.2637L46.7054 36.0278C46.266 35.8486 45.8265 35.6693 45.387 35.49C45.0232 35.3391 44.6593 35.1881 44.2955 35.0372L43.719 34.7966L43.4071 34.6692C43.2133 34.589 43.0196 34.5088 42.8258 34.4286C42.5518 34.306 42.273 34.1833 41.9989 34.0559C41.8146 33.971 41.6256 33.8861 41.4413 33.8059C41.3043 33.7446 41.1672 33.6833 41.0302 33.6219C40.8412 33.5417 40.6521 33.4568 40.4679 33.3719C40.2836 33.287 40.104 33.1974 39.9197 33.1077C39.7874 33.0417 39.6504 32.9756 39.518 32.9096C39.3621 32.8341 39.2014 32.7586 39.0408 32.6831C38.8045 32.5699 38.5682 32.4614 38.332 32.3435C38.1193 32.2397 37.9067 32.1265 37.694 32.018C37.5286 31.9331 37.3632 31.8434 37.1978 31.7632C37.075 31.7019 36.9521 31.6406 36.8245 31.5793C36.697 31.5179 36.5694 31.4566 36.4465 31.3906C36.3898 31.3623 36.3378 31.3245 36.2811 31.2915C36.2055 31.2443 36.1346 31.2019 36.059 31.1547C35.9834 31.1075 35.9031 31.0651 35.8227 31.0226C35.7849 30.999 35.7424 30.9801 35.7046 30.9566L35.2462 30.6924C34.854 30.4707 34.4665 30.2489 34.0791 30.0131C33.9042 29.9093 33.7199 29.7819 33.5262 29.6545C33.3986 29.5649 33.2663 29.48 33.134 29.3951C32.9686 29.2866 32.8032 29.1828 32.6331 29.079L32.4724 28.9799L32.2787 28.829C32.0944 28.6827 31.9101 28.5365 31.7211 28.3902C31.5746 28.277 31.4281 28.1638 31.2769 28.0506C31.0831 27.8996 30.8847 27.7534 30.6909 27.6024C30.6106 27.5364 30.5161 27.4468 30.4405 27.3713L29.9396 26.8759C29.5568 26.4985 29.1741 26.1211 28.796 25.7437C28.5456 25.4937 28.2951 25.2437 28.0494 24.9889C27.8935 24.8286 27.7612 24.6634 27.6666 24.5125C27.3831 24.0502 27.1941 23.536 27.0807 22.9368C27.0287 22.6632 26.9815 22.3519 27.0145 22.1302C27.0476 21.9179 27.0949 21.7292 27.1468 21.5641C27.3878 20.8517 27.6572 20.1016 27.9454 19.3374C28.1108 18.8987 28.281 18.4647 28.4511 18.0307C28.5739 17.7193 28.6968 17.408 28.8149 17.0966C28.9378 16.7805 29.0559 16.4645 29.1741 16.1484C29.3442 15.7002 29.5096 15.2474 29.6891 14.8039C29.9632 14.1152 30.242 13.4264 30.5208 12.7424L30.8185 12.0065C31.2107 11.0488 31.5982 10.0912 31.9904 9.13351L32.0188 9.06746C32.0329 9.02972 32.0518 8.98727 32.0708 8.94481C32.2267 8.85046 32.3401 8.79857 32.4299 8.78442C32.496 8.77498 32.5669 8.77026 32.6331 8.77026M48.3168 25.423L68.4897 33.1124" stroke="#F0AB00" stroke-width="2" stroke-miterlimit="10" stroke-linejoin="round"/>
<path d="M18.4896 87.2298V66.493" stroke="black" stroke-width="2" stroke-linecap="round" stroke-linejoin="round"/>
<path d="M11.2657 55.667V86.9246" stroke="black" stroke-width="2" stroke-linecap="round" stroke-linejoin="round"/>
<path d="M25.7134 55.667V86.9246" stroke="black" stroke-width="2" stroke-linecap="round" stroke-linejoin="round"/>
<path d="M26.209 55.6668C28.852 53.2272 34.1989 46.2135 34.4429 37.6747C34.4429 35.4258 32.879 34.0442 31.3529 33.2969C30.3417 32.8018 29.2699 33.5613 29.0987 34.6741L28.9422 35.6912C28.4507 38.8859 27.1081 41.8894 25.0552 44.3861L23.1498 46.7035C22.7699 47.1656 22.2031 47.4333 21.6049 47.4333H12.0286C10.1989 47.4333 6.53931 48.8666 6.53931 54.5997C6.53931 56.9082 6.53931 58.7503 6.53931 60.1737C6.53931 62.5606 7.48751 64.849 9.17531 66.5369L11.266 68.6276" stroke="black" stroke-width="2" stroke-linecap="round" stroke-linejoin="round"/>
<circle cx="16.9523" cy="38.1795" r="5.6866" stroke="black" stroke-width="2" stroke-linecap="round" stroke-linejoin="round"/>
<rect x="35.1046" y="67.8196" width="27.0557" height="19.105" rx="2" stroke="#F0AB00" stroke-width="2" stroke-linecap="round" stroke-linejoin="round"/>
<rect x="43.7936" y="62.3674" width="10.3135" height="5.45215" stroke="#F0AB00" stroke-width="2" stroke-linecap="round" stroke-linejoin="round"/>
<path d="M41.8112 86.9246V73.7312" stroke="#F0AB00" stroke-width="2" stroke-linecap="round" stroke-linejoin="round"/>
<path d="M56.1793 86.9246V73.7312" stroke="#F0AB00" stroke-width="2" stroke-linecap="round" stroke-linejoin="round"/>
<path d="M71.7501 50.635C71.9909 50.643 72.2216 50.6907 72.4365 50.7723L79.5783 53.7484C80.2228 54.0169 80.6764 54.6535 80.6764 55.3955C80.6764 63.6275 75.6214 68.213 72.4345 69.5419C72.2236 69.6294 71.9889 69.6771 71.7462 69.6771C71.5035 69.6771 71.2727 69.6294 71.0618 69.5419C67.0811 67.8808 62.8219 62.7781 62.8219 55.3955C62.8219 54.6535 63.2775 54.0149 63.924 53.7484L71.0638 50.7723C71.2787 50.6907 71.5094 50.643 71.7501 50.635Z" stroke="black" stroke-width="2"/>
</svg>
