<svg width="97" height="96" viewBox="0 0 97 96" fill="none" xmlns="http://www.w3.org/2000/svg">
<path d="M75.0302 87.0772V66.3405" stroke="black" stroke-width="2" stroke-linecap="round" stroke-linejoin="round"/>
<path d="M67.8063 55.5144V86.7721" stroke="black" stroke-width="2" stroke-linecap="round" stroke-linejoin="round"/>
<path d="M82.2539 55.5144V86.7721" stroke="black" stroke-width="2" stroke-linecap="round" stroke-linejoin="round"/>
<path d="M82.7495 55.5142C85.3925 53.0747 90.7395 46.0609 90.9835 37.5221C90.9835 35.2732 89.4195 33.8916 87.8934 33.1443C86.8822 32.6492 85.8104 33.4087 85.6392 34.5215L85.4828 35.5386C84.9913 38.7333 83.6486 41.7368 81.5957 44.2335L79.6903 46.5509C79.3104 47.013 78.7436 47.2807 78.1455 47.2807H68.5692C66.7394 47.2807 63.0798 48.714 63.0798 54.4471C63.0798 56.7556 63.0798 58.5977 63.0798 60.0211C63.0798 62.408 64.028 64.6964 65.7158 66.3843L67.8066 68.475" stroke="black" stroke-width="2" stroke-linecap="round" stroke-linejoin="round"/>
<circle cx="73.4929" cy="38.0269" r="5.6866" stroke="black" stroke-width="2" stroke-linecap="round" stroke-linejoin="round"/>
<rect x="32.8229" y="67.9722" width="27.0557" height="19.105" rx="2" stroke="#F0AB00" stroke-width="2" stroke-linecap="round" stroke-linejoin="round"/>
<rect x="41.5118" y="62.52" width="10.3135" height="5.45215" stroke="#F0AB00" stroke-width="2" stroke-linecap="round" stroke-linejoin="round"/>
<path d="M39.5294 87.0771V73.8838" stroke="#F0AB00" stroke-width="2" stroke-linecap="round" stroke-linejoin="round"/>
<path d="M53.8976 87.0771V73.8838" stroke="#F0AB00" stroke-width="2" stroke-linecap="round" stroke-linejoin="round"/>
<path d="M6.41971 25.1813C6.57604 25.0151 6.78612 24.864 7.09391 24.7079C7.15253 24.6927 7.2991 24.6726 7.40658 24.6625C7.51406 24.6474 7.62643 24.6374 7.7388 24.6222C7.84628 24.6071 7.96353 24.5971 8.09544 24.592C8.36903 24.587 8.65727 24.6122 8.91132 24.6374C8.96506 24.6575 9.05789 24.6978 9.11651 24.723C9.5269 24.9043 9.94705 25.2064 10.3916 25.5187C10.8411 25.836 11.2857 26.1583 11.7303 26.4856C12.0381 26.7123 12.3458 26.9339 12.6536 27.1554C13.6307 27.8555 14.6078 28.5605 15.5898 29.2555C15.7804 29.3915 15.9611 29.4973 16.1175 29.5879C16.1956 29.6333 16.2738 29.6786 16.3471 29.7289C16.7819 30.016 17.2704 30.157 17.7639 30.147C18.1108 30.1369 18.4527 30.0563 18.7898 29.9002C19.0879 29.7592 19.3859 29.6232 19.6888 29.4872C20.0161 29.3412 20.3385 29.1901 20.6659 29.039C21.2521 28.762 21.8335 28.48 22.4149 28.1979L22.7178 28.0519C22.9083 27.9612 23.094 27.8706 23.2845 27.7749C23.5092 27.6641 23.734 27.5583 23.9587 27.4475L24.9114 26.9842L25.8494 26.531C26.4357 26.2489 27.0219 25.9619 27.6033 25.6748C28.1309 25.4129 28.6586 25.151 29.1813 24.8841L29.8458 24.5517C29.9044 24.5215 30.0168 24.4661 30.1438 24.3805C30.2757 24.2899 30.3978 24.1891 30.5004 24.0733C30.8766 23.6654 31.0671 23.1164 31.0281 22.5675C30.989 22.0135 30.7105 21.4897 30.2708 21.1422C30.09 21.0012 29.8995 20.8652 29.6845 20.7293L29.3621 20.5278C28.727 20.13 28.087 19.7271 27.447 19.3393C26.4748 18.745 25.4977 18.1608 24.5205 17.5766C24.1248 17.3399 23.7291 17.1032 23.3334 16.8715C22.7276 16.514 22.1218 16.1514 21.5208 15.7887C20.8466 15.3758 20.1871 14.9729 19.5813 14.5146C19.5276 14.4743 19.464 14.4189 19.4201 14.3031C19.8842 13.9656 20.4167 13.6685 20.8857 13.4117C21.003 13.3462 21.1691 13.2807 21.345 13.2102C21.5013 13.1498 21.6528 13.0843 21.8042 13.0138C22.1902 12.8375 22.7031 12.7972 23.2992 12.7519C23.4653 12.7368 23.6314 12.7267 23.7975 12.7116C23.9343 12.7167 24.0711 12.7217 24.2079 12.7267C24.6134 12.7418 24.9993 12.757 25.3755 12.7872C25.61 12.8073 25.8494 12.8325 25.9911 12.8929C26.2256 12.9886 26.4308 13.0289 26.5627 13.0541L26.6213 13.0692L26.8998 13.1347C27.0854 13.18 27.2711 13.2203 27.4567 13.2706C27.6326 13.316 27.8036 13.3663 27.9746 13.4167L28.1603 13.4721C28.4632 13.5577 28.7661 13.6433 29.069 13.734L29.4891 13.8599C29.7676 13.9405 30.0412 14.0261 30.3197 14.1016C30.4809 14.1469 30.6421 14.1872 30.8033 14.2225C30.9157 14.2477 31.0329 14.2779 31.1453 14.3081C31.2772 14.3434 31.4042 14.3836 31.5362 14.429C31.6583 14.4693 31.7804 14.5045 31.9026 14.5448C32.098 14.6052 32.2983 14.6556 32.4937 14.711L32.7038 14.7714L33.0165 14.8571C33.2021 14.9074 33.3829 14.9578 33.5685 15.0081C33.8568 15.0887 34.145 15.1693 34.4284 15.2549C34.5407 15.2902 34.6531 15.3254 34.7655 15.3607C34.9169 15.411 35.0684 15.4564 35.2198 15.5017C35.3859 15.552 35.5569 15.5974 35.723 15.6427L35.9966 15.7182C36.2751 15.7938 36.5487 15.8744 36.8272 15.9549C36.9933 16.0003 37.1545 16.0506 37.3157 16.101L37.6382 16.1967L37.8336 16.2571C38.0681 16.3276 38.3075 16.3981 38.5469 16.4636C38.669 16.4989 38.7911 16.5291 38.9084 16.5543C38.967 16.5694 39.0257 16.5794 39.0794 16.5945C39.1918 16.6248 39.3041 16.655 39.4165 16.6902L39.5924 16.7406C39.9539 16.8464 40.3154 16.9521 40.6818 17.0579C40.8431 17.1082 41.0092 17.1536 41.1704 17.2039C41.4049 17.2744 41.6394 17.3449 41.8788 17.4154C42.1768 17.5011 42.4699 17.5766 42.7191 17.637C42.9145 17.6874 43.1197 17.7075 43.32 17.7025C43.833 17.6924 44.2238 17.5061 44.4339 17.4104L44.4828 17.3903C44.8541 17.219 45.2205 17.0428 45.5869 16.8665L45.8068 16.7607L46.8816 16.242C47.3261 16.0305 47.7658 15.8139 48.2104 15.6024C48.4596 15.4815 49.5735 14.9578 49.8764 14.8067C50.2184 14.6405 50.5652 14.4693 50.9072 14.3031L51.2834 14.1167L51.7769 13.87C52.0114 13.7541 52.2459 13.6383 52.4853 13.5225L52.7735 13.3814C53.1692 13.185 53.5698 12.9886 53.9656 12.7972C54.161 12.7016 54.3564 12.6109 54.5518 12.5203C54.7766 12.4145 55.0013 12.3138 55.226 12.203C55.4898 12.0771 55.7488 11.9461 56.0126 11.8152C56.2031 11.7195 56.3937 11.6238 56.5842 11.5332C56.9897 11.3367 57.3952 11.1353 57.8056 10.9439C58.3137 10.7072 58.7289 10.5158 59.11 10.3497C59.2615 10.2842 59.4129 10.2237 59.5644 10.1583C59.8135 10.0576 60.0725 9.95179 60.346 9.82085C60.605 9.69998 60.9225 9.6043 61.2645 9.49854L61.499 9.42803C61.587 9.40285 61.714 9.37263 61.8508 9.34745C61.9241 9.33234 62.0022 9.31723 62.0755 9.30212L62.1928 9.27694C62.3687 9.23665 62.5445 9.2014 62.7204 9.16615L62.9793 9.11579C63.2383 9.06542 63.4777 9.0201 63.6975 8.99492C64.0151 8.95966 64.3571 8.94455 64.7674 8.93448H64.8847C65.2658 8.92441 65.6762 8.91434 66.0621 8.93448C66.3113 8.94455 66.5897 8.97981 66.878 9.01506L67.0881 9.04024C67.4154 9.08053 67.6841 9.11579 67.9333 9.16111C68.2752 9.22658 68.6221 9.3122 68.9495 9.39278C69.0716 9.42299 69.2133 9.46832 69.3647 9.51868L69.5015 9.56401C69.9656 9.71006 70.4493 9.93669 71.0307 10.2741C71.7244 10.677 72.3009 11.1504 72.7992 11.7195C72.9556 11.9008 73.0728 12.0821 73.1461 12.2684C73.1461 12.2684 73.1461 12.2684 73.1461 12.2735C73.0191 12.5807 72.8237 12.8678 72.555 13.1599C72.4231 13.3059 72.2716 13.4469 72.0957 13.598C71.5143 14.0966 70.9232 14.5448 70.3369 14.9276C69.5846 15.4261 68.5879 16.0758 67.5668 16.7053C66.7021 17.2341 65.7494 17.7982 64.572 18.4781C64.0004 18.8105 63.3995 19.1378 62.823 19.4551C62.5494 19.6062 62.2807 19.7522 62.0071 19.9033C61.7873 20.0242 61.5674 20.1501 61.3476 20.271C60.8835 20.5278 60.4242 20.7897 59.9552 21.0365C59.4764 21.2933 58.9928 21.5401 58.5091 21.7919C58.2111 21.948 57.9131 22.0991 57.615 22.2552C57.3708 22.3811 57.1314 22.5121 56.8871 22.643C56.6477 22.774 56.4034 22.8999 56.1592 23.0258C55.8172 23.202 55.4752 23.3783 55.1332 23.5546L54.5469 23.8567L54.4932 23.8819C54.3418 23.9524 54.0926 24.0683 53.8385 24.2798C53.7506 24.3553 53.6627 24.4359 53.5845 24.5215C53.3744 24.7481 53.1985 25.0201 53.0764 25.3021C52.7491 26.0676 52.4315 26.8331 52.1091 27.5986L51.9332 28.0166C51.5765 28.8678 51.2248 29.7138 50.873 30.565C50.7704 30.8117 50.6727 31.0535 50.5701 31.3002C50.4236 31.6628 50.2721 32.0255 50.1207 32.383C49.9692 32.7456 49.8129 33.1032 49.6565 33.4608C49.5051 33.8133 49.3536 34.1658 49.2022 34.5184C49.0507 34.881 48.8993 35.2436 48.7478 35.6062C48.6013 35.9587 48.4547 36.3113 48.3081 36.6638C48.142 37.0566 47.9759 37.4494 47.8049 37.8372C47.6388 38.225 47.4727 38.6128 47.3066 39.0006C47.1893 39.2826 47.0721 39.5646 46.9548 39.8517C46.8425 40.1287 46.7301 40.4007 46.6129 40.6726C46.4565 41.0453 46.2953 41.4129 46.1341 41.7856C45.9875 42.123 45.8409 42.4655 45.6993 42.8029C45.582 43.0849 45.4648 43.367 45.3475 43.644C45.2009 44.0015 45.0495 44.3591 44.898 44.7116C44.7075 45.1548 44.5121 45.593 44.3167 46.0311C44.2043 46.2779 44.0968 46.5297 43.9845 46.7815C43.8916 46.988 43.8037 47.1945 43.7109 47.401C43.579 47.6981 43.4519 48.0003 43.32 48.2974C42.9585 49.1082 42.6116 49.8788 42.1817 50.5587C41.9325 50.9515 41.615 51.3645 41.1802 51.853C41.1509 51.8832 41.1215 51.9184 41.0922 51.9487C40.8528 52.2055 40.6379 52.3918 40.4229 52.5278C39.8953 52.8602 39.3383 53.2027 38.7814 53.4394L38.4785 53.5703C38.1951 53.6912 37.9313 53.807 37.6772 53.9027C37.6577 53.9128 37.6333 53.9178 37.6137 53.9229C37.5649 53.7869 37.5356 53.5653 37.604 53.1473C37.6137 53.0868 37.6235 53.0314 37.6333 52.971L37.6968 52.4724C37.7359 52.135 37.7798 51.7976 37.8238 51.4652C37.8873 50.9867 37.9606 50.5133 38.029 50.0349L38.0876 49.6421L38.1121 49.4658C38.1609 49.1435 38.2049 48.8262 38.2586 48.5039C38.2928 48.3025 38.327 48.106 38.3612 47.9046C38.4052 47.6528 38.4492 47.401 38.4882 47.1492C38.5176 46.9729 38.5371 46.7966 38.5566 46.6153C38.5713 46.5096 38.5811 46.4038 38.5957 46.298C38.6202 46.1167 38.6544 45.9354 38.6837 45.7541L38.7179 45.5426C38.7276 45.4872 38.7374 45.4369 38.7472 45.3815L38.7911 45.0944C38.8351 44.8224 38.8742 44.5454 38.9133 44.2735C38.9328 44.1325 38.9524 43.9915 38.967 43.8454C38.9817 43.7094 38.9963 43.5684 39.0208 43.4324C39.0598 43.1756 39.1087 42.9238 39.1527 42.672C39.1869 42.4705 39.226 42.2741 39.2553 42.0727C39.2846 41.9115 39.3041 41.7504 39.3286 41.5892C39.3432 41.4834 39.3579 41.3827 39.3725 41.282C39.4018 41.1057 39.4311 40.9244 39.4605 40.7482L39.524 40.3755L39.5435 40.2546C39.5728 40.0834 39.6021 39.9121 39.6217 39.7359C39.6363 39.6049 39.6559 39.474 39.6656 39.3481C39.6803 39.2071 39.695 39.0661 39.7194 38.925C39.7341 38.8193 39.7585 38.7186 39.778 38.6128C39.8024 38.4919 39.8269 38.3711 39.8464 38.2552C39.8757 38.0991 39.9002 37.938 39.9197 37.7818C39.9344 37.6962 39.9441 37.6106 39.9588 37.525C39.993 37.3084 40.0272 37.0919 40.0663 36.8753L40.1102 36.6185L40.1444 36.412C40.1689 36.2559 40.1982 36.1048 40.2177 35.9487C40.2373 35.8328 40.2519 35.712 40.2715 35.5961C40.291 35.4501 40.3154 35.3091 40.3399 35.163C40.3692 34.9867 40.4034 34.8105 40.4376 34.6342C40.6134 33.7579 40.2666 33.1636 40.0467 32.8866C39.6705 32.4233 39.1136 32.1665 38.5078 32.1816C38.4198 32.1816 38.3319 32.1916 38.2342 32.2068C37.9655 32.247 37.6968 32.3276 37.4232 32.4435C36.9542 32.6449 36.5243 32.8312 36.109 33.0176C35.7572 33.1787 35.4104 33.3399 35.0586 33.5011L34.5065 33.7579C34.0913 33.9493 33.6809 34.1407 33.2656 34.327C32.9236 34.4831 32.5768 34.6392 32.2299 34.7954L31.6827 35.0421L31.3896 35.1781C31.2088 35.2637 31.0232 35.3493 30.8375 35.4249C30.5737 35.5407 30.305 35.6515 30.0363 35.7623C29.8555 35.8379 29.6748 35.9134 29.494 35.9889C29.3621 36.0443 29.2302 36.0997 29.0934 36.1602C28.9126 36.2357 28.7319 36.3163 28.5511 36.3918C28.3703 36.4623 28.1896 36.5329 28.0088 36.6034C27.8769 36.6537 27.7401 36.7041 27.6082 36.7544C27.4519 36.8149 27.2955 36.8753 27.1392 36.9408C26.9047 37.0314 26.6751 37.1271 26.4406 37.2127C26.2256 37.2933 26.0106 37.3689 25.7957 37.4444C25.6247 37.5048 25.4586 37.5653 25.2876 37.6257C25.1654 37.671 25.0384 37.7164 24.9163 37.7667C24.7893 37.8171 24.6622 37.8624 24.5352 37.9077C24.4766 37.9279 24.418 37.943 24.3593 37.9581C24.2812 37.9782 24.1981 37.9984 24.1199 38.0236C24.0369 38.0487 23.9538 38.0739 23.8708 38.1041C23.8317 38.1193 23.7877 38.1293 23.7486 38.1444L23.265 38.2905C22.8546 38.4164 22.4442 38.5423 22.0289 38.6581C21.8433 38.7085 21.6332 38.7589 21.4134 38.8042C21.2668 38.8394 21.1202 38.8696 20.9737 38.9049C20.7929 38.9502 20.6073 38.9956 20.4265 39.0459L20.2555 39.0912L20.0259 39.1265C19.8011 39.1567 19.5764 39.192 19.3566 39.2222C19.1807 39.2474 19.0048 39.2776 18.8289 39.3078C18.5944 39.3481 18.3648 39.3833 18.1303 39.4186C18.0326 39.4337 17.9056 39.4387 17.8078 39.4387L17.1336 39.4589C16.6207 39.474 16.1077 39.4891 15.5947 39.5042C15.2576 39.5143 14.9205 39.5193 14.5834 39.5244C14.3684 39.5244 14.1681 39.5092 14.002 39.469C13.4939 39.3531 13.0152 39.1416 12.5266 38.8143C12.3019 38.6632 12.0576 38.4869 11.9257 38.3106C11.8035 38.1444 11.701 37.9833 11.6228 37.8272C11.2906 37.1674 10.9486 36.4674 10.6066 35.7422C10.4112 35.3292 10.2255 34.9112 10.035 34.4932C9.90308 34.1961 9.76629 33.8989 9.62949 33.6018C9.4927 33.2996 9.35102 33.0025 9.20934 32.7053C9.00903 32.2773 8.80873 31.8542 8.61819 31.4211C8.32017 30.7563 8.03193 30.0916 7.74368 29.4268L7.43589 28.7116C7.0304 27.7799 6.6249 26.8533 6.22429 25.9216L6.19497 25.8611C6.18032 25.8259 6.16077 25.7806 6.14612 25.7453C6.18032 25.569 6.22429 25.4532 6.27314 25.3777C6.31223 25.3223 6.35131 25.2719 6.39528 25.2215M28.2384 25.3726L46.8669 16.2118" stroke="#F0AB00" stroke-width="2" stroke-miterlimit="10"/>
<path d="M20.6955 50.7876C20.9362 50.7956 21.1669 50.8433 21.3818 50.9249L28.5236 53.9009C29.1681 54.1695 29.6217 54.8061 29.6217 55.5481C29.6217 63.7801 24.5667 68.3656 21.3798 69.6945C21.1689 69.782 20.9342 69.8297 20.6915 69.8297C20.4488 69.8297 20.218 69.782 20.0071 69.6945C16.0264 68.0333 11.7672 62.9306 11.7672 55.5481C11.7672 54.8061 12.2228 54.1675 12.8693 53.9009L20.0091 50.9249C20.224 50.8433 20.4547 50.7956 20.6955 50.7876Z" stroke="black" stroke-width="2"/>
</svg>
