<svg width="97" height="96" viewBox="0 0 97 96" fill="none" xmlns="http://www.w3.org/2000/svg">
<path d="M25.1053 71.7629C22.4405 69.4967 19.4107 66.7084 17.0365 63.5548C9.74001 53.8628 13.8672 38.7892 27.2599 38.1792M30.9108 71.7629C32.9511 70.0277 35.3573 67.9865 37.4386 65.7095" stroke="#F0AB00" stroke-width="2"/>
<path d="M26.4443 71.7709C25.0004 69.5043 23.3588 66.7153 22.0724 63.561C18.0368 53.6653 20.4509 38.1606 28.0708 38.1606" stroke="#F0AB00" stroke-width="2"/>
<path d="M25.1523 75.9546H31.062L30.1191 80.1381H26.0952L25.1523 75.9546Z" stroke="#F0AB00" stroke-width="2" stroke-linejoin="round"/>
<path d="M25.1523 71.77H31.062L30.1191 75.9535H26.0952L25.1523 71.77Z" stroke="#F0AB00" stroke-width="2" stroke-linejoin="round"/>
<path d="M49.6259 72.123C44.5298 67.7893 38.7357 62.457 34.1954 56.426C19.9516 37.5059 28.472 7.86182 55.3668 7.86182C82.2616 7.86182 90.782 37.5059 76.5382 56.426C71.9979 62.457 66.2038 67.7893 61.1077 72.123" stroke="black" stroke-width="2"/>
<path d="M50.9384 72.1373C47.2385 67.8026 43.0319 62.4691 39.7356 56.4369C29.3943 37.5125 35.5803 7.86182 55.1064 7.86182C74.6326 7.86182 80.8186 37.5125 70.4773 56.4369C67.181 62.4691 62.9743 67.8026 59.2745 72.1373" stroke="black" stroke-width="2"/>
<path d="M53.0419 72.1373C51.2808 67.8026 49.2784 62.4691 47.7093 56.4369C42.7868 37.5125 45.7314 7.86182 55.0259 7.86182C64.3205 7.86182 67.2651 37.5125 62.3425 56.4369C60.7735 62.4691 58.7711 67.8026 57.0099 72.1373" stroke="black" stroke-width="2"/>
<path d="M49.5251 80.1377H60.8266L59.0235 88.1381H51.3282L49.5251 80.1377Z" stroke="black" stroke-width="2" stroke-linejoin="round"/>
<path d="M49.5251 72.1372H60.8266L59.0235 80.1376H51.3282L49.5251 72.1372Z" stroke="black" stroke-width="2" stroke-linejoin="round"/>
<path d="M27.4639 36.5728C28.2472 36.8679 29.125 37.1997 29.915 37.4692M83.3337 36.7034C81.4454 37.4149 79.7664 37.9215 77.8418 38.4844M58.1317 41.639C62.4614 41.4965 66.7822 41.0003 71.05 40.1504M50.1696 41.5025C46.3015 41.2421 42.4478 40.6987 38.6402 39.8722M38.6402 39.8722C36.3834 39.3824 34.1428 38.7931 31.925 38.1044L38.6402 39.8722Z" stroke="black" stroke-width="2" stroke-linecap="round" stroke-linejoin="round"/>
</svg>
