<svg width="97" height="96" viewBox="0 0 97 96" fill="none" xmlns="http://www.w3.org/2000/svg">
<path d="M15.0053 79.2039C9.8631 78.6521 7.30015 75.051 6.76635 69.9302C5.88216 61.4485 7.43503 64.5717 14.1825 61.9863C26.0256 57.4484 33.4326 51.501 47.1062 53.8748C56.6659 55.5346 64.6433 61.2353 73.6005 64.0748C77.9097 65.4409 86.7249 65.4223 89.3948 70.0009C92.9092 76.0266 88.0461 78.4732 82.8935 79.1868" stroke="black" stroke-width="2" stroke-miterlimit="10" stroke-linecap="round" stroke-linejoin="round"/>
<path d="M33.7955 79.985L64.082 79.7495" stroke="black" stroke-width="2" stroke-miterlimit="10" stroke-linecap="round" stroke-linejoin="round"/>
<path d="M86.4745 71.7959C86.168 71.7888 85.7739 71.7626 85.3688 71.7257C82.3241 71.4486 81.6756 70.7533 80.8591 69.197" stroke="black" stroke-width="2" stroke-miterlimit="10" stroke-linecap="round" stroke-linejoin="round"/>
<path d="M32.1384 78.1762C32.1384 74.6542 29.2832 71.7988 25.7611 71.7988C22.239 71.7988 19.3837 74.6542 19.3837 78.1762C19.3837 81.6984 22.239 84.5536 25.7611 84.5536C29.2832 84.5536 32.1384 81.6984 32.1384 78.1762Z" stroke="black" stroke-width="2" stroke-miterlimit="10" stroke-linecap="round" stroke-linejoin="round"/>
<path d="M78.4526 78.1762C78.4526 74.6542 75.5973 71.7988 72.0753 71.7988C68.5531 71.7988 65.6979 74.6542 65.6979 78.1762C65.6979 81.6984 68.5531 84.5536 72.0753 84.5536C75.5973 84.5536 78.4526 81.6984 78.4526 78.1762Z" stroke="black" stroke-width="2" stroke-miterlimit="10" stroke-linecap="round" stroke-linejoin="round"/>
<path d="M24.7562 64.7347L61.1023 66.6574C61.7215 66.6983 61.9286 65.7846 61.3607 65.517C60.1922 64.9659 58.9158 64.3561 58.0458 63.918C53.8748 61.82 50.6221 60.486 45.557 59.2758C37.8686 57.4387 31.247 61.4614 24.7562 64.7347Z" stroke="black" stroke-width="2" stroke-miterlimit="10" stroke-linecap="round" stroke-linejoin="round"/>
<path d="M10.21 88.2546H85.8545" stroke="#F0AB00" stroke-width="2" stroke-miterlimit="10" stroke-linecap="round" stroke-linejoin="round"/>
<path d="M62.7949 7.74489H27.394C24.334 7.74489 21.8533 10.2256 21.8533 13.2856V34.0727C21.8533 37.1327 24.334 39.6134 27.394 39.6134H38.9475C39.3203 39.6134 39.6221 39.9155 39.6221 40.2878V47.519C39.6221 48.1198 40.3483 48.4206 40.7735 47.9954L48.9581 39.8108C49.0844 39.6845 49.2559 39.6134 49.4347 39.6134H62.7949C65.8551 39.6134 68.3352 37.1327 68.3352 34.0727V13.2856C68.3352 10.2256 65.8551 7.74489 62.7949 7.74489Z" stroke="#F0AB00" stroke-width="2" stroke-miterlimit="10" stroke-linecap="round" stroke-linejoin="round"/>
<path d="M53.1517 24.0123H57.0563C59.1835 24.0123 60.9233 22.2722 60.9233 20.1452C60.9233 18.018 59.1835 16.2776 57.0563 16.2776H52.9663V31.0815" stroke="#F0AB00" stroke-width="2" stroke-miterlimit="10" stroke-linecap="round" stroke-linejoin="round"/>
<path d="M46.5051 16.2776V31.0815" stroke="#F0AB00" stroke-width="2" stroke-miterlimit="10" stroke-linecap="round" stroke-linejoin="round"/>
<path d="M29.5392 16.2776L35.1809 31.0815L40.4896 16.2776" stroke="#F0AB00" stroke-width="2" stroke-miterlimit="10" stroke-linecap="round" stroke-linejoin="round"/>
</svg>
