<svg width="97" height="96" viewBox="0 0 97 96" fill="none" xmlns="http://www.w3.org/2000/svg">
<path d="M36.766 56.9292L50.1004 52.3398M50.1004 52.3398L52.8479 51.3942C54.0693 50.9738 55.3628 51.8042 55.4892 53.0897L58.4632 83.3495C58.5788 84.5257 57.6493 85.5451 56.4674 85.5451V85.5451C55.4345 85.5451 54.5671 84.7586 54.4716 83.7301L51.781 54.7672C51.7404 54.3302 51.5572 53.9186 51.2595 53.596L50.1004 52.3398Z" stroke="black" stroke-width="2" stroke-linecap="round" stroke-linejoin="round"/>
<path d="M11.3058 58.208L19.966 55.0754M11.3058 58.208L8.56233 59.2241C7.85673 59.4854 7.35752 60.1207 7.27041 60.8681L4.90604 81.1532C4.7818 82.2191 5.61488 83.1549 6.68799 83.1549V83.1549C7.59518 83.1549 8.3596 82.4777 8.46892 81.5771L11.3058 58.208ZM19.966 55.0754L23.9625 53.7075C25.1833 53.2897 26.4744 54.12 26.6006 55.4041L29.5751 85.6683C29.6907 86.8445 28.7624 87.8639 27.5805 87.8639V87.8639C26.5467 87.8639 25.6798 87.076 25.5854 86.0465L22.944 57.232C22.8678 56.3997 22.282 55.7027 21.4752 55.4842L19.966 55.0754Z" stroke="black" stroke-width="2" stroke-linecap="round" stroke-linejoin="round"/>
<path d="M53.4438 72.9092L32.2846 73.7556L28.4758 73.8614M9.05652 76.3887L10.5965 75.0588C10.939 74.7631 11.3716 74.5922 11.8237 74.5741L21.705 74.1788L24.3499 74.073" stroke="black" stroke-width="2" stroke-linecap="round" stroke-linejoin="round"/>
<path d="M38.9853 64.4838L33.1408 44.1068L6.85974 42.9902L13.2154 65.4924L23.0922 65.1058M52.7227 63.9461L32.9691 64.7193L28.0306 64.9125" stroke="black" stroke-width="2" stroke-linecap="round" stroke-linejoin="round"/>
<path d="M6.86609 43.0142L2.92908 47.5967L6.86609 61.5115" stroke="black" stroke-width="2" stroke-linecap="round" stroke-linejoin="round"/>
<path d="M40.1067 55.8728L37.1834 79.5019C37.0712 80.4094 36.3001 81.091 35.3856 81.091V81.091C34.291 81.091 33.4464 80.1275 33.5897 79.0423L34.2917 73.7265" stroke="black" stroke-width="2" stroke-linecap="round" stroke-linejoin="round"/>
<ellipse cx="31.2745" cy="27.0867" rx="12.0837" ry="1.83569" stroke="#F0AB00" stroke-width="2" stroke-linecap="round" stroke-linejoin="round"/>
<path d="M19.0829 27.0186L20.5438 15.7492C20.6638 14.8236 21.408 14.1041 22.3371 14.0153L28.5587 13.4212C30.3292 13.2521 32.1118 13.2521 33.8823 13.4212L40.1114 14.016C41.0371 14.1044 41.7797 14.8192 41.9035 15.7408L43.4176 27.0186" stroke="#F0AB00" stroke-width="2" stroke-linecap="round" stroke-linejoin="round"/>
<path d="M31.2684 13.167V6.8877" stroke="#F0AB00" stroke-width="2" stroke-linecap="round" stroke-linejoin="round"/>
<path d="M71.3316 72.0998L68.3334 72.5227C67.6487 72.6193 67.0635 73.0599 66.832 73.7115C65.5511 77.3157 62.3761 89.1123 75.6921 89.1123C87.9484 89.1123 84.6673 77.3253 83.3752 73.7158C83.1414 73.0626 82.5547 72.619 81.8676 72.5221L78.8738 72.0998C76.3721 71.7469 73.8333 71.7469 71.3316 72.0998Z" stroke="#F0AB00" stroke-width="2" stroke-linecap="round" stroke-linejoin="round"/>
<path d="M76.4344 71.5102C77.5273 63.3477 78.5834 57.744 80.992 53.2801M80.992 53.2801C83.0517 49.4628 86.1005 46.479 91.0072 43.4414C100.794 37.3824 84.8119 34.6918 86.3979 38.8825C87.0111 40.419 85.462 40.9145 83.7216 40.9145C80.0705 41.0301 73.0162 42.7284 74.0074 48.5966C74.404 50.579 76.6178 50.6451 77.6751 50.4303C79.176 50.2321 81.9406 50.5244 80.992 53.2801Z" stroke="#F0AB00" stroke-width="2" stroke-linecap="round" stroke-linejoin="round"/>
<path d="M77.4561 64.3002C77.3652 65.518 77.6957 67.6591 79.7457 66.4813C81.8069 65.297 82.8097 62.9134 83.0664 60.7209C83.1723 59.8155 82.5025 59.025 81.593 58.9621C80.2096 58.8663 79.0851 59.0408 78.6006 59.1755C77.2558 59.5933 74.6425 60.8979 74.9478 62.7734C75.2531 64.6489 76.7472 64.1364 77.4561 63.6457" stroke="#F0AB00" stroke-width="2" stroke-linecap="round" stroke-linejoin="round"/>
<path d="M73.8026 71.4969C72.9668 68.8071 70.5864 62.5881 67.7513 59.2298M67.7513 59.2298C64.9162 55.8715 63.117 53.2146 62.5718 52.306C62.2781 51.6846 62.0168 50.7571 62.3953 50.3433C65.8125 46.6073 71.9974 55.6269 72.7499 58.702C73.2858 60.8922 73.0187 62.4518 70.8431 59.834C70.782 59.7604 70.7263 59.6789 70.6725 59.5999C70.1826 58.8803 69.0305 57.9506 67.7513 59.2298Z" stroke="#F0AB00" stroke-width="2" stroke-linecap="round" stroke-linejoin="round"/>
<path d="M56.4877 38.5242L59.2742 36.9947V32.6237" stroke="black" stroke-width="2" stroke-linecap="round" stroke-linejoin="round"/>
<path d="M53.4943 41.68C52.1358 40.1782 51.4296 38.1982 51.5309 36.1757C51.6323 34.1532 52.5329 32.2537 54.0348 30.8953C55.5366 29.5368 57.5165 28.8306 59.539 28.9319C61.5616 29.0333 63.461 29.9339 64.8194 31.4358C66.1779 32.9376 66.8841 34.9175 66.7828 36.94C66.6814 38.9626 65.7808 40.862 64.279 42.2204C62.7772 43.5789 60.7972 44.2851 58.7747 44.1838C56.7522 44.0824 54.8527 43.1818 53.4943 41.68L53.4943 41.68Z" stroke="black" stroke-width="2" stroke-linecap="round"/>
<circle cx="59.2742" cy="36.91" r="0.862973" fill="black"/>
</svg>
