<svg width="25" height="25" viewBox="0 0 25 25" fill="none" xmlns="http://www.w3.org/2000/svg">
<path d="M17.067 7.44945L23.5975 8.44299C23.8641 8.48325 24.1146 8.59928 24.3209 8.77807C24.5271 8.95686 24.6811 9.19136 24.7654 9.45529C24.8497 9.72064 24.8607 10.0049 24.7973 10.2764C24.7339 10.5478 24.5986 10.7958 24.4064 10.9925L19.671 15.7821L20.789 22.6526C20.8346 22.9292 20.8038 23.2134 20.7001 23.4728C20.5964 23.7322 20.4241 23.9563 20.2027 24.1195C19.9825 24.2826 19.7224 24.3792 19.4519 24.3982C19.1813 24.4173 18.9109 24.358 18.6712 24.2272L12.8361 21.0193L7.00545 24.2296C6.76496 24.3605 6.49388 24.4197 6.22258 24.4007C5.95128 24.3817 5.69048 24.2851 5.4694 24.1218C5.24864 23.9583 5.07699 23.734 4.97411 23.4746C4.87123 23.2151 4.84129 22.9311 4.88771 22.6549L6.00566 15.7844L1.26891 10.9925C1.07692 10.7957 0.941726 10.5477 0.878412 10.2763C0.815099 10.0048 0.826154 9.72061 0.910347 9.45529C0.994228 9.19083 1.1482 8.95587 1.35485 8.77697C1.56149 8.59808 1.81256 8.48239 2.07965 8.44299L8.60467 7.44945L11.5313 1.24776C11.6498 0.994919 11.8351 0.781658 12.0658 0.632448C12.2965 0.483238 12.5633 0.404123 12.8356 0.40418C13.1087 0.403462 13.3763 0.482252 13.6079 0.631487C13.8394 0.780722 14.0254 0.99434 14.1444 1.24776L17.067 7.44945Z" fill="#F0AB00"/>
</svg>
