<svg width="81" height="81" viewBox="0 0 81 81" fill="none" xmlns="http://www.w3.org/2000/svg">
<circle cx="40.6675" cy="40.0977" r="39" stroke="black" stroke-width="2"/>
<path d="M58.1196 26.9795C57.503 33.5129 54.8685 49.3583 53.5276 56.688C52.9615 59.7831 51.8441 60.8226 50.7544 60.9242C48.4054 61.1441 46.6224 59.3383 44.3468 57.8141C40.7857 55.4319 38.7744 53.9477 35.3177 51.6222C31.3243 48.9335 33.9132 47.4576 36.1888 45.0421C36.7842 44.4091 47.1363 34.7956 47.3369 33.9227C47.3614 33.8144 47.3859 33.4063 47.1477 33.193C46.9095 32.9798 46.5621 33.0514 46.3108 33.1097C45.953 33.1919 40.2648 37.0311 29.2461 44.6273C27.6311 45.759 26.169 46.3104 24.8596 46.2815C23.4143 46.2499 20.6362 45.4486 18.571 44.7623C16.0377 43.921 14.023 43.4762 14.1992 42.0486C14.2906 41.3045 15.2938 40.5438 17.2089 39.7664C29.0009 34.519 36.8647 31.0596 40.8004 29.3883C52.0366 24.6156 54.371 23.7877 55.8929 23.7594C56.2274 23.7594 56.9745 23.8377 57.4606 24.2392C57.7822 24.5262 57.9875 24.9253 58.0364 25.3586C58.1232 25.894 58.1511 26.4377 58.1196 26.9795V26.9795Z" fill="black"/>
</svg>
