<svg width="64" height="65" viewBox="0 0 64 65" fill="none" xmlns="http://www.w3.org/2000/svg">
<path d="M32 0.475586C23.515 0.475586 15.37 3.85059 9.375 9.85059C3.375 15.8456 0 23.9906 0 32.4756C0 40.9606 3.375 49.1056 9.375 55.1056C15.37 61.1056 23.515 64.4756 32 64.4756C40.485 64.4756 48.63 61.1006 54.625 55.1006C60.625 49.1006 64 40.9556 64 32.4756C64 23.9956 60.625 15.8456 54.625 9.84559C48.63 3.85059 40.485 0.475586 32 0.475586Z" fill="url(#paint0_linear_136_18003)"/>
<path d="M14.4852 32.1354C23.8152 28.0704 30.0352 25.3904 33.1452 24.0954C42.0352 20.4004 43.8802 19.7554 45.0852 19.7354C45.3502 19.7354 45.9402 19.7954 46.3252 20.1054C46.6452 20.3704 46.7352 20.7254 46.7802 20.9704C46.8202 21.2204 46.8752 21.7854 46.8302 22.2304C46.3502 27.2904 44.2652 39.5704 43.2052 45.2353C42.7602 47.6353 41.8752 48.4354 41.0202 48.5154C39.1602 48.6854 37.7502 47.2854 35.9502 46.1054C33.1352 44.2604 31.5452 43.1103 28.8102 41.3104C25.6502 39.2304 27.7002 38.0854 29.5002 36.2154C29.9702 35.7254 38.1602 28.2804 38.3152 27.6054C38.3352 27.5204 38.3552 27.2054 38.1652 27.0404C37.9802 26.8754 37.7052 26.9304 37.5052 26.9754C37.2202 27.0404 32.7252 30.0153 24.0052 35.8953C22.7302 36.7703 21.5752 37.2004 20.5352 37.1754C19.3952 37.1504 17.1952 36.5304 15.5602 36.0004C13.5602 35.3504 11.9652 35.0053 12.1052 33.8953C12.1752 33.3203 12.9702 32.7304 14.4852 32.1254V32.1354Z" fill="white"/>
<defs>
<linearGradient id="paint0_linear_136_18003" x1="32" y1="0.475586" x2="32" y2="64.4756" gradientUnits="userSpaceOnUse">
<stop stop-color="#2AABEE"/>
<stop offset="1" stop-color="#229ED9"/>
</linearGradient>
</defs>
</svg>
