<svg width="25" height="16" viewBox="0 0 25 16" fill="none" xmlns="http://www.w3.org/2000/svg">
<path d="M22.2815 5.29061L24.2346 3.22484H19.9034C17.7351 1.78494 15.1164 0.94635 12.2844 0.94635C9.456 0.94635 6.84466 1.78675 4.67994 3.22484H0.337891L2.29101 5.29061C1.09384 6.35247 0.343335 7.88204 0.343335 9.58035C0.343335 12.7853 3.01624 15.3838 6.31302 15.3838C7.87913 15.3838 9.30596 14.7966 10.3711 13.8367L12.2845 15.862L14.1978 13.8384C15.263 14.7984 16.688 15.3838 18.2541 15.3838C21.5509 15.3838 24.2274 12.7853 24.2274 9.58035C24.2291 7.88027 23.4787 6.35075 22.2815 5.29061ZM6.31479 13.5079C4.08315 13.5079 2.27476 11.7499 2.27476 9.58035C2.27476 7.41085 4.0832 5.65277 6.31479 5.65277C8.54638 5.65277 10.3548 7.41085 10.3548 9.58035C10.3548 11.7499 8.54638 13.5079 6.31479 13.5079ZM12.2862 9.46607C12.2862 6.88166 10.353 4.66298 7.80132 3.71535C9.18115 3.15449 10.6948 2.84332 12.2844 2.84332C13.874 2.84332 15.3895 3.15449 16.7693 3.71535C14.2195 4.66474 12.2862 6.8817 12.2862 9.46607ZM18.2559 13.5079C16.0243 13.5079 14.2159 11.7499 14.2159 9.58035C14.2159 7.41085 16.0243 5.65277 18.2559 5.65277C20.4876 5.65277 22.296 7.41085 22.296 9.58035C22.296 11.7499 20.4875 13.5079 18.2559 13.5079ZM18.2559 7.51984C17.0858 7.51984 16.1382 8.44109 16.1382 9.57859C16.1382 10.7161 17.0858 11.6373 18.2559 11.6373C19.426 11.6373 20.3736 10.7161 20.3736 9.57859C20.3736 8.44285 19.426 7.51984 18.2559 7.51984ZM8.43246 9.58035C8.43246 10.7178 7.48483 11.6391 6.31479 11.6391C5.14475 11.6391 4.19712 10.7178 4.19712 9.58035C4.19712 8.44285 5.14475 7.5216 6.31479 7.5216C7.48483 7.51984 8.43246 8.44285 8.43246 9.58035Z" fill="white"/>
</svg>
