<svg width="21" height="20" viewBox="0 0 21 20" fill="none" xmlns="http://www.w3.org/2000/svg">
<path d="M9.95712 10.159L10.5428 10.3693C10.998 10.5327 11.4954 10.5356 11.9524 10.3773L18.9243 7.96263C19.302 7.8318 19.5554 7.47594 19.5554 7.07617C19.5554 6.67887 19.3051 6.32465 18.9306 6.19193L12.3732 3.86804C11.5044 3.56017 10.5566 3.55827 9.68664 3.86265C8.00017 4.45272 5.79317 4.79418 4.06957 5.65145C3.12168 6.12291 1.88035 6.90094 2.01947 8.12465C2.07735 8.63367 2.36594 9.08785 2.80218 9.35645L3.29917 9.66246C3.44156 9.75013 3.59134 9.82518 3.74681 9.88674L9.05212 11.9876C10.1665 12.4289 11.4023 12.4552 12.5345 12.0617L17.1884 10.4442C17.6529 10.2828 18.0395 9.95675 18.2774 9.53127" stroke="black" stroke-linecap="round" stroke-linejoin="round"/>
<path d="M9.7666 13.7254L10.1009 13.8192C10.9559 14.0591 11.8664 14.0076 12.6889 13.673L18.6677 11.2405C18.9165 11.1393 19.1407 10.9861 19.3254 10.791C20.0831 9.99073 19.9945 8.71357 19.1334 8.0256L19.0452 7.95508" stroke="black" stroke-linecap="round" stroke-linejoin="round"/>
<path d="M19.2363 10.8709C19.7324 11.6235 19.4328 12.6415 18.6081 13.0054L12.5967 15.6582C11.5761 16.1085 10.4137 16.1122 9.39025 15.6684L3.94629 13.3073C2.48011 12.6714 2.11591 10.758 3.24596 9.62793" stroke="black" stroke-linecap="round" stroke-linejoin="round"/>
</svg>
