<svg width="20" height="20" viewBox="0 0 20 20" fill="none" xmlns="http://www.w3.org/2000/svg">
<path d="M9.3457 12.3298L11.4971 1.24194" stroke="black" stroke-linecap="round"/>
<path d="M4.53491 4.72262C5.31723 3.30156 7.80486 0.600245 11.4968 1.16351C15.1887 1.72677 16.3985 5.23114 16.5419 6.91292" stroke="black" stroke-linecap="round"/>
<path d="M6.8623 5.5441C7.51419 3.90792 9.36159 0.764639 11.5361 1.28097" stroke="black" stroke-linecap="round"/>
<path d="M13.8025 6.97204C13.859 5.21169 13.4222 1.59199 11.2225 1.19602" stroke="black" stroke-linecap="round"/>
<path d="M6.80322 5.75952C7.54634 5.3554 9.34547 4.8835 10.597 6.22887" stroke="black" stroke-linecap="round"/>
<path d="M13.7853 7.02465C13.3133 6.43114 12.0033 5.47223 10.5387 6.38473" stroke="black" stroke-linecap="round"/>
<path d="M16.5209 6.91241C16.0241 6.6537 14.8027 6.30942 13.8918 7.00203" stroke="black" stroke-linecap="round"/>
<path d="M4.62041 4.69713C5.13146 4.63519 6.27637 4.75239 6.76755 5.71674" stroke="black" stroke-linecap="round"/>
<path d="M0.647705 15.8903L1.32881 15.4238C2.10924 14.8892 3.14208 14.9056 3.90519 15.4646L4.12425 15.6251C4.82393 16.1376 5.79042 16.0997 6.45462 15.542V15.542C7.14607 14.9614 8.1623 14.9549 8.8538 15.5355V15.5355C9.52299 16.0974 10.4976 16.114 11.1895 15.5805V15.5805C11.8637 15.0607 12.8079 15.0574 13.482 15.5772L13.507 15.5965C14.1958 16.1277 15.1562 16.1277 15.8451 15.5965L15.9595 15.5082C16.6034 15.0117 17.4759 14.9311 18.1998 15.3012L19.3521 15.8903" stroke="black" stroke-linecap="round"/>
<path d="M2.13501 18.4015L2.7078 18.0092C3.36412 17.5596 4.23272 17.5734 4.87448 18.0435L5.0587 18.1784C5.64712 18.6094 6.45991 18.5776 7.01849 18.1086V18.1086C7.59998 17.6203 8.45461 17.6149 9.03614 18.1031V18.1031C9.59891 18.5756 10.4185 18.5897 11.0004 18.141V18.141C11.5674 17.7038 12.3614 17.701 12.9283 18.1382L12.9493 18.1544C13.5286 18.6012 14.3363 18.6012 14.9157 18.1544L15.0119 18.0802C15.5534 17.6626 16.2871 17.5948 16.8959 17.906L17.865 18.4015" stroke="black" stroke-linecap="round"/>
<path d="M4.14795 15.5642C4.65516 14.4822 5.97323 12.1106 9.7591 12.3462C12.6261 12.5246 14.0755 14.3757 14.3041 15.8049" stroke="black" stroke-linecap="round" stroke-linejoin="round"/>
</svg>
