<svg width="20" height="20" viewBox="0 0 20 20" fill="none" xmlns="http://www.w3.org/2000/svg">
<path d="M10.2224 4.94556C9.26942 5.35823 7.28681 6.87909 6.98034 9.66113C6.59724 13.1387 4.82798 16.469 4.09119 16.7932" stroke="black" stroke-linecap="round"/>
<path d="M9.99936 4.94556C10.9524 5.35823 12.935 6.87909 13.2414 9.66113C13.6245 13.1387 14.8483 16.0858 15.5851 16.41" stroke="black" stroke-linecap="round"/>
<path d="M2.11665 15.3199V15.0713C2.11665 14.8551 1.96563 14.6683 1.75426 14.623C1.38883 14.5447 1.2617 14.0817 1.52702 13.8185C2.43618 12.9166 3.68291 11.5386 4.23856 10.4273C5.12271 8.65898 5.80055 4.82764 10.015 4.82764C13.0111 4.82764 14.3206 6.61194 14.713 7.80213C14.8024 8.07326 14.8683 8.35166 14.9751 8.61641C15.6601 10.314 16.9805 12.9612 18.2882 13.8434C18.6341 14.0768 18.9151 14.5756 18.7361 14.9524C18.6318 15.172 18.3994 15.3009 18.1579 15.273L17.7387 15.2246C17.3408 15.1787 16.9766 15.452 16.9094 15.8468C16.8438 16.2322 16.4944 16.5034 16.1049 16.4715L15.6373 16.4332C15.2574 16.402 14.9029 16.6262 14.7682 16.9828C14.6129 17.3937 14.1714 17.62 13.7472 17.506L13.1144 17.336C12.7459 17.237 12.3497 17.3422 12.0763 17.6084C11.6918 17.9828 11.0851 18.0187 10.6634 17.6867C10.2813 17.386 9.74449 17.3806 9.35645 17.6736L9.25985 17.7465C8.85883 18.0493 8.30013 18.0282 7.92307 17.6961L7.77288 17.5638C7.51179 17.3337 7.1308 17.302 6.83528 17.4857C6.49691 17.6961 6.0548 17.621 5.80486 17.3107L5.75211 17.2452C5.53106 16.9708 5.16809 16.854 4.82846 16.9479L4.66992 16.9918C4.28332 17.0987 3.87546 16.9146 3.69998 16.5539C3.5607 16.2676 3.27023 16.0859 2.95184 16.0859H2.88259C2.45957 16.0859 2.11665 15.7429 2.11665 15.3199Z" stroke="black" stroke-linecap="round"/>
<circle cx="9.99928" cy="3.20656" r="1.4734" stroke="black" stroke-linecap="round"/>
</svg>
