<svg width="21" height="20" viewBox="0 0 21 20" fill="none" xmlns="http://www.w3.org/2000/svg">
<path d="M10.925 8.01957V6.03955" stroke="black" stroke-linecap="round" stroke-linejoin="round"/>
<path d="M10.9253 6.03996C14.7368 4.71995 10.9253 1.41992 10.9253 1.41992C10.9253 1.41992 6.96527 4.71995 10.9253 6.03996Z" stroke="black" stroke-linecap="round" stroke-linejoin="round"/>
<path d="M13.7309 11.1548C13.7309 11.8987 13.4354 12.6122 12.9093 13.1382C12.3833 13.6643 11.6698 13.9598 10.9259 13.9598C10.1819 13.9598 9.46846 13.6643 8.94242 13.1382C8.41638 12.6122 8.12085 11.8987 8.12085 11.1548" stroke="black" stroke-linecap="round" stroke-linejoin="round"/>
<path d="M8.12056 11.1551C8.12071 11.8891 7.83313 12.594 7.31951 13.1184C6.80589 13.6428 6.10717 13.945 5.37329 13.9601C3.79752 13.9931 2.51052 12.6731 2.51052 11.0973V10.0001C2.50942 9.73973 2.55989 9.48176 2.65901 9.24104C2.75813 9.00032 2.90394 8.78162 3.08801 8.59754C3.27209 8.41346 3.4908 8.26765 3.73152 8.16853C3.97224 8.06941 4.23021 8.01895 4.49053 8.02004H17.3606C17.621 8.01895 17.8789 8.06941 18.1196 8.16853C18.3604 8.26765 18.5791 8.41346 18.7631 8.59754C18.9472 8.78162 19.093 9.00032 19.1921 9.24104C19.2913 9.48176 19.3417 9.73973 19.3406 10.0001V11.0973C19.3406 12.6731 18.0536 13.9931 16.4779 13.9601C15.744 13.945 15.0453 13.6428 14.5316 13.1184C14.018 12.594 13.7304 11.8891 13.7306 11.1551" stroke="black" stroke-linecap="round" stroke-linejoin="round"/>
<path d="M18.1856 13.4077V17.9205C18.1856 18.0955 18.1161 18.2634 17.9923 18.3872C17.8686 18.511 17.7007 18.5805 17.5256 18.5805H4.32553C4.15049 18.5805 3.98261 18.511 3.85884 18.3872C3.73506 18.2634 3.66553 18.0955 3.66553 17.9205V13.4077" stroke="black" stroke-linecap="round" stroke-linejoin="round"/>
</svg>
