<svg width="20" height="20" viewBox="0 0 20 20" fill="none" xmlns="http://www.w3.org/2000/svg">
<path d="M2.7618 16.3486C1.65274 16.2296 1.09996 15.4529 0.984832 14.3485C0.79413 12.5192 1.12905 13.1928 2.58434 12.6352C5.13867 11.6564 6.7362 10.3737 9.6853 10.8857C11.7471 11.2437 13.4677 12.4732 15.3996 13.0856C16.329 13.3802 18.2303 13.3762 18.8061 14.3637C19.5641 15.6634 18.5152 16.191 17.4039 16.345" stroke="black" stroke-miterlimit="10" stroke-linecap="round" stroke-linejoin="round"/>
<path d="M6.81445 16.5171L13.3466 16.4663" stroke="black" stroke-miterlimit="10" stroke-linecap="round" stroke-linejoin="round"/>
<path d="M18.1762 14.7515C18.1101 14.7499 18.0251 14.7443 17.9377 14.7363C17.2811 14.6766 17.1412 14.5266 16.9651 14.1909" stroke="black" stroke-miterlimit="10" stroke-linecap="round" stroke-linejoin="round"/>
<path d="M6.457 16.127C6.457 15.3673 5.84119 14.7515 5.08153 14.7515C4.3219 14.7515 3.70605 15.3673 3.70605 16.127C3.70605 16.8866 4.3219 17.5024 5.08153 17.5024C5.84119 17.5024 6.457 16.8866 6.457 16.127Z" stroke="black" stroke-miterlimit="10" stroke-linecap="round" stroke-linejoin="round"/>
<path d="M16.446 16.127C16.446 15.3673 15.8302 14.7515 15.0705 14.7515C14.3109 14.7515 13.6951 15.3673 13.6951 16.127C13.6951 16.8866 14.3109 17.5024 15.0705 17.5024C15.8302 17.5024 16.446 16.8866 16.446 16.127Z" stroke="black" stroke-miterlimit="10" stroke-linecap="round" stroke-linejoin="round"/>
<path d="M4.86482 13.2285L12.7039 13.6432C12.8375 13.652 12.8822 13.455 12.7597 13.3972C12.5077 13.2784 12.2324 13.1469 12.0447 13.0524C11.1451 12.5999 10.4436 12.3122 9.35113 12.0511C7.6929 11.6549 6.26477 12.5225 4.86482 13.2285Z" stroke="black" stroke-miterlimit="10" stroke-linecap="round" stroke-linejoin="round"/>
<path d="M1.72754 18.3013H18.0425" stroke="black" stroke-miterlimit="10" stroke-linecap="round" stroke-linejoin="round"/>
<path d="M13.069 0.936959H5.43378C4.77381 0.936959 4.23877 1.472 4.23877 2.13197V6.61533C4.23877 7.2753 4.77381 7.81034 5.43378 7.81034H7.92564C8.00606 7.81034 8.07113 7.8755 8.07113 7.9558V9.51542C8.07113 9.64501 8.22776 9.70989 8.31947 9.61818L10.0847 7.85292C10.112 7.82568 10.149 7.81034 10.1875 7.81034H13.069C13.7291 7.81034 14.264 7.2753 14.264 6.61533V2.13197C14.264 1.472 13.7291 0.936959 13.069 0.936959Z" stroke="black" stroke-miterlimit="10" stroke-linecap="round" stroke-linejoin="round"/>
<path d="M10.9892 4.44552H11.8313C12.2901 4.44552 12.6654 4.07022 12.6654 3.61147C12.6654 3.15268 12.2901 2.77731 11.8313 2.77731H10.9492V5.97021" stroke="black" stroke-miterlimit="10" stroke-linecap="round" stroke-linejoin="round"/>
<path d="M9.55566 2.77731V5.97021" stroke="black" stroke-miterlimit="10" stroke-linecap="round" stroke-linejoin="round"/>
<path d="M5.89648 2.77731L7.11327 5.97021L8.25826 2.77731" stroke="black" stroke-miterlimit="10" stroke-linecap="round" stroke-linejoin="round"/>
</svg>
