<svg width="20" height="20" viewBox="0 0 20 20" fill="none" xmlns="http://www.w3.org/2000/svg">
<path d="M13.5531 5.68885H6.4463M13.5531 5.68885V3.24971M13.5531 5.68885V7.65038M13.5531 3.24971C13.5531 2.44219 12.9032 1.7876 12.1015 1.7876M13.5531 3.24971C13.5531 2.43818 12.9071 1.7876 12.1015 1.7876M13.5531 3.24971L13.5601 11.5516M12.1015 1.7876C11.2998 1.7876 10.65 2.44222 10.65 3.24971M12.1015 1.7876C11.296 1.7876 10.65 2.4382 10.65 3.24971M10.65 3.24971V4.06393M13.5601 11.5516H19.3772M13.5601 11.5516L13.5531 9.60459M13.5601 11.5516L6.43922 11.5588M13.5601 11.5516L13.5531 13.5129M19.3725 13.512C18.4089 13.512 17.4474 14.1573 16.4671 14.1573C15.3848 14.1573 14.6382 13.5129 13.5531 13.5129M13.5531 13.5129C12.4734 13.5129 11.0855 14.1645 10.0051 14.1645C8.82024 14.1645 7.63285 13.535 6.43922 13.5047M0.618652 13.5192C1.58608 13.5192 2.55317 14.1645 3.53993 14.1645C4.55805 14.1645 5.4526 13.6402 6.43922 13.5047M6.43922 13.5047V11.5588M6.43922 11.5588H0.622191M6.43922 11.5588L6.43907 3.24971M6.43922 11.5588L6.4463 9.60459M6.43907 3.24971C6.43907 2.44222 5.78925 1.7876 4.98762 1.7876M6.43907 3.24971C6.43907 2.4382 5.79312 1.7876 4.98762 1.7876M6.43907 3.24971L6.4463 5.68885M4.98762 1.7876C4.18586 1.7876 3.53601 2.44219 3.53601 3.24971M4.98762 1.7876C4.18199 1.7876 3.53601 2.43818 3.53601 3.24971M3.53601 3.24971V4.064M6.4463 5.68885V7.65038M13.5531 9.60459H6.4463M13.5531 9.60459V7.65038M6.4463 9.60459V7.65038M13.5531 7.65038H6.4463M19.3807 15.4657C18.4141 15.4657 17.4502 16.1116 16.467 16.1116C15.384 16.1116 14.3148 15.4601 13.2305 15.4601C12.1515 15.4601 11.0865 16.1189 10.005 16.1189C8.91886 16.1189 7.84786 15.4671 6.76336 15.4671C5.68438 15.4671 4.61978 16.1189 3.53993 16.1189C2.55319 16.1189 1.58611 15.4735 0.618652 15.4735M19.3807 17.5596C18.4141 17.5596 17.4502 18.2054 16.467 18.2054C15.384 18.2054 14.3147 17.554 13.2305 17.554C12.1515 17.554 11.0865 18.2127 10.005 18.2127C8.91887 18.2127 7.84786 17.561 6.76335 17.561C5.68437 17.561 4.61978 18.2127 3.53993 18.2127C2.55319 18.2127 1.58611 17.5673 0.618652 17.5673" stroke="black" stroke-linecap="round" stroke-linejoin="round"/>
</svg>
