<svg width="20" height="20" viewBox="0 0 20 20" fill="none" xmlns="http://www.w3.org/2000/svg">
<path d="M17.7187 5.88721H2.28129C1.89375 5.88721 1.57959 6.20137 1.57959 6.58891V9.3957C1.57959 9.78324 1.89375 10.0974 2.28129 10.0974H17.7187C18.1062 10.0974 18.4204 9.78324 18.4204 9.3957V6.58891C18.4204 6.20137 18.1062 5.88721 17.7187 5.88721Z" stroke="black" stroke-linecap="round" stroke-linejoin="round"/>
<path d="M17.0169 10.0977V16.413C17.0169 16.5991 16.943 16.7775 16.8114 16.9091C16.6798 17.0407 16.5013 17.1147 16.3152 17.1147H3.68461C3.49851 17.1147 3.32003 17.0407 3.18843 16.9091C3.05684 16.7775 2.98291 16.5991 2.98291 16.413V10.0977" stroke="black" stroke-linecap="round" stroke-linejoin="round"/>
<path d="M10 5.88721V17.1144" stroke="black" stroke-linecap="round" stroke-linejoin="round"/>
<path d="M13.9734 4.89625C12.9735 5.8874 10 5.8874 10 5.8874C10 5.8874 10 2.91395 10.9912 1.91403C11.3866 1.51856 11.923 1.29639 12.4823 1.29639C13.0415 1.29639 13.5779 1.51856 13.9734 1.91403C14.3688 2.30949 14.591 2.84586 14.591 3.40514C14.591 3.96441 14.3688 4.50078 13.9734 4.89625V4.89625Z" stroke="black" stroke-linecap="round" stroke-linejoin="round"/>
<path d="M6.02633 4.89625C7.02625 5.8874 9.9997 5.8874 9.9997 5.8874C9.9997 5.8874 9.9997 2.91395 9.00855 1.91403C8.61308 1.51856 8.07672 1.29639 7.51744 1.29639C6.95817 1.29639 6.4218 1.51856 6.02633 1.91403C5.63086 2.30949 5.40869 2.84586 5.40869 3.40514C5.40869 3.96441 5.63086 4.50078 6.02633 4.89625V4.89625Z" stroke="black" stroke-linecap="round" stroke-linejoin="round"/>
</svg>
