<svg width="21" height="20" viewBox="0 0 21 20" fill="none" xmlns="http://www.w3.org/2000/svg">
<path d="M1.93359 17.8647L3.28412 17.2462C3.81292 17.004 4.42097 17.004 4.94977 17.2462L5.46747 17.4833C5.99627 17.7255 6.60432 17.7255 7.13312 17.4833L7.65082 17.2462C8.17962 17.004 8.78766 17.004 9.31647 17.2462L9.83417 17.4833C10.363 17.7255 10.971 17.7255 11.4998 17.4833L12.0175 17.2462C12.5463 17.004 13.1544 17.004 13.6832 17.2462L14.2009 17.4833C14.7297 17.7255 15.3377 17.7255 15.8665 17.4833L16.3842 17.2462C16.913 17.004 17.5211 17.004 18.0499 17.2462L19.4004 17.8647" stroke="black" stroke-linecap="round" stroke-linejoin="round"/>
<path d="M4.72266 15.8628L3.47119 14.6113H15.0324L13.9814 15.8628" stroke="black" stroke-linecap="round" stroke-linejoin="round"/>
<path d="M8.27588 14.5615V4.70215L12.8804 14.5615" stroke="black" stroke-linecap="round" stroke-linejoin="round"/>
<path d="M5.07275 14.4614L8.27588 8.55566" stroke="black" stroke-linecap="round" stroke-linejoin="round"/>
<path d="M1.7876 6.55566L1.88081 6.60915C2.63109 7.03967 3.22159 7.7018 3.56377 8.49626L3.58936 8.55566L3.78975 8.18258C4.11043 7.58557 4.57753 7.07982 5.14722 6.7128L5.39111 6.55566" stroke="black" stroke-linecap="round" stroke-linejoin="round"/>
<path d="M4.16675 2.13525L4.25997 2.18874C5.01024 2.61926 5.60074 3.28139 5.94292 4.07585L5.96851 4.13525L6.1689 3.76217C6.48958 3.16516 6.95668 2.65941 7.52637 2.29239L7.77026 2.13525" stroke="black" stroke-linecap="round" stroke-linejoin="round"/>
<circle cx="15.5689" cy="6.24908" r="1.86969" stroke="black" stroke-linecap="round" stroke-linejoin="round"/>
<path d="M15.3904 3.0243V2.13525" stroke="black" stroke-linecap="round" stroke-linejoin="round"/>
<path d="M18.7596 6.41211L19.6487 6.41211" stroke="black" stroke-linecap="round" stroke-linejoin="round"/>
<path d="M17.7725 4.02953L18.4011 3.40088" stroke="black" stroke-linecap="round" stroke-linejoin="round"/>
<path d="M17.7725 8.79469L18.4011 9.42334" stroke="black" stroke-linecap="round" stroke-linejoin="round"/>
<path d="M15.3904 10.3622V9.47314" stroke="black" stroke-linecap="round" stroke-linejoin="round"/>
<path d="M11.4899 6.41211L12.3789 6.41211" stroke="black" stroke-linecap="round" stroke-linejoin="round"/>
<path d="M12.5972 9.20531L13.2258 8.57666" stroke="black" stroke-linecap="round" stroke-linejoin="round"/>
<path d="M12.5972 3.6194L13.2258 4.24805" stroke="black" stroke-linecap="round" stroke-linejoin="round"/>
</svg>
