<svg width="21" height="20" viewBox="0 0 21 20" fill="none" xmlns="http://www.w3.org/2000/svg">
<path d="M15.7246 2.14941V3.65832" stroke="black" stroke-linecap="round" stroke-linejoin="round"/>
<path d="M17.0323 4.41266L15.7246 3.6582" stroke="black" stroke-linecap="round" stroke-linejoin="round"/>
<path d="M13.9576 2.76817H12.7002V1.51074" stroke="black" stroke-linecap="round" stroke-linejoin="round"/>
<path d="M13.769 5.61323C14.1558 6.00033 14.6487 6.26402 15.1854 6.37095C15.7221 6.47787 16.2784 6.42322 16.784 6.21391C17.2896 6.0046 17.7218 5.65003 18.0259 5.19506C18.3299 4.74009 18.4922 4.20516 18.4922 3.65793C18.4922 3.11071 18.3299 2.57578 18.0259 2.12081C17.7218 1.66584 17.2896 1.31127 16.784 1.10196C16.2784 0.892651 15.7221 0.838 15.1854 0.944922C14.6487 1.05184 14.1558 1.31554 13.769 1.70264L12.7002 2.76831" stroke="black" stroke-linecap="round" stroke-linejoin="round"/>
<rect x="3.35791" y="7.37109" width="10.5996" height="10.6935" rx="1" stroke="black" stroke-linecap="round" stroke-linejoin="round"/>
<path d="M5.82617 1.604V7.37079H11.4912V1.604H5.82617Z" stroke="black" stroke-linecap="round" stroke-linejoin="round"/>
<path d="M5.82422 3.11816H11.3149" stroke="black" stroke-linecap="round" stroke-linejoin="round"/>
<path d="M5.5127 18.1206V19.1088" stroke="black" stroke-linecap="round" stroke-linejoin="round"/>
<path d="M11.833 18.1206V19.1088" stroke="black" stroke-linecap="round" stroke-linejoin="round"/>
</svg>
