<svg width="20" height="20" viewBox="0 0 20 20" fill="none" xmlns="http://www.w3.org/2000/svg">
<path d="M3.20453 9.40757L3.02135 8.34464C2.96256 8.00266 3.29535 7.71214 3.63085 7.71214C3.97011 7.71163 4.04866 7.71214 4.38809 7.71214C5.86507 7.71163 5.17974 7.32909 4.71167 5.95945C4.63141 5.7238 4.53292 5.47485 4.71167 5.31025L6.06171 4.07199C6.24062 3.90739 6.47491 3.9079 6.65332 4.07199L8.00336 5.31025C8.18176 5.47434 8.08327 5.72516 8.00336 5.95945C7.52796 7.35056 6.85745 7.71214 8.32183 7.71214L11.8568 7.71163M2.67426 16.1746C3.18578 16.9 4.97476 17.4805 5.84019 17.3829C7.72732 17.1696 8.08412 15.9996 8.00779 15.1574M2.67426 16.1746C2.72657 19.1709 7.11526 20.6201 8.84085 17.6826C9.15591 17.1464 9.38696 16.4643 9.49261 15.6193C9.60115 14.7522 11.302 10.852 12.3512 9.75483C12.947 9.13101 15.2078 6.37726 15.6396 5.83813C16.4113 4.87506 14.7092 3.83242 13.6998 5.08737C11.7791 7.48568 10.454 10.3163 9.17244 12.9881C8.68085 14.0123 8.25673 14.6937 7.55454 15.0705C5.80305 16.0097 4.17509 15.1272 3.24218 15.4976C3.00482 15.5914 2.81245 15.8889 2.67426 16.1746ZM14.3777 7.71163H16.3721C16.7071 7.71163 17.0477 8.00607 16.9815 8.34464L16.7983 9.40757M9.78739 11.5382H3.08644C2.91281 11.5382 2.80768 11.3993 2.76883 11.2388L2.64324 10.054C2.60439 9.89353 2.78587 9.75483 2.96035 9.75483H10.6119M12.6308 9.75483H17.0447C17.2197 9.75483 17.3623 9.89012 17.3623 10.054L17.3217 11.2385C17.2955 11.4007 17.1778 11.5382 17.0046 11.5382H11.4089M16.2857 11.8849L15.4438 16.1688C15.3779 16.5057 15.1656 16.8013 14.834 16.8013H9.54015M4.33663 15.0388L3.71707 11.8849" stroke="black" stroke-miterlimit="22.9256" stroke-linecap="round" stroke-linejoin="round"/>
<path d="M9.14838 4.20142C8.74794 3.7966 8.79633 3.14825 9.03613 2.78059C9.27749 2.40888 9.34149 1.8467 8.95464 1.39708" stroke="black" stroke-miterlimit="22.9256" stroke-linecap="round" stroke-linejoin="round"/>
<path d="M10.6967 3.99927C10.1461 3.52561 10.2128 2.76781 10.542 2.33818C10.875 1.90417 10.9626 1.24629 10.4305 0.72127" stroke="black" stroke-miterlimit="22.9256" stroke-linecap="round" stroke-linejoin="round"/>
<path d="M12.1881 4.20142C11.7882 3.7966 11.8364 3.14825 12.0759 2.78059C12.3177 2.40888 12.3812 1.8467 11.9947 1.39708" stroke="black" stroke-miterlimit="22.9256" stroke-linecap="round" stroke-linejoin="round"/>
<circle cx="6.38794" cy="5.93408" r="0.35376" stroke="black"/>
</svg>
