<svg width="21" height="20" viewBox="0 0 21 20" fill="none" xmlns="http://www.w3.org/2000/svg">
<rect x="3.16919" y="1.11621" width="14.3283" height="17.9104" rx="2" stroke="black"/>
<path d="M3.22314 4.82178H17.3914" stroke="black" stroke-linecap="round" stroke-linejoin="round"/>
<circle cx="10.3331" cy="11.588" r="5.37312" stroke="black"/>
<circle cx="15.6019" cy="2.89172" r="0.536744" stroke="black" stroke-width="0.7"/>
<circle cx="13.5424" cy="2.89172" r="0.536744" stroke="black" stroke-width="0.7"/>
<path d="M7.04736 12.9983L7.52505 12.665C7.84717 12.4403 8.27981 12.4588 8.58152 12.7103L8.60843 12.7327C8.94767 13.0155 9.44847 12.9848 9.75072 12.6629V12.6629C10.0603 12.3331 10.5762 12.3101 10.9138 12.611L11.1275 12.8013C11.4015 13.0454 11.8184 13.0334 12.0779 12.7739V12.7739C12.3483 12.5035 12.7866 12.5034 13.0571 12.7736L13.5203 13.2362" stroke="black" stroke-linecap="round" stroke-linejoin="round"/>
<circle cx="10.5821" cy="11.5821" r="3.58208" stroke="black"/>
<rect x="4.79028" y="2.354" width="4.01978" height="1.07462" rx="0.537312" stroke="black" stroke-width="0.7"/>
</svg>
