<svg width="21" height="20" viewBox="0 0 21 20" fill="none" xmlns="http://www.w3.org/2000/svg">
<path d="M19.1231 11.8584V1.68652L18.078 3.35912C17.1998 4.76459 16.7798 6.40811 16.876 8.06259L17.0967 11.8584L16.6634 17.1428C16.5989 17.929 17.2196 18.6026 18.0084 18.6026C18.7769 18.6026 19.3902 17.9618 19.3566 17.1941L19.1231 11.8584Z" stroke="black" stroke-linecap="round" stroke-linejoin="round"/>
<path d="M1.57983 1.58472V5.47885C1.57983 5.96273 1.80762 6.41838 2.19469 6.70877V6.70877C2.59881 7.01194 2.82821 7.49429 2.80835 7.9991L2.45284 17.0392C2.42345 17.7867 3.02153 18.4088 3.76966 18.4088V18.4088C4.52945 18.4088 5.13185 17.768 5.08498 17.0097L4.52565 7.95868C4.4959 7.47729 4.69717 7.01051 5.06764 6.70169V6.70169C5.4129 6.41389 5.61252 5.98762 5.61252 5.53814V1.58472" stroke="black" stroke-linecap="round" stroke-linejoin="round"/>
<path d="M2.91335 5.36791V1.39746" stroke="black" stroke-linecap="round" stroke-linejoin="round"/>
<path d="M4.27649 5.36791V1.39746" stroke="black" stroke-linecap="round" stroke-linejoin="round"/>
<path d="M17.1379 11.8674H19.037" stroke="black" stroke-linecap="round" stroke-linejoin="round"/>
<path d="M5.70989 4.34802C7.09141 3.06089 8.94463 2.27344 10.9818 2.27344C13.4786 2.27344 15.6991 3.45633 17.1135 5.29228M16.8193 15.0849C15.4011 16.7145 13.3118 17.7446 10.9818 17.7446C8.54733 17.7446 6.37553 16.6201 4.95753 14.8621" stroke="black" stroke-linecap="round" stroke-linejoin="round"/>
<path d="M11.4636 5.80587C10.5224 5.6593 9.5592 5.82776 8.72366 6.28506C7.88812 6.74237 7.22707 7.4629 6.84327 8.33465C6.45946 9.2064 6.37441 10.1805 6.60133 11.1056C6.82825 12.0307 7.35443 12.8549 8.09807 13.45C8.84171 14.0452 9.76116 14.3781 10.7135 14.3968C11.6658 14.4156 12.5976 14.1192 13.3641 13.5537C14.1306 12.9883 14.6888 12.1854 14.952 11.27C15.2151 10.3546 15.1685 9.37785 14.8193 8.49167" stroke="black" stroke-linecap="round" stroke-linejoin="round"/>
</svg>
