<svg width="21" height="20" viewBox="0 0 21 20" fill="none" xmlns="http://www.w3.org/2000/svg">
<path d="M12.6217 8.58545H16.1578" stroke="black" stroke-linecap="round" stroke-linejoin="round"/>
<path d="M12.6217 11.4146H16.1578" stroke="black" stroke-linecap="round" stroke-linejoin="round"/>
<path d="M7.32633 11.4145C8.4981 11.4145 9.44801 10.4646 9.44801 9.29282C9.44801 8.12105 8.4981 7.17114 7.32633 7.17114C6.15456 7.17114 5.20465 8.12105 5.20465 9.29282C5.20465 10.4646 6.15456 11.4145 7.32633 11.4145Z" stroke="black" stroke-linecap="round" stroke-linejoin="round"/>
<path d="M4.58582 13.5362C4.74162 12.9277 5.09551 12.3883 5.59171 12.0032C6.08791 11.618 6.69818 11.4089 7.32632 11.4089C7.95446 11.4089 8.56473 11.618 9.06093 12.0032C9.55712 12.3883 9.91102 12.9277 10.0668 13.5362" stroke="black" stroke-linecap="round" stroke-linejoin="round"/>
<path d="M18.2795 2.92773H2.72053C2.32994 2.92773 2.01331 3.24437 2.01331 3.63496V16.365C2.01331 16.7556 2.32994 17.0723 2.72053 17.0723H18.2795C18.6701 17.0723 18.9867 16.7556 18.9867 16.365V3.63496C18.9867 3.24437 18.6701 2.92773 18.2795 2.92773Z" stroke="black" stroke-linecap="round" stroke-linejoin="round"/>
</svg>
