<svg width="20" height="20" viewBox="0 0 20 20" fill="none" xmlns="http://www.w3.org/2000/svg">
<path d="M14.4937 9.49642L14.4851 7.94818M14.4937 9.49642H19.1156V10.228L19.1154 10.6849H17.4323M14.4937 9.49642H12.9215M17.4323 10.6849H15.7816M17.4323 10.6849L18.1848 15.6995H17.7027L17.2829 15.6931L15.7816 10.6849M15.7816 10.6849H12.9215M0.884521 9.30539V13.628L1.60211 14.3319H12.2037L12.9213 13.628L12.9215 10.6849M0.884521 9.30539C0.884521 8.72147 1.36782 8.24061 1.96834 8.24061M0.884521 9.30539C0.884521 8.71632 1.37818 8.24061 1.96834 8.24061M1.96834 8.24061H2.53691M2.53679 5.15653C2.53679 4.68786 2.92492 4.30078 3.40849 4.30078M2.53679 5.15653C2.53679 4.68245 2.93533 4.30078 3.40849 4.30078M2.53679 5.15653L2.53691 8.24061M3.40849 4.30078H10.3976M10.3976 4.30078C10.8811 4.30078 11.2693 4.68786 11.2693 5.15653M10.3976 4.30078C10.8707 4.30078 11.2693 4.68245 11.2693 5.15653M11.2693 5.15653L11.2691 8.24061M11.8377 8.24061C12.4382 8.24061 12.9215 8.72147 12.9215 9.30539M11.8377 8.24061C12.4278 8.24061 12.9215 8.71606 12.9215 9.30539M11.8377 8.24061H11.2691M12.9215 9.30539L12.9215 9.49642M14.4851 7.94818L13.111 6.59421L13.1169 5.15653H15.8618L15.8676 6.59422L14.4851 7.94818ZM12.9215 10.6849L12.9215 9.49642M2.53691 8.24061L2.53702 10.9145L3.10028 11.4664H10.7058L11.269 10.9145L11.2691 8.24061" stroke="black" stroke-linecap="round" stroke-linejoin="round"/>
<path d="M2.32739 14.3662V15.1362C2.32739 15.4472 2.57952 15.6993 2.89054 15.6993V15.6993C3.20155 15.6993 3.45368 15.4472 3.45368 15.1362V14.3662" stroke="black" stroke-linecap="round" stroke-linejoin="round"/>
<path d="M10.2507 14.3662V15.1362C10.2507 15.4472 10.5029 15.6993 10.8139 15.6993V15.6993C11.1249 15.6993 11.377 15.4472 11.377 15.1362V14.3662" stroke="black" stroke-linecap="round" stroke-linejoin="round"/>
</svg>
