<svg width="20" height="20" viewBox="0 0 20 20" fill="none" xmlns="http://www.w3.org/2000/svg">
<g clip-path="url(#clip0_1_3921)">
<path d="M1.68237 15.7099C2.1575 14.7597 3.68925 12.8594 6.01524 12.8594L9.19865 12.8595H11.1139L14.347 12.8594C16.673 12.8594 18.2047 14.7597 18.6798 15.7099" stroke="black" stroke-linecap="round" stroke-linejoin="round"/>
<path d="M1.68237 9.99997C2.1575 9.04979 3.68925 7.14941 6.01524 7.14941L9.19865 7.14951H11.1139L14.347 7.14941C16.673 7.14941 18.2047 9.04979 18.6798 9.99997" stroke="black" stroke-linecap="round" stroke-linejoin="round"/>
<path d="M1.68237 4.29099C2.1575 3.3408 3.68925 1.44043 6.01524 1.44043L9.19865 1.44053H11.1139L14.347 1.44043C16.673 1.44043 18.2047 3.3408 18.6798 4.29099" stroke="black" stroke-linecap="round" stroke-linejoin="round"/>
<path d="M1.68237 15.71C2.1575 16.6602 3.68925 18.5605 6.01524 18.5605L9.19865 18.5604H11.1139L14.347 18.5605C16.673 18.5605 18.2047 16.6602 18.6798 15.71" stroke="black" stroke-linecap="round" stroke-linejoin="round"/>
<path d="M1.68237 10C2.1575 10.9502 3.68925 12.8506 6.01524 12.8506L9.19865 12.8505H11.1139L14.347 12.8506C16.673 12.8506 18.2047 10.9502 18.6798 10" stroke="black" stroke-linecap="round" stroke-linejoin="round"/>
<path d="M1.68237 4.29104C2.1575 5.24123 3.68925 7.1416 6.01524 7.1416L9.19865 7.1415H11.1139L14.347 7.1416C16.673 7.1416 18.2047 5.24123 18.6798 4.29104" stroke="black" stroke-linecap="round" stroke-linejoin="round"/>
<path d="M0.972656 15.7012H4.67767" stroke="black" stroke-linecap="round" stroke-linejoin="round"/>
<path d="M0.972656 9.99219H3.32757" stroke="black" stroke-linecap="round" stroke-linejoin="round"/>
<path d="M9.36353 15.7012H19.0262" stroke="black" stroke-linecap="round" stroke-linejoin="round"/>
<path d="M16.5146 9.99219L19.0265 9.99219" stroke="black" stroke-linecap="round" stroke-linejoin="round"/>
<path d="M12.5269 9.99219L15.0387 9.99219" stroke="black" stroke-linecap="round" stroke-linejoin="round"/>
<path d="M8.53955 9.99219L11.0514 9.99219" stroke="black" stroke-linecap="round" stroke-linejoin="round"/>
<path d="M4.55176 9.99219L7.06358 9.99219" stroke="black" stroke-linecap="round" stroke-linejoin="round"/>
<path d="M4.03198 5.17871L5.80811 3.40258" stroke="black" stroke-linecap="round" stroke-linejoin="round"/>
<path d="M7.42285 5.1709L9.19898 3.39477" stroke="black" stroke-linecap="round" stroke-linejoin="round"/>
<path d="M10.8135 5.16211L12.5896 3.38598" stroke="black" stroke-linecap="round" stroke-linejoin="round"/>
<path d="M14.2043 5.1543L15.9805 3.37817" stroke="black" stroke-linecap="round" stroke-linejoin="round"/>
<path d="M0.972656 4.2832L19.0264 4.2832" stroke="black" stroke-linecap="round" stroke-linejoin="round"/>
</g>
<defs>
<clipPath id="clip0_1_3921">
<rect width="20" height="20" fill="white"/>
</clipPath>
</defs>
</svg>
