<svg width="21" height="20" viewBox="0 0 21 20" fill="none" xmlns="http://www.w3.org/2000/svg">
<path d="M15.2994 2.14893V3.65783" stroke="black" stroke-linecap="round" stroke-linejoin="round"/>
<path d="M16.6071 4.41217L15.2994 3.65771" stroke="black" stroke-linecap="round" stroke-linejoin="round"/>
<path d="M13.5326 2.76792H12.2752V1.5105" stroke="black" stroke-linecap="round" stroke-linejoin="round"/>
<path d="M13.344 5.61298C13.7308 6.00009 14.2237 6.26378 14.7604 6.3707C15.2971 6.47763 15.8534 6.42297 16.359 6.21366C16.8646 6.00435 17.2968 5.64979 17.6009 5.19482C17.9049 4.73985 18.0672 4.20492 18.0672 3.65769C18.0672 3.11047 17.9049 2.57553 17.6009 2.12056C17.2968 1.66559 16.8646 1.31103 16.359 1.10172C15.8534 0.892406 15.2971 0.837756 14.7604 0.944678C14.2237 1.0516 13.7308 1.31529 13.344 1.7024L12.2752 2.76806" stroke="black" stroke-linecap="round" stroke-linejoin="round"/>
<rect x="2.93291" y="7.37061" width="10.5996" height="10.6935" rx="1" stroke="black" stroke-linecap="round" stroke-linejoin="round"/>
<path d="M5.40092 1.60376V7.37055H11.0659V1.60376H5.40092Z" stroke="black" stroke-linecap="round" stroke-linejoin="round"/>
<path d="M5.39946 3.11768H10.8902" stroke="black" stroke-linecap="round" stroke-linejoin="round"/>
<path d="M5.08794 18.1204V19.1085" stroke="black" stroke-linecap="round" stroke-linejoin="round"/>
<path d="M11.4082 18.1204V19.1085" stroke="black" stroke-linecap="round" stroke-linejoin="round"/>
</svg>
