<svg width="20" height="20" viewBox="0 0 20 20" fill="none" xmlns="http://www.w3.org/2000/svg">
<path d="M17.4931 8.32797C18.4116 8.32797 19.1666 9.08266 19.1666 10.0009M17.4931 8.32797C18.4062 8.32797 19.1666 9.08805 19.1666 10.0009M17.4931 8.32797C17.195 8.32797 16.9132 8.40896 16.6689 8.54982M19.1666 10.0009V14.1623M19.1666 14.1623C19.1666 15.0806 18.4116 15.8353 17.4931 15.8353M19.1666 14.1623C19.1666 15.0752 18.4062 15.8353 17.4931 15.8353M17.4931 15.8353H16.6689M17.4931 15.8353H2.50673M16.6689 15.8353V17.4998M16.6689 15.8353H3.34763M3.34763 15.8353H2.50673M3.34763 15.8353V17.4998M2.50673 15.8353C1.5882 15.8353 0.833252 15.0806 0.833252 14.1623M2.50673 15.8353C1.59359 15.8353 0.833252 15.0752 0.833252 14.1623M0.833252 14.1623V10.0009M0.833252 10.0009C0.833252 9.08266 1.5882 8.32797 2.50673 8.32797M0.833252 10.0009C0.833252 9.08805 1.59359 8.32797 2.50673 8.32797M2.50673 8.32797C2.80481 8.32797 3.0866 8.40896 3.33098 8.54982M3.33098 5.83941C3.33098 4.9212 4.08593 4.1665 5.00446 4.1665M3.33098 5.83941C3.33098 4.92659 4.09132 4.1665 5.00446 4.1665M3.33098 5.83941V8.54982M5.00446 4.1665H8.33477C9.2479 4.1665 10.0082 4.92659 10.0082 5.83941M14.9954 4.1665H11.6651C10.7519 4.1665 10.0082 4.92659 10.0082 5.83941M14.9954 4.1665C15.9139 4.1665 16.6689 4.9212 16.6689 5.83941M14.9954 4.1665C15.9085 4.1665 16.6689 4.92659 16.6689 5.83941M16.6689 5.83941V8.54982M10.0082 5.83941V12.4894M10.0082 12.4894H15.8196M10.0082 12.4894H4.18021M15.8196 12.4894V10.0009C15.8196 9.38602 16.1646 8.84047 16.6689 8.54982M15.8196 12.4894H4.18021M4.18021 12.4894V10.0009C4.18021 9.38602 3.83525 8.84047 3.33098 8.54982" stroke="black" stroke-linecap="round" stroke-linejoin="round"/>
</svg>
