<svg width="21" height="20" viewBox="0 0 21 20" fill="none" xmlns="http://www.w3.org/2000/svg">
<path d="M9.61133 5.0114L9.08072 4.48079C8.71045 4.11053 8.50244 3.60834 8.50244 3.08471V2.90728C8.50244 1.91486 9.30695 1.11035 10.2994 1.11035V1.11035C11.2918 1.11035 12.0963 1.91486 12.0963 2.90728V3.02421C12.0963 3.41353 11.9776 3.79359 11.7559 4.11368L11.1344 5.0114" stroke="black" stroke-linecap="round" stroke-linejoin="round"/>
<path d="M9.04369 7.02034L8.30562 7.15581C7.79059 7.25034 7.33421 7.5456 7.03687 7.97662L6.93612 8.12268C6.3726 8.93958 6.578 10.0586 7.3949 10.6222V10.6222C8.2118 11.1857 9.33086 10.9803 9.89438 10.1634L9.96078 10.0671C10.1818 9.74666 10.2999 9.36639 10.2993 8.97707L10.2974 7.88517" stroke="black" stroke-linecap="round" stroke-linejoin="round"/>
<path d="M11.8963 7.02642L12.6352 7.15707C13.1509 7.24823 13.6092 7.5405 13.9093 7.96958L14.011 8.11497C14.5799 8.92817 14.3818 10.0485 13.5686 10.6174V10.6174C12.7554 11.1862 11.635 10.9882 11.0662 10.175L10.9991 10.0791C10.776 9.76012 10.6554 9.38063 10.6535 8.99132L10.6483 7.89942" stroke="black" stroke-linecap="round" stroke-linejoin="round"/>
<path d="M12.2306 6.79843L12.9666 6.94457C13.4803 7.04654 14.0133 6.94031 14.4486 6.64924L14.5961 6.55061C15.4211 5.99896 15.6426 4.88299 15.091 4.05803V4.05803C14.5393 3.23306 13.4234 3.01149 12.5984 3.56314L12.5012 3.62814C12.1776 3.84455 11.9276 4.15451 11.7848 4.51667L11.384 5.53237" stroke="black" stroke-linecap="round" stroke-linejoin="round"/>
<path d="M8.97749 6.64901L8.32763 7.02421C7.87415 7.28603 7.33524 7.35698 6.82945 7.22145L6.65806 7.17553C5.69946 6.91867 5.13059 5.93335 5.38744 4.97475V4.97475C5.6443 4.01616 6.62962 3.44728 7.58822 3.70414L7.70117 3.7344C8.07722 3.83517 8.4136 4.04822 8.66542 4.34513L9.37168 5.17787" stroke="black" stroke-linecap="round" stroke-linejoin="round"/>
<path d="M10.5 18.8896C11.0408 16.6362 13.3242 11.859 17.0799 12.0692C17.4104 15.4644 13.0492 18.1791 10.5 18.8896Z" stroke="black" stroke-linecap="round" stroke-linejoin="round"/>
<path d="M10.5 18.8896C9.95918 16.6362 7.67578 11.859 3.92012 12.0692C3.58955 15.4644 7.95077 18.1791 10.5 18.8896Z" stroke="black" stroke-linecap="round" stroke-linejoin="round"/>
<path d="M10.5 10.3867V18.7393" stroke="black" stroke-linecap="round" stroke-linejoin="round"/>
<circle cx="10.5001" cy="6.39075" r="1.20178" stroke="black" stroke-linecap="round" stroke-linejoin="round"/>
</svg>
