<svg width="20" height="20" viewBox="0 0 20 20" fill="none" xmlns="http://www.w3.org/2000/svg">
<path d="M15.094 9.24684L17.3814 6.53809" stroke="black" stroke-linecap="round" stroke-linejoin="round"/>
<path d="M15.646 8.43131C14.866 8.2473 13.2535 7.39543 13.043 5.45996C14.6468 5.45996 15.5409 6.03836 16.0668 7.77389" stroke="black" stroke-linecap="round" stroke-linejoin="round"/>
<path d="M9.93979 11.2712C9.7383 10.0353 10.1505 7.4162 13.4111 6.82715" stroke="black" stroke-linecap="round" stroke-linejoin="round"/>
<path d="M17.6046 11.219C17.6309 10.5265 17.3943 8.99955 16.2373 8.43164" stroke="black" stroke-linecap="round" stroke-linejoin="round"/>
<path d="M6.90214 7.59275C7.32285 7.34739 8.3884 7.40593 8.83559 5.82776C9.04417 5.09168 10.1925 4.68799 11.0182 5.46009C11.4389 5.85351 11.6493 6.22219 11.7807 7.35337" stroke="black" stroke-linecap="round" stroke-linejoin="round"/>
<path d="M10.2288 4.99665L10.4453 3.79568" stroke="black" stroke-linecap="round" stroke-linejoin="round"/>
<path d="M13.8328 18.827L6.46745 18.827C6.2716 18.827 6.07985 18.7715 5.92138 18.6564C4.46019 17.5951 1.95459 14.9762 1.95459 11.666H18.0454C18.0454 15.1705 15.237 17.9002 13.8328 18.827Z" stroke="black" stroke-linecap="round" stroke-linejoin="round"/>
<path d="M2.08105 4C2.67096 4.32291 3.92652 5.33101 4.22959 6.78013" stroke="black" stroke-linecap="round" stroke-linejoin="round"/>
<path d="M2.94509 11.4557C2.69064 10.509 2.40259 7.64782 3.91749 7.03786C5.4324 6.4279 6.75179 7.46069 7.36237 8.69463C7.79187 9.56239 8.41421 10.9035 9.62382 11.4557" stroke="black" stroke-linecap="round" stroke-linejoin="round"/>
<path d="M3.57593 5.06563C3.6724 4.42573 3.57593 3.4352 4.86466 2.80413C6.38831 2.05803 6.97717 1.61209 7.38914 1.17383C7.79214 2.61131 7.5937 5.42843 3.57593 5.19703" stroke="black" stroke-linecap="round" stroke-linejoin="round"/>
</svg>
