<svg width="20" height="20" viewBox="0 0 20 20" fill="none" xmlns="http://www.w3.org/2000/svg">
<path d="M18.3805 9.08491V6.86068C17.7583 6.00217 15.5433 4.28516 11.6609 4.28516C9.16376 4.28516 7.42263 4.99544 6.35376 5.73075" stroke="black" stroke-linecap="round" stroke-linejoin="round"/>
<path d="M12.5925 9.0847V8.39245C12.8361 8.22322 13.5104 7.88477 14.2594 7.88477C15.0084 7.88477 15.561 8.22322 15.7436 8.39245V9.0847" stroke="black" stroke-linecap="round" stroke-linejoin="round"/>
<path d="M8.20557 9.0847V8.39245C8.4491 8.22322 9.12342 7.88477 9.8724 7.88477C10.6214 7.88477 11.174 8.22322 11.3567 8.39245V9.0847" stroke="black" stroke-linecap="round" stroke-linejoin="round"/>
<path d="M7.28586 17.931C7.28586 18.1305 7.2066 18.3219 7.06552 18.463C6.92443 18.6041 6.73308 18.6833 6.53356 18.6833C6.33403 18.6833 6.14268 18.6041 6.0016 18.463C5.86051 18.3219 5.78125 18.1305 5.78125 17.931" stroke="black" stroke-linecap="round" stroke-linejoin="round"/>
<path d="M17.7807 17.931C17.7807 18.1305 17.7015 18.3219 17.5604 18.463C17.4193 18.6041 17.228 18.6833 17.0284 18.6833C16.8289 18.6833 16.6376 18.6041 16.4965 18.463C16.3554 18.3219 16.2761 18.1305 16.2761 17.931" stroke="black" stroke-linecap="round" stroke-linejoin="round"/>
<path d="M5.78099 10.3789H17.7804L18.9803 14.5573V17.5785H4.58105V14.5573L5.78099 10.3789Z" stroke="black" stroke-linecap="round" stroke-linejoin="round"/>
<path d="M6.3811 14.8076H17.1805" stroke="black" stroke-linecap="round" stroke-linejoin="round"/>
<path d="M7.28606 6.98744C6.90097 7.1422 6.48041 7.22736 6.03996 7.22736C4.19336 7.22736 2.6964 5.7304 2.6964 3.8838C2.6964 3.44335 2.78157 3.02279 2.93632 2.6377C1.70689 3.13177 0.838867 4.33518 0.838867 5.74133C0.838867 7.58793 2.33583 9.08489 4.18243 9.08489C5.58858 9.08489 6.79199 8.21687 7.28606 6.98744Z" stroke="black" stroke-linecap="round" stroke-linejoin="round"/>
</svg>
