<svg width="21" height="20" viewBox="0 0 21 20" fill="none" xmlns="http://www.w3.org/2000/svg">
<path d="M5.80634 16.6458V12.9521C5.80634 11.5865 6.63838 10.3588 7.90673 9.8528L11.2705 8.51085C12.0866 8.18529 12.6219 7.39536 12.6219 6.51676V5.86809C12.6219 4.66336 11.6453 3.68674 10.4405 3.68674C9.23582 3.68674 8.25919 4.66336 8.25919 5.86809V6.61477C8.25919 7.18354 7.79811 7.64463 7.22933 7.64463H7.03276C6.35543 7.64463 5.80634 7.09554 5.80634 6.4182V5.71745C5.80634 3.42179 7.66734 1.56079 9.96299 1.56079H10.5C13.0923 1.56079 15.1937 3.66222 15.1937 6.25446V16.4137C15.1937 17.5323 14.2869 18.4391 13.1683 18.4391H7.59963C6.60922 18.4391 5.80634 17.6362 5.80634 16.6458Z" stroke="black" stroke-linecap="round" stroke-linejoin="round"/>
<circle cx="10.4997" cy="13.8306" r="2.86279" stroke="black"/>
<path d="M9.3878 14.0115L10.4124 15.0364L11.5876 12.8062" stroke="black" stroke-linecap="round" stroke-linejoin="round"/>
</svg>
