<svg width="20" height="20" viewBox="0 0 20 20" fill="none" xmlns="http://www.w3.org/2000/svg">
<g clip-path="url(#clip0_1_3992)">
<path d="M18.6229 11.8584V1.68652L17.5778 3.35912C16.6996 4.76459 16.2796 6.40811 16.3758 8.06259L16.5965 11.8584L16.1632 17.1428C16.0987 17.929 16.7194 18.6026 17.5082 18.6026C18.2767 18.6026 18.89 17.9618 18.8564 17.1941L18.6229 11.8584Z" stroke="black" stroke-linecap="round" stroke-linejoin="round"/>
<path d="M1.07959 1.58496V5.47909C1.07959 5.96298 1.30738 6.41863 1.69444 6.70901V6.70901C2.09856 7.01218 2.32796 7.49454 2.30811 7.99935L1.9526 17.0394C1.9232 17.787 2.52128 18.4091 3.26942 18.4091V18.4091C4.02921 18.4091 4.6316 17.7683 4.58474 17.0099L4.02541 7.95892C3.99566 7.47753 4.19693 7.01075 4.5674 6.70194V6.70194C4.91266 6.41413 5.11228 5.98787 5.11228 5.53838V1.58496" stroke="black" stroke-linecap="round" stroke-linejoin="round"/>
<path d="M2.41333 5.36791V1.39746" stroke="black" stroke-linecap="round" stroke-linejoin="round"/>
<path d="M3.77637 5.36791V1.39746" stroke="black" stroke-linecap="round" stroke-linejoin="round"/>
<path d="M16.6377 11.8672H18.5367" stroke="black" stroke-linecap="round" stroke-linejoin="round"/>
<path d="M5.20987 4.34802C6.59139 3.06089 8.44462 2.27344 10.4818 2.27344C12.9786 2.27344 15.1991 3.45633 16.6135 5.29228M16.3193 15.0849C14.9011 16.7145 12.8117 17.7446 10.4818 17.7446C8.04731 17.7446 5.87552 16.6201 4.45752 14.8621" stroke="black" stroke-linecap="round" stroke-linejoin="round"/>
<path d="M10.9635 5.80538C10.0223 5.65881 9.05911 5.82727 8.22357 6.28457C7.38803 6.74188 6.72698 7.46241 6.34318 8.33416C5.95937 9.20591 5.87432 10.18 6.10124 11.1051C6.32816 12.0302 6.85434 12.8544 7.59798 13.4496C8.34162 14.0447 9.26106 14.3776 10.2134 14.3963C11.1657 14.4151 12.0975 14.1187 12.864 13.5532C13.6305 12.9878 14.1887 12.1849 14.4519 11.2695C14.715 10.3541 14.6684 9.37736 14.3192 8.49118" stroke="black" stroke-linecap="round" stroke-linejoin="round"/>
</g>
<defs>
<clipPath id="clip0_1_3992">
<rect width="20" height="20" fill="white"/>
</clipPath>
</defs>
</svg>
