<svg width="20" height="20" viewBox="0 0 20 20" fill="none" xmlns="http://www.w3.org/2000/svg">
<path d="M2.82577 11.5791C1.7167 11.4601 1.16393 10.6834 1.0488 9.57896C0.858095 7.74962 1.19302 8.42325 2.64831 7.86562C5.20263 6.8869 6.80017 5.60416 9.74927 6.11614C11.8111 6.47414 13.5317 7.70365 15.4636 8.31608C16.393 8.61071 18.2942 8.60669 18.8701 9.59421C19.6281 10.8938 18.5792 11.4215 17.4679 11.5754" stroke="black" stroke-miterlimit="10" stroke-linecap="round" stroke-linejoin="round"/>
<path d="M6.87842 11.748L13.4106 11.6973" stroke="black" stroke-miterlimit="10" stroke-linecap="round" stroke-linejoin="round"/>
<path d="M18.2402 9.98242C18.1741 9.98088 18.0891 9.97523 18.0017 9.96727C17.345 9.90752 17.2051 9.75755 17.0291 9.42189" stroke="black" stroke-miterlimit="10" stroke-linecap="round" stroke-linejoin="round"/>
<path d="M6.52096 11.3579C6.52096 10.5983 5.90515 9.98246 5.14549 9.98246C4.38586 9.98246 3.77002 10.5983 3.77002 11.3579C3.77002 12.1176 4.38586 12.7334 5.14549 12.7334C5.90515 12.7334 6.52096 12.1176 6.52096 11.3579Z" stroke="black" stroke-miterlimit="10" stroke-linecap="round" stroke-linejoin="round"/>
<path d="M16.51 11.3579C16.51 10.5983 15.8941 9.98246 15.1345 9.98246C14.3748 9.98246 13.759 10.5983 13.759 11.3579C13.759 12.1176 14.3748 12.7334 15.1345 12.7334C15.8941 12.7334 16.51 12.1176 16.51 11.3579Z" stroke="black" stroke-miterlimit="10" stroke-linecap="round" stroke-linejoin="round"/>
<path d="M4.92879 8.45899L12.7679 8.87366C12.9015 8.88248 12.9461 8.68543 12.8236 8.62771C12.5716 8.50884 12.2963 8.37733 12.1087 8.28283C11.2091 7.83033 10.5075 7.54263 9.4151 7.2816C7.75687 6.88537 6.32874 7.75299 4.92879 8.45899Z" stroke="black" stroke-miterlimit="10" stroke-linecap="round" stroke-linejoin="round"/>
<path d="M1.7915 13.5322H18.1065" stroke="black" stroke-miterlimit="10" stroke-linecap="round" stroke-linejoin="round"/>
</svg>
