<svg width="20" height="20" viewBox="0 0 20 20" fill="none" xmlns="http://www.w3.org/2000/svg">
<path d="M18.1401 9.39503H15.4672C15.1128 9.39503 14.7728 9.53583 14.5222 9.78647C14.2716 10.0371 14.1307 10.377 14.1307 10.7315V14.0726C14.1307 14.4271 14.2716 14.767 14.5222 15.0177C14.7728 15.2683 15.1128 15.4091 15.4672 15.4091H16.8037C17.1581 15.4091 17.4981 15.2683 17.7487 15.0177C17.9993 14.767 18.1401 14.4271 18.1401 14.0726V9.39503ZM18.1401 9.39503C18.1402 8.33634 17.9306 7.28813 17.5234 6.31086C17.1163 5.3336 16.5196 4.44663 15.7679 3.70114C15.0162 2.95565 14.1243 2.36639 13.1437 1.96736C12.1631 1.56833 11.1132 1.36743 10.0545 1.37626C8.99659 1.36854 7.94757 1.57026 6.96793 1.96978C5.98829 2.36931 5.09739 2.95874 4.34657 3.70413C3.59576 4.44951 2.99986 5.3361 2.59323 6.31281C2.1866 7.28952 1.97727 8.33705 1.97729 9.39503V14.0726C1.97729 14.4271 2.1181 14.767 2.36874 15.0177C2.61937 15.2683 2.95931 15.4091 3.31376 15.4091H4.65022C5.00467 15.4091 5.3446 15.2683 5.59524 15.0177C5.84588 14.767 5.98668 14.4271 5.98668 14.0726V10.7315C5.98668 10.377 5.84588 10.0371 5.59524 9.78647C5.3446 9.53583 5.00467 9.39503 4.65022 9.39503H1.97729" stroke="black" stroke-linecap="round" stroke-linejoin="round"/>
<path d="M18.1399 14.0723V16.077C18.1399 16.7859 17.8583 17.4657 17.357 17.967C16.8557 18.4683 16.1759 18.7499 15.467 18.7499H10.6641" stroke="black" stroke-linecap="round" stroke-linejoin="round"/>
</svg>
