<svg width="20" height="20" viewBox="0 0 20 20" fill="none" xmlns="http://www.w3.org/2000/svg">
<path d="M2.36084 7.22234V4.64773C2.98844 3.65399 5.36716 1.6665 9.86122 1.6665C14.3553 1.6665 16.9192 3.65399 17.6394 4.64773V7.22234" stroke="black" stroke-linecap="round" stroke-linejoin="round"/>
<path d="M4.79126 7.22246V6.42116C5.1133 6.22527 6.00499 5.8335 6.99541 5.8335C7.98583 5.8335 8.71657 6.22527 8.95814 6.42116V7.22246" stroke="black" stroke-linecap="round" stroke-linejoin="round"/>
<path d="M11.042 7.22246V6.42116C11.364 6.22527 12.2557 5.8335 13.2461 5.8335C14.2366 5.8335 14.9673 6.22527 15.2089 6.42116V7.22246" stroke="black" stroke-linecap="round" stroke-linejoin="round"/>
<path d="M4.7968 17.4621C4.7968 17.6931 4.70505 17.9146 4.54175 18.0779C4.37844 18.2412 4.15694 18.3329 3.92599 18.3329C3.69503 18.3329 3.47354 18.2412 3.31023 18.0779C3.14692 17.9146 3.05518 17.6931 3.05518 17.4621" stroke="black" stroke-linecap="round" stroke-linejoin="round"/>
<path d="M16.9448 17.4621C16.9448 17.6931 16.853 17.9146 16.6897 18.0779C16.5264 18.2412 16.3049 18.3329 16.0739 18.3329C15.843 18.3329 15.6215 18.2412 15.4582 18.0779C15.2949 17.9146 15.2031 17.6931 15.2031 17.4621" stroke="black" stroke-linecap="round" stroke-linejoin="round"/>
<path d="M3.05522 8.72021H16.9448L18.3338 13.5568V17.054H1.66626V13.5568L3.05522 8.72021Z" stroke="black" stroke-linecap="round" stroke-linejoin="round"/>
<path d="M3.75 13.8467H16.2506" stroke="black" stroke-linecap="round" stroke-linejoin="round"/>
</svg>
