<svg width="21" height="21" viewBox="0 0 21 21" fill="none" xmlns="http://www.w3.org/2000/svg">
<path d="M1.77698 18.5894H19.3524" stroke="black" stroke-linecap="round"/>
<path d="M12.9911 7.60794C13.5578 7.26584 14.2011 7.07263 14.883 7.07263C17.1612 7.07263 19.008 9.22905 19.008 11.8891C19.008 14.5492 17.1612 16.7056 14.883 16.7056C12.9518 16.7056 11.3282 15.1843 10.8791 13.092" stroke="black" stroke-linecap="round"/>
<ellipse cx="7.53788" cy="8.14457" rx="5.39335" ry="6.2974" stroke="black" stroke-linecap="round"/>
<path d="M7.53796 18.3967V6.95459" stroke="black" stroke-linecap="round"/>
<path d="M14.8833 18.3968L14.8833 11.5371" stroke="black" stroke-linecap="round"/>
<path d="M9.64487 7.37091L7.53831 9.47746L5.43176 7.37091" stroke="black" stroke-linecap="round"/>
<path d="M9.43633 10.9035L7.53823 12.8016L5.64014 10.9035" stroke="black" stroke-linecap="round"/>
<path d="M16.9249 12.9869L14.8835 15.0282L12.8422 12.9869" stroke="black" stroke-linecap="round"/>
</svg>
