<svg width="21" height="20" viewBox="0 0 21 20" fill="none" xmlns="http://www.w3.org/2000/svg">
<path d="M3.14751 4.39209H1.62158V18.4654H14.6691V11.4097M13.1472 4.39209H14.6691V6.94324" stroke="black" stroke-linecap="round" stroke-linejoin="round"/>
<path d="M9.52371 2.10568C9.88933 2.47129 10.0947 2.96717 10.0947 3.48422L11.7447 3.48422V6.68712H4.59619V3.48422H6.19562C6.19562 2.96717 6.40102 2.47129 6.76663 2.10568C7.13224 1.74007 7.62812 1.53467 8.14517 1.53467C8.66223 1.53467 9.1581 1.74007 9.52371 2.10568Z" stroke="black" stroke-linecap="round" stroke-linejoin="round"/>
<path d="M3.17822 5.94434V15.8782H13.1117V13.882" stroke="black" stroke-linecap="round" stroke-linejoin="round"/>
<path d="M13.3834 12.3024L18.307 7.84952C18.7282 7.46857 18.748 6.81372 18.3506 6.40803L17.5396 5.58022C17.1573 5.19005 16.5327 5.17878 16.1367 5.55489L11.3268 10.1223M13.3834 12.3024L10.2593 13.5572L11.3268 10.1223M13.3834 12.3024L11.3268 10.1223" stroke="black" stroke-linecap="round" stroke-linejoin="round"/>
<circle cx="8.18177" cy="3.40296" r="0.475716" fill="black"/>
<circle cx="8.33119" cy="13.1515" r="0.475716" fill="black"/>
<circle cx="6.17396" cy="13.1515" r="0.475716" fill="black"/>
</svg>
