<svg width="21" height="21" viewBox="0 0 21 21" fill="none" xmlns="http://www.w3.org/2000/svg">
<path d="M1.36287 16.3783C1.11504 14.6432 5.72663 14.39 8.06341 14.4803C5.69206 12.8214 10.1777 12.507 12.7239 12.4517C17.5827 12.3459 22.8652 14.2745 15.1902 16.1072C16.2278 16.1072 18.1572 16.1847 18.0952 17.2692C17.9905 19.1022 1.84042 19.7217 1.36287 16.3783Z" stroke="black" stroke-linecap="round" stroke-linejoin="round"/>
<path d="M5.58899 16.479L6.24352 16.9535C6.63397 17.2366 7.16214 17.2366 7.55259 16.9535V16.9535C7.94304 16.6705 8.4712 16.6705 8.86165 16.9535V16.9535C9.2521 17.2366 9.78027 17.2366 10.1707 16.9535L10.8252 16.479" stroke="black" stroke-linecap="round" stroke-linejoin="round"/>
<path d="M10.5055 14.0952L11.0683 14.5032C11.404 14.7466 11.8582 14.7466 12.1939 14.5032V14.5032C12.5296 14.2598 12.9838 14.2598 13.3195 14.5032V14.5032C13.6553 14.7466 14.1094 14.7466 14.4451 14.5032L15.0079 14.0952" stroke="black" stroke-linecap="round" stroke-linejoin="round"/>
<path d="M7.59644 3.90796L9.30093 7.04529L8.06136 7.85866L9.88181 10.0664" stroke="black" stroke-linecap="round" stroke-linejoin="round"/>
<path d="M13.3604 7.68095L16.5896 5.05298L19.7768 7.68095" stroke="black" stroke-linecap="round" stroke-linejoin="round"/>
<path d="M11.9945 5.36275L13.3052 4.16138L15.2009 5.84608" stroke="black" stroke-linecap="round" stroke-linejoin="round"/>
<path d="M4.77576 6.68517L7.67144 3.90747L15.2365 9.28572" stroke="black" stroke-linecap="round" stroke-linejoin="round"/>
<circle cx="10.6147" cy="2.70894" r="1.03853" stroke="black" stroke-linecap="round" stroke-linejoin="round"/>
<ellipse cx="3.83818" cy="9.56501" rx="2.45903" ry="2.96271" stroke="black" stroke-linecap="round" stroke-linejoin="round"/>
<path d="M3.82241 14.5032L3.83813 8.46558" stroke="black" stroke-linecap="round" stroke-linejoin="round"/>
<path d="M2.51934 9.39282L3.78104 10.7387L5.12683 9.39304" stroke="black" stroke-linecap="round" stroke-linejoin="round"/>
</svg>
