<svg width="21" height="21" viewBox="0 0 21 21" fill="none" xmlns="http://www.w3.org/2000/svg">
<path d="M16.0844 11.3093L16.0674 6.87554C16.0674 3.81487 13.6011 1.36387 10.5649 1.36383M16.0844 11.3093L13.88 11.3092M16.0844 11.3093L16.0673 16.8529M16.0844 11.3093L18.2888 11.3263M19.4192 11.3093L18.2888 11.3263M18.2888 11.3263V19.0727H2.84075V11.3263M1.71033 11.3263L5.04518 11.3093M5.04518 11.3093V6.87552C5.04518 3.81131 7.53005 1.36379 10.5649 1.36383M5.04518 11.3093L7.24961 11.3092M5.04518 11.3093L5.06224 16.8529M7.24961 11.3092V6.96942M7.24961 11.3092V16.8529M7.24961 11.3092L9.45404 11.3263M5.04518 7.81354C8.05403 7.16351 10.5649 4.08011 10.5649 1.36383M10.5649 1.36383C10.5649 4.08009 13.0563 7.16351 16.0707 7.72098M13.88 6.94645V11.3092M13.88 11.3092V16.8529M13.88 11.3092L11.6585 11.3263M9.45404 11.3263V16.8529M9.45404 11.3263H11.6585M11.6585 16.8529V11.3263M2.85781 16.8529L18.2718 16.87" stroke="black" stroke-linecap="round" stroke-linejoin="round"/>
</svg>
