<svg width="21" height="20" viewBox="0 0 21 20" fill="none" xmlns="http://www.w3.org/2000/svg">
<path d="M12.7363 15.5044L11.75 5.25977H18.7369L17.6224 15.5044V19.2767H12.7363V15.5044Z" stroke="black" stroke-linecap="round" stroke-linejoin="round"/>
<path d="M13.3984 7.07373V5.28662" stroke="black" stroke-linecap="round" stroke-linejoin="round"/>
<path d="M15.2061 7.07373V5.28662" stroke="black" stroke-linecap="round" stroke-linejoin="round"/>
<path d="M17.0127 7.07373V5.28662" stroke="black" stroke-linecap="round" stroke-linejoin="round"/>
<path d="M12.8213 17.0415H17.6221" stroke="black" stroke-linecap="round" stroke-linejoin="round"/>
<path d="M11.9951 7.18896L18.4492 7.18896" stroke="black" stroke-linecap="round" stroke-linejoin="round"/>
<path d="M16.4111 17.0415C16.4111 17.1918 16.3815 17.3406 16.324 17.4795C16.2665 17.6184 16.1822 17.7445 16.0759 17.8508C15.9696 17.9571 15.8435 18.0414 15.7046 18.0989C15.5657 18.1564 15.4169 18.186 15.2666 18.186C15.1163 18.186 14.9675 18.1564 14.8286 18.0989C14.6897 18.0414 14.5636 17.9571 14.4573 17.8508C14.351 17.7445 14.2667 17.6184 14.2092 17.4795C14.1517 17.3406 14.1221 17.1918 14.1221 17.0415L15.2666 17.0415H16.4111Z" stroke="black" stroke-linecap="round" stroke-linejoin="round"/>
<rect x="13.6299" y="9.17285" width="3.20843" height="5.25732" rx="1.60421" stroke="black" stroke-linecap="round" stroke-linejoin="round"/>
<rect x="1.96289" y="5.25977" width="8.85059" height="14.0171" rx="3" stroke="black" stroke-linecap="round" stroke-linejoin="round"/>
<rect x="3.99609" y="8.88867" width="4.7837" height="7.57617" rx="2.39185" stroke="black" stroke-linecap="round" stroke-linejoin="round"/>
<path d="M7.57586 0.723633H4.37747C4.19808 0.723633 4.03055 0.813235 3.93097 0.96244C3.76633 1.20912 3.83293 1.54258 4.0797 1.70709L4.35065 1.88773C4.49229 1.98216 4.65872 2.03255 4.82896 2.03255H5.93931L7.3365 1.87935C7.66199 1.84366 7.991 1.89916 8.28678 2.03965L9.42157 2.57869C9.69792 2.70996 10.0281 2.58735 10.1518 2.30754C10.2707 2.03866 10.1542 1.72398 9.88893 1.59731L8.49519 0.93185C8.2081 0.794774 7.89399 0.723633 7.57586 0.723633Z" stroke="black" stroke-linecap="round" stroke-linejoin="round"/>
<rect x="4.42285" y="3.96484" width="3.94824" height="1.29492" stroke="black" stroke-linecap="round" stroke-linejoin="round"/>
<path d="M5.66992 3.92334V2.36523" stroke="black" stroke-linecap="round" stroke-linejoin="round"/>
<path d="M7.12402 3.92334V2.36523" stroke="black" stroke-linecap="round" stroke-linejoin="round"/>
</svg>
