<svg width="21" height="20" viewBox="0 0 21 20" fill="none" xmlns="http://www.w3.org/2000/svg">
<path d="M14.3188 7.54492V12.7811" stroke="black" stroke-linecap="round" stroke-linejoin="round"/>
<path d="M13.3372 6.56372L14.3189 7.54551L15.3007 6.56372" stroke="black" stroke-linecap="round" stroke-linejoin="round"/>
<path d="M13.3372 13.7635L14.3189 12.7817L15.3007 13.7635" stroke="black" stroke-linecap="round" stroke-linejoin="round"/>
<path d="M12.0525 8.85376L16.5851 11.4719" stroke="black" stroke-linecap="round" stroke-linejoin="round"/>
<path d="M10.7104 9.21398L12.0522 8.85399L11.6922 7.51221" stroke="black" stroke-linecap="round" stroke-linejoin="round"/>
<path d="M16.9454 12.8141L16.5854 11.4723L17.9272 11.1123" stroke="black" stroke-linecap="round" stroke-linejoin="round"/>
<path d="M12.0525 11.4719L16.5851 8.85376" stroke="black" stroke-linecap="round" stroke-linejoin="round"/>
<path d="M11.6922 12.8141L12.0522 11.4723L10.7104 11.1123" stroke="black" stroke-linecap="round" stroke-linejoin="round"/>
<path d="M17.9272 9.21398L16.5854 8.85399L16.9454 7.51221" stroke="black" stroke-linecap="round" stroke-linejoin="round"/>
<path d="M4.4996 6.44125C4.13333 8.28755 4.41183 10.1634 6.77622 10.1634C9.14061 10.1634 9.47189 8.28755 9.15757 6.44125M4.4996 6.44125C4.67421 5.56108 4.99535 4.68764 5.30688 4.02734H8.41821C8.71117 4.68764 9.00773 5.56108 9.15757 6.44125M4.4996 6.44125H9.15757" stroke="black" stroke-linecap="round" stroke-linejoin="round"/>
<path d="M6.86279 10.25V15.2191" stroke="black" stroke-linecap="round" stroke-linejoin="round"/>
<path d="M6.86309 15.0342L8.56308 16.7342H5.16309L6.86309 15.0342Z" stroke="black" stroke-linecap="round" stroke-linejoin="round"/>
<rect x="2.00903" y="1.36084" width="17.6819" height="17.2778" rx="3" stroke="black" stroke-linecap="round" stroke-linejoin="round"/>
</svg>
