<svg width="20" height="20" viewBox="0 0 20 20" fill="none" xmlns="http://www.w3.org/2000/svg">
<path d="M14.8558 16.3391L15.347 18.2962M14.8558 16.3391L5.19169 16.4526M14.8558 16.3391C16.2898 15.5767 17.441 14.4957 17.441 12.7321V10.8585M5.19169 16.4526L4.59758 16.0132C3.42289 15.2722 2.62564 14.1715 2.62564 12.7321V10.9182M5.19169 16.4526L4.7308 18.2962M1.70386 10.9219L2.62564 10.9182M18.296 3.51425V10.8551L17.441 10.8585M18.296 3.51425C18.296 2.5795 17.4193 1.7041 16.4858 1.7041M18.296 3.51425C18.296 2.5808 17.4206 1.7041 16.4858 1.7041M16.4858 1.7041C15.8446 1.69581 14.5621 2.06893 14.5621 3.62777M17.441 10.8585L2.62564 10.9182M14.5621 3.62777C14.2892 3.52992 13.9856 3.48083 13.7196 3.48083C13.0285 3.48083 12.0824 3.81554 12.0824 4.46945H15.3562C15.3562 4.06523 14.9984 3.7842 14.5621 3.62777Z" stroke="black" stroke-linecap="round" stroke-linejoin="round"/>
</svg>
