<svg width="20" height="20" viewBox="0 0 20 20" fill="none" xmlns="http://www.w3.org/2000/svg">
<path d="M9.9504 14.3993C8.04895 12.7058 5.38691 8.35622 9.9504 4.50586C14.4584 8.21817 11.9626 12.7875 9.9504 14.3993Z" stroke="black" stroke-linejoin="round"/>
<path d="M10.5077 14.0033C13.0563 13.6135 17.5024 10.9042 15.4545 5.43528C14.4594 5.61352 13.6366 5.90772 12.96 6.28523" stroke="black" stroke-linecap="round" stroke-linejoin="round"/>
<path d="M9.49226 14.0033C6.94374 13.6135 2.49761 10.9042 4.54552 5.43528C5.54059 5.61352 6.36345 5.90772 7.04 6.28523" stroke="black" stroke-linecap="round" stroke-linejoin="round"/>
<path d="M11.476 13.7569C13.3816 14.5 17.5111 14.4023 18.2735 9.83236C17.8034 9.6627 17.3613 9.5505 16.9462 9.48786" stroke="black" stroke-linecap="round" stroke-linejoin="round"/>
<path d="M8.52398 13.7569C6.61836 14.5 2.4889 14.4023 1.72653 9.83236C2.19665 9.6627 2.63867 9.5505 3.05379 9.48786" stroke="black" stroke-linecap="round" stroke-linejoin="round"/>
</svg>
