<svg width="21" height="21" viewBox="0 0 21 21" fill="none" xmlns="http://www.w3.org/2000/svg">
<path d="M5.46445 16.9661C5.46445 17.1982 5.27632 17.3863 5.04424 17.3863C4.81216 17.3863 4.62402 17.1982 4.62402 16.9661C4.62402 16.734 4.81216 16.5459 5.04424 16.5459C5.27632 16.5459 5.46445 16.734 5.46445 16.9661Z" fill="black" stroke="black"/>
<path d="M7.6113 14.8191C7.6113 15.0512 7.42317 15.2394 7.19109 15.2394C6.95901 15.2394 6.77087 15.0512 6.77087 14.8191C6.77087 14.5871 6.95901 14.3989 7.19109 14.3989C7.42317 14.3989 7.6113 14.5871 7.6113 14.8191Z" fill="black" stroke="black"/>
<path d="M3.0106 14.5123C3.0106 14.7443 2.82246 14.9325 2.59038 14.9325C2.3583 14.9325 2.17017 14.7443 2.17017 14.5123C2.17017 14.2802 2.3583 14.092 2.59038 14.092C2.82246 14.092 3.0106 14.2802 3.0106 14.5123Z" fill="black" stroke="black"/>
<path d="M5.15745 12.3653C5.15745 12.5974 4.96931 12.7855 4.73723 12.7855C4.50515 12.7855 4.31702 12.5974 4.31702 12.3653C4.31702 12.1332 4.50515 11.9451 4.73723 11.9451C4.96931 11.9451 5.15745 12.1332 5.15745 12.3653Z" fill="black" stroke="black"/>
<path d="M19.4599 2.54981H17.259C17.1794 2.54953 17.1004 2.56496 17.0268 2.59523C16.9531 2.62549 16.8861 2.66999 16.8296 2.72618L14.5521 5.00372L4.68276 6.64477C4.57104 6.66325 4.46661 6.7123 4.38104 6.78649C4.29548 6.86067 4.23211 6.95709 4.19797 7.06507C4.16383 7.17305 4.16025 7.28837 4.18761 7.39826C4.21498 7.50815 4.27223 7.60832 4.35302 7.68768L11.8681 15.2028C11.9475 15.2836 12.0476 15.3408 12.1575 15.3682C12.2674 15.3955 12.3827 15.3919 12.4907 15.3578C12.5987 15.3237 12.6951 15.2603 12.7693 15.1747C12.8435 15.0892 12.8925 14.9847 12.911 14.873L14.5521 5.00372" stroke="black" stroke-linecap="round" stroke-linejoin="round"/>
</svg>
