<svg width="21" height="20" viewBox="0 0 21 20" fill="none" xmlns="http://www.w3.org/2000/svg">
<g clip-path="url(#clip0_104_12663)">
<path d="M19.473 11.8584V1.68652L18.4279 3.35912C17.5497 4.76459 17.1297 6.40811 17.2259 8.06259L17.4466 11.8584L17.0133 17.1428C16.9488 17.929 17.5695 18.6026 18.3583 18.6026C19.1268 18.6026 19.7401 17.9618 19.7065 17.1941L19.473 11.8584Z" stroke="black" stroke-linecap="round" stroke-linejoin="round"/>
<path d="M1.92969 1.58472V5.47885C1.92969 5.96273 2.15747 6.41838 2.54454 6.70877V6.70877C2.94866 7.01194 3.17806 7.49429 3.15821 7.9991L2.8027 17.0392C2.7733 17.7867 3.37138 18.4088 4.11951 18.4088V18.4088C4.8793 18.4088 5.4817 17.768 5.43484 17.0097L4.87551 7.95868C4.84576 7.47729 5.04702 7.01051 5.4175 6.70169V6.70169C5.76276 6.41389 5.96237 5.98762 5.96237 5.53814V1.58472" stroke="black" stroke-linecap="round" stroke-linejoin="round"/>
<path d="M3.26343 5.36791V1.39746" stroke="black" stroke-linecap="round" stroke-linejoin="round"/>
<path d="M4.62646 5.36791V1.39746" stroke="black" stroke-linecap="round" stroke-linejoin="round"/>
<path d="M17.4878 11.8674H19.3868" stroke="black" stroke-linecap="round" stroke-linejoin="round"/>
<path d="M6.05997 4.34802C7.44149 3.06089 9.29471 2.27344 11.3319 2.27344C13.8287 2.27344 16.0492 3.45633 17.4635 5.29228M17.1694 15.0849C15.7512 16.7145 13.6618 17.7446 11.3319 17.7446C8.89741 17.7446 6.72562 16.6201 5.30762 14.8621" stroke="black" stroke-linecap="round" stroke-linejoin="round"/>
<path d="M11.8136 5.80587C10.8724 5.6593 9.9092 5.82776 9.07367 6.28506C8.23813 6.74237 7.57708 7.4629 7.19327 8.33465C6.80947 9.2064 6.72442 10.1805 6.95134 11.1056C7.17826 12.0307 7.70444 12.8549 8.44808 13.45C9.19172 14.0452 10.1112 14.3781 11.0635 14.3968C12.0158 14.4156 12.9476 14.1192 13.7141 13.5537C14.4806 12.9883 15.0388 12.1854 15.302 11.27C15.5651 10.3546 15.5185 9.37785 15.1693 8.49167" stroke="black" stroke-linecap="round" stroke-linejoin="round"/>
</g>
<defs>
<clipPath id="clip0_104_12663">
<rect width="20" height="20" fill="white" transform="translate(0.850098)"/>
</clipPath>
</defs>
</svg>
