<svg width="20" height="21" viewBox="0 0 20 21" fill="none" xmlns="http://www.w3.org/2000/svg">
<g clip-path="url(#clip0_1_4179)">
<path d="M13.5536 9.11671H6.44679M13.5536 9.11671V6.67756M13.5536 9.11671V11.0782M13.5536 6.67756C13.5536 5.87005 12.9037 5.21545 12.102 5.21545M13.5536 6.67756C13.5536 5.86604 12.9076 5.21545 12.102 5.21545M13.5536 6.67756L13.5606 14.9795M12.102 5.21545C11.3003 5.21545 10.6505 5.87008 10.6505 6.67756M12.102 5.21545C11.2965 5.21545 10.6505 5.86606 10.6505 6.67756M10.6505 6.67756V7.49178M13.5606 14.9795H19.3777M13.5606 14.9795L13.5536 13.0324M13.5606 14.9795L6.43971 14.9867M13.5606 14.9795L13.5536 16.9408M19.373 16.9399C18.4094 16.9399 17.4479 17.5852 16.4675 17.5852C15.3853 17.5852 14.6386 16.9408 13.5536 16.9408M13.5536 16.9408C12.4739 16.9408 11.086 17.5924 10.0056 17.5924C8.82073 17.5924 7.63334 16.9628 6.43971 16.9326M0.619141 16.9471C1.58656 16.9471 2.55366 17.5924 3.54042 17.5924C4.55854 17.5924 5.45309 17.0681 6.43971 16.9326M6.43971 16.9326V14.9867M6.43971 14.9867H0.622679M6.43971 14.9867L6.43956 6.67756M6.43971 14.9867L6.44679 13.0324M6.43956 6.67756C6.43956 5.87008 5.78974 5.21545 4.98811 5.21545M6.43956 6.67756C6.43956 5.86606 5.79361 5.21545 4.98811 5.21545M6.43956 6.67756L6.44679 9.11671M4.98811 5.21545C4.18635 5.21545 3.5365 5.87005 3.5365 6.67756M4.98811 5.21545C4.18247 5.21545 3.5365 5.86604 3.5365 6.67756M3.5365 6.67756V7.49186M6.44679 9.11671V11.0782M13.5536 13.0324H6.44679M13.5536 13.0324V11.0782M6.44679 13.0324V11.0782M13.5536 11.0782H6.44679M19.3812 18.8936C18.4146 18.8936 17.4506 19.5394 16.4675 19.5394C15.3845 19.5394 14.3152 18.888 13.231 18.888C12.152 18.888 11.087 19.5467 10.0055 19.5467C8.91934 19.5467 7.84834 18.895 6.76385 18.895C5.68487 18.895 4.62027 19.5467 3.54042 19.5467C2.55368 19.5467 1.5866 18.9013 0.619141 18.9013" stroke="black" stroke-linecap="round" stroke-linejoin="round"/>
<path d="M0.65918 4.63135L10.0057 2.21826L19.262 4.63135" stroke="black" stroke-linecap="round" stroke-linejoin="round"/>
</g>
<defs>
<clipPath id="clip0_1_4179">
<rect width="20" height="20" fill="white" transform="translate(0 0.729492)"/>
</clipPath>
</defs>
</svg>
