<svg width="20" height="20" viewBox="0 0 20 20" fill="none" xmlns="http://www.w3.org/2000/svg">
<path d="M17.5015 11.3478C17.5015 10.4432 17.3074 9.54747 16.9304 8.71174C16.5534 7.87601 16.0008 7.11665 15.3041 6.47701C14.6075 5.83737 13.7805 5.32998 12.8703 4.98381C11.96 4.63764 10.9845 4.45947 9.99928 4.45947C9.01408 4.45947 8.03852 4.63764 7.12831 4.98381C6.2181 5.32998 5.39106 5.83737 4.69442 6.47701C3.99777 7.11665 3.44516 7.87601 3.06814 8.71174C2.69112 9.54747 2.49707 10.4432 2.49707 11.3478L17.5015 11.3478Z" stroke="black"/>
<path d="M0.780762 11.3481H19.2187" stroke="black" stroke-linecap="round" stroke-linejoin="round"/>
<path d="M10 4.39853V3.29785" stroke="black" stroke-linecap="round" stroke-linejoin="round"/>
<path d="M8.52881 2.83545H11.4707" stroke="black" stroke-linecap="round" stroke-linejoin="round"/>
<path d="M7.30127 17.1646H12.6973" stroke="black" stroke-linecap="round" stroke-linejoin="round"/>
<path d="M3.23486 13.1362H16.9863" stroke="black" stroke-linecap="round" stroke-linejoin="round"/>
<path d="M9.14135 17.1645L7.25464 13.1362" stroke="black" stroke-linecap="round" stroke-linejoin="round"/>
<path d="M10.8579 17.1645L12.7446 13.1362" stroke="black" stroke-linecap="round" stroke-linejoin="round"/>
</svg>
