<svg width="20" height="20" viewBox="0 0 20 20" fill="none" xmlns="http://www.w3.org/2000/svg">
<path d="M19.1664 9.41416C19.1664 11.3524 15.0625 12.3791 10.0002 12.3791C4.93783 12.3791 0.833984 11.3524 0.833984 9.41416C0.833984 7.47591 4.93783 6.44922 10.0002 6.44922C15.0625 6.44922 19.1664 7.47591 19.1664 9.41416Z" stroke="black"/>
<path d="M0.833984 9.58887V15.1937C0.833984 16.7481 4.93783 18.0083 10.0002 18.0083C15.0625 18.0083 19.1664 16.7481 19.1664 15.1937V9.58887" stroke="black"/>
<path d="M3.25293 17.0584L3.25293 11.6719" stroke="black" stroke-linecap="round"/>
<path d="M6.50146 17.7857V12.3794" stroke="black" stroke-linecap="round"/>
<path d="M9.95532 17.7857V12.3794" stroke="black" stroke-linecap="round"/>
<path d="M13.4866 17.7857V12.3794" stroke="black" stroke-linecap="round"/>
<path d="M16.6038 17.1094V11.7031" stroke="black" stroke-linecap="round"/>
<path d="M12.0371 5.91485L12.0371 1.15771" stroke="black" stroke-linecap="round"/>
<path d="M7.52417 5.91485L7.52417 1.15771" stroke="black" stroke-linecap="round"/>
<path d="M8.16158 3.03564L11.3843 3.03564" stroke="black" stroke-linecap="round"/>
<path d="M8.16158 4.91016H11.3843" stroke="black" stroke-linecap="round"/>
<path d="M3.83862 1.65088C3.48254 1.91977 2.9186 2.65373 3.51154 3.43844C4.10449 4.22314 3.7586 5.0878 3.51154 5.42204" stroke="black" stroke-linecap="round"/>
<path d="M16.5394 1.14495C16.8606 1.45468 17.3322 2.2511 16.6493 2.95886C15.9664 3.66663 16.2058 4.56658 16.4109 4.92808" stroke="black" stroke-linecap="round"/>
<path d="M14.89 3.21898C14.6318 3.3937 14.4789 3.71675 14.7672 4.14118C15.0554 4.56561 15.0826 4.92771 14.9144 5.12195" stroke="black" stroke-linecap="round"/>
<path d="M10.3931 8.90838C10.1032 8.5548 9.4633 8.30447 8.46602 8.5836C7.46874 8.86273 6.68795 8.82893 6.32763 8.5836" stroke="black" stroke-linecap="round"/>
<path d="M13.2183 10.3649C12.9284 10.0113 12.2885 9.76101 11.2912 10.0401C10.2939 10.3193 9.51315 10.2855 9.15283 10.0401" stroke="black" stroke-linecap="round"/>
</svg>
