<svg width="21" height="21" viewBox="0 0 21 21" fill="none" xmlns="http://www.w3.org/2000/svg">
<path d="M16.0844 11.3278L16.0674 6.89404C16.0674 3.83336 13.6011 1.38237 10.5649 1.38232M16.0844 11.3278L13.88 11.3277M16.0844 11.3278L16.0673 16.8714M16.0844 11.3278L18.2888 11.3448M19.4192 11.3278L18.2888 11.3448M18.2888 11.3448V19.0912H2.84075V11.3448M1.71033 11.3448L5.04518 11.3278M5.04518 11.3278V6.89401C5.04518 3.8298 7.53005 1.38228 10.5649 1.38232M5.04518 11.3278L7.24961 11.3277M5.04518 11.3278L5.06224 16.8714M7.24961 11.3277V6.98791M7.24961 11.3277V16.8714M7.24961 11.3277L9.45404 11.3448M5.04518 7.83204C8.05403 7.182 10.5649 4.09861 10.5649 1.38232M10.5649 1.38232C10.5649 4.09859 13.0563 7.182 16.0707 7.73948M13.88 6.96494V11.3277M13.88 11.3277V16.8714M13.88 11.3277L11.6585 11.3448M9.45404 11.3448V16.8714M9.45404 11.3448H11.6585M11.6585 16.8714V11.3448M2.85781 16.8714L18.2718 16.8885" stroke="black" stroke-linecap="round" stroke-linejoin="round"/>
</svg>
