<svg width="20" height="20" viewBox="0 0 20 20" fill="none" xmlns="http://www.w3.org/2000/svg">
<circle cx="10" cy="10" r="9.40186" stroke="black"/>
<path d="M4.582 8.054C4.458 8.054 4.354 8.026 4.27 7.97C4.186 7.91 4.134 7.83 4.114 7.73C4.094 7.626 4.112 7.51 4.168 7.382L5.662 4.166C5.734 4.01 5.822 3.896 5.926 3.824C6.034 3.752 6.156 3.716 6.292 3.716C6.428 3.716 6.546 3.752 6.646 3.824C6.75 3.896 6.84 4.01 6.916 4.166L8.41 7.382C8.474 7.51 8.496 7.626 8.476 7.73C8.46 7.834 8.41 7.914 8.326 7.97C8.246 8.026 8.146 8.054 8.026 8.054C7.866 8.054 7.742 8.018 7.654 7.946C7.57 7.874 7.494 7.758 7.426 7.598L7.102 6.836L7.522 7.142H5.05L5.476 6.836L5.152 7.598C5.08 7.758 5.006 7.874 4.93 7.946C4.854 8.018 4.738 8.054 4.582 8.054ZM6.28 4.922L5.584 6.584L5.416 6.296H7.162L6.994 6.584L6.292 4.922H6.28ZM9.51817 8C9.34217 8 9.20417 7.952 9.10417 7.856C9.00817 7.756 8.96017 7.618 8.96017 7.442V4.322C8.96017 4.142 9.00817 4.004 9.10417 3.908C9.20017 3.812 9.33617 3.764 9.51217 3.764C9.69217 3.764 9.82817 3.812 9.92017 3.908C10.0162 4.004 10.0642 4.142 10.0642 4.322V7.082H11.5282C11.6802 7.082 11.7962 7.122 11.8762 7.202C11.9602 7.278 12.0022 7.39 12.0022 7.538C12.0022 7.686 11.9602 7.8 11.8762 7.88C11.7962 7.96 11.6802 8 11.5282 8H9.51817ZM13.0279 8C12.8519 8 12.7139 7.952 12.6139 7.856C12.5179 7.756 12.4699 7.618 12.4699 7.442V4.322C12.4699 4.142 12.5179 4.004 12.6139 3.908C12.7099 3.812 12.8459 3.764 13.0219 3.764C13.2019 3.764 13.3379 3.812 13.4299 3.908C13.5259 4.004 13.5739 4.142 13.5739 4.322V7.082H15.0379C15.1899 7.082 15.3059 7.122 15.3859 7.202C15.4699 7.278 15.5119 7.39 15.5119 7.538C15.5119 7.686 15.4699 7.8 15.3859 7.88C15.3059 7.96 15.1899 8 15.0379 8H13.0279Z" fill="black"/>
<path d="M5.91 16.08C5.70333 16.08 5.54333 16.0233 5.43 15.91C5.32333 15.79 5.27 15.6267 5.27 15.42V9.53C5.27 9.31667 5.32333 9.15333 5.43 9.04C5.54333 8.92667 5.70333 8.87 5.91 8.87C6.11667 8.87 6.27333 8.92667 6.38 9.04C6.49333 9.15333 6.55 9.31667 6.55 9.53V15.42C6.55 15.6267 6.49667 15.79 6.39 15.91C6.28333 16.0233 6.12333 16.08 5.91 16.08ZM8.69227 16.08C8.49893 16.08 8.34893 16.0267 8.24227 15.92C8.14227 15.8133 8.09227 15.66 8.09227 15.46V9.51C8.09227 9.30333 8.14227 9.14667 8.24227 9.04C8.34893 8.92667 8.4856 8.87 8.65227 8.87C8.8056 8.87 8.91893 8.9 8.99227 8.96C9.07227 9.01333 9.1656 9.10667 9.27227 9.24L13.1023 14.21H12.8423V9.48C12.8423 9.28667 12.8923 9.13667 12.9923 9.03C13.0989 8.92333 13.2489 8.87 13.4423 8.87C13.6356 8.87 13.7823 8.92333 13.8823 9.03C13.9823 9.13667 14.0323 9.28667 14.0323 9.48V15.48C14.0323 15.6667 13.9856 15.8133 13.8923 15.92C13.7989 16.0267 13.6723 16.08 13.5123 16.08C13.3589 16.08 13.2356 16.05 13.1423 15.99C13.0556 15.93 12.9589 15.8333 12.8523 15.7L9.03227 10.73H9.28227V15.46C9.28227 15.66 9.23227 15.8133 9.13227 15.92C9.03227 16.0267 8.8856 16.08 8.69227 16.08Z" fill="black"/>
</svg>
