<svg width="20" height="20" viewBox="0 0 20 20" fill="none" xmlns="http://www.w3.org/2000/svg">
<path d="M18.1399 9.39503H15.467C15.1125 9.39503 14.7726 9.53583 14.5219 9.78647C14.2713 10.0371 14.1305 10.377 14.1305 10.7315V14.0726C14.1305 14.4271 14.2713 14.767 14.5219 15.0177C14.7726 15.2683 15.1125 15.4091 15.467 15.4091H16.8034C17.1579 15.4091 17.4978 15.2683 17.7484 15.0177C17.9991 14.767 18.1399 14.4271 18.1399 14.0726V9.39503ZM18.1399 9.39503C18.1399 8.33634 17.9303 7.28813 17.5232 6.31086C17.116 5.3336 16.5194 4.44663 15.7677 3.70114C15.016 2.95565 14.1241 2.36639 13.1435 1.96736C12.1629 1.56833 11.1129 1.36743 10.0543 1.37626C8.99634 1.36854 7.94732 1.57026 6.96768 1.96978C5.98804 2.36931 5.09715 2.95874 4.34633 3.70413C3.59551 4.44951 2.99962 5.3361 2.59299 6.31281C2.18636 7.28952 1.97702 8.33705 1.97705 9.39503V14.0726C1.97705 14.4271 2.11786 14.767 2.36849 15.0177C2.61913 15.2683 2.95906 15.4091 3.31351 15.4091H4.64997C5.00443 15.4091 5.34436 15.2683 5.595 15.0177C5.84563 14.767 5.98644 14.4271 5.98644 14.0726V10.7315C5.98644 10.377 5.84563 10.0371 5.595 9.78647C5.34436 9.53583 5.00443 9.39503 4.64997 9.39503H1.97705" stroke="black" stroke-linecap="round" stroke-linejoin="round"/>
<path d="M18.14 14.0723V16.077C18.14 16.7859 17.8584 17.4657 17.3571 17.967C16.8559 18.4683 16.176 18.7499 15.4671 18.7499H10.6642" stroke="black" stroke-linecap="round" stroke-linejoin="round"/>
</svg>
