<svg width="20" height="20" viewBox="0 0 20 20" fill="none" xmlns="http://www.w3.org/2000/svg">
<path d="M5.3064 16.646V12.9523C5.3064 11.5868 6.13844 10.359 7.40679 9.85304L10.7706 8.51109C11.5866 8.18554 12.122 7.3956 12.122 6.517V5.86834C12.122 4.66361 11.1453 3.68698 9.94061 3.68698C8.73588 3.68698 7.75925 4.66361 7.75925 5.86834V6.61501C7.75925 7.18379 7.29817 7.64487 6.72939 7.64487H6.53282C5.85549 7.64487 5.3064 7.09578 5.3064 6.41844V5.71769C5.3064 3.42203 7.1674 1.56104 9.46306 1.56104H10.0001C12.5923 1.56104 14.6937 3.66247 14.6937 6.25471V16.4139C14.6937 17.5325 13.7869 18.4393 12.6683 18.4393H7.09969C6.10928 18.4393 5.3064 17.6364 5.3064 16.646Z" stroke="black" stroke-linecap="round" stroke-linejoin="round"/>
<circle cx="9.99976" cy="13.8306" r="2.86279" stroke="black"/>
<path d="M8.88786 14.012L9.91243 15.0369L11.0877 12.8066" stroke="black" stroke-linecap="round" stroke-linejoin="round"/>
</svg>
