<svg width="22" height="20" viewBox="0 0 22 20" fill="none" xmlns="http://www.w3.org/2000/svg">
<path d="M8.53687 14.2156C9.19938 13.58 10.082 13.2251 11.0001 13.2251C11.9182 13.2251 12.8008 13.58 13.4633 14.2156" stroke="black" stroke-linecap="round" stroke-linejoin="round"/>
<path d="M6.15747 11.8294C7.45252 10.5657 9.19026 9.8584 10.9997 9.8584C12.8091 9.8584 14.5468 10.5657 15.8419 11.8294" stroke="black" stroke-linecap="round" stroke-linejoin="round"/>
<path d="M3.77881 9.45092C5.70366 7.55405 8.29758 6.49072 11 6.49072C13.7025 6.49072 16.2964 7.55405 18.2212 9.45092" stroke="black" stroke-linecap="round" stroke-linejoin="round"/>
<path d="M1.41895 6.49047C3.97277 3.97377 7.41429 2.56299 10.9998 2.56299C14.5853 2.56299 18.0268 3.97377 20.5806 6.49047" stroke="black" stroke-linecap="round" stroke-linejoin="round"/>
<path d="M10.9996 17.4367C11.4647 17.4367 11.8417 17.0597 11.8417 16.5946C11.8417 16.1295 11.4647 15.7524 10.9996 15.7524C10.5345 15.7524 10.1575 16.1295 10.1575 16.5946C10.1575 17.0597 10.5345 17.4367 10.9996 17.4367Z" fill="black"/>
</svg>
