<svg width="21" height="20" viewBox="0 0 21 20" fill="none" xmlns="http://www.w3.org/2000/svg">
<rect x="1.40991" y="8.06689" width="6.96436" height="1.11429" rx="0.557145" stroke="black"/>
<rect x="12.6257" y="8.06689" width="6.96436" height="1.11429" rx="0.557145" stroke="black"/>
<path d="M2.14331 9.18115C2.37529 11.7347 4.36406 16.8417 10.4633 16.8417C16.5625 16.8417 18.6249 11.7347 18.8937 9.18115" stroke="black" stroke-linecap="round" stroke-linejoin="round"/>
<path d="M7.55811 9.23071C7.83907 10.8925 9.39309 14.1297 13.3224 14.1297C17.2516 14.1297 18.6655 10.8925 18.8732 9.23074" stroke="black" stroke-linecap="round" stroke-linejoin="round"/>
<path d="M13.411 9.22192C13.1384 11.0656 12.3866 12.4902 10.4719 13.3713" stroke="black" stroke-linecap="round" stroke-linejoin="round"/>
<path d="M2.06421 8.06702C3.15059 7.69821 4.54282 6.68127 4.92778 4.68896" stroke="black" stroke-linecap="round" stroke-linejoin="round"/>
<path d="M13.2444 8.06702C14.3308 7.69821 15.723 6.68127 16.108 4.68896" stroke="black" stroke-linecap="round" stroke-linejoin="round"/>
<path d="M7.79126 8.06702C6.70488 7.69821 5.31264 6.68127 4.92769 4.68896" stroke="black" stroke-linecap="round" stroke-linejoin="round"/>
<path d="M18.9714 8.06702C17.8851 7.69821 16.4928 6.68127 16.1079 4.68896" stroke="black" stroke-linecap="round" stroke-linejoin="round"/>
<path d="M4.92993 4.69595V3.1582" stroke="black" stroke-linecap="round" stroke-linejoin="round"/>
<path d="M16.1106 4.69595V3.1582" stroke="black" stroke-linecap="round" stroke-linejoin="round"/>
</svg>
