<svg width="21" height="20" viewBox="0 0 21 20" fill="none" xmlns="http://www.w3.org/2000/svg">
<path d="M7.27148 11.8712L10.5005 10.0987V5.03369" stroke="black" stroke-linecap="round" stroke-linejoin="round"/>
<path d="M3.93853 15.9357C2.36435 14.1954 1.54598 11.9011 1.66343 9.55738C1.78089 7.21372 2.82455 5.0127 4.56483 3.43853C6.3051 1.86436 8.59944 1.04598 10.9431 1.16343C13.2868 1.28089 15.4878 2.32455 17.062 4.06482" stroke="black" stroke-linecap="round"/>
<path d="M16.7567 3.74383C17.5918 4.57894 18.2512 5.57278 18.6962 6.66678C19.1411 7.76077 19.3626 8.93278 19.3474 10.1137C19.3323 11.2946 19.0809 12.4606 18.608 13.5428C18.1351 14.625 17.4504 15.6016 16.5942 16.415C15.7379 17.2284 14.7275 17.8622 13.6224 18.279C12.5174 18.6957 11.3401 18.887 10.16 18.8416C8.97981 18.7962 7.8207 18.5149 6.75096 18.0145C5.68122 17.514 4.72249 16.8045 3.9313 15.9277" stroke="black" stroke-linecap="round" stroke-dasharray="2 2"/>
<path d="M17.5271 3.21284C17.4428 3.64226 17.4204 4.52124 17.4204 4.52124H16.0635" stroke="black" stroke-linecap="round" stroke-linejoin="round"/>
<circle cx="10.5005" cy="10.0005" r="1" fill="black"/>
</svg>
