<svg width="21" height="20" viewBox="0 0 21 20" fill="none" xmlns="http://www.w3.org/2000/svg">
<path d="M19.1985 5.83331L15.7606 9.07262M15.7606 9.07262C15.4302 10.6371 15.0734 14.2816 16.2897 16.3442C14.7421 16.0687 14.1137 14.8119 13.5792 13.2372C13.4082 14.0016 13.0663 15.6932 13.0663 16.3442C12.061 15.9011 11.0137 15.189 10.7205 14.8538C10.7203 14.0578 10.9576 13.4294 11.2228 12.8848L9.54702 13.974C8.0536 12.4151 6.38988 11.8856 6.19604 9.36576L13.8205 7.35487C14.0945 7.92745 14.8662 9.07262 15.7606 9.07262ZM19.1985 2.95605L14.7841 6.68457" stroke="black" stroke-linecap="round" stroke-linejoin="round"/>
<path d="M6.05532 7.66087C6.26833 7.02275 7.0044 6.21516 8.25513 6.7736" stroke="black" stroke-linecap="round" stroke-linejoin="round"/>
<path d="M2.64385 13.9851C2.26473 13.7346 1.86647 13.1131 2.44953 12.3946" stroke="black" stroke-linecap="round" stroke-linejoin="round"/>
<path d="M10.8378 16.8023C10.643 17.2129 10.0838 17.6947 9.29045 17.2185" stroke="black" stroke-linecap="round" stroke-linejoin="round"/>
<path d="M4.41417 9.05358C4.25175 9.00847 4.08107 9.00173 3.91561 9.0339C3.75014 9.06607 3.59442 9.13626 3.46073 9.23894C3.32705 9.34161 3.21906 9.47396 3.1453 9.62553C3.07153 9.7771 3.03401 9.94374 3.0357 10.1123C3.03738 10.2808 3.07823 10.4467 3.15501 10.5968C3.23179 10.7468 3.3424 10.877 3.47811 10.977C3.61382 11.077 3.77092 11.144 3.937 11.1729C4.10307 11.2017 4.27358 11.1916 4.43506 11.1432" stroke="black" stroke-linecap="round" stroke-linejoin="round"/>
<path d="M4.85519 6.27832C4.79157 6.17176 4.70406 6.08144 4.59955 6.0145C4.49505 5.94756 4.37641 5.90583 4.25301 5.8926C4.12961 5.87937 4.00482 5.89501 3.8885 5.93828C3.77219 5.98156 3.66752 6.05128 3.58277 6.14194C3.49801 6.2326 3.4355 6.34172 3.40015 6.46069C3.36481 6.57966 3.3576 6.70521 3.3791 6.82744C3.4006 6.94968 3.45022 7.06523 3.52405 7.165C3.59787 7.26476 3.69387 7.346 3.80448 7.40229" stroke="black" stroke-linecap="round" stroke-linejoin="round"/>
<path d="M5.70202 12.8416C5.43044 12.9069 5.17777 13.0344 4.96394 13.2141C4.75012 13.3939 4.581 13.6208 4.46994 13.8771C4.35888 14.1334 4.30891 14.412 4.32399 14.6909C4.33907 14.9698 4.41878 15.2414 4.55682 15.4843C4.69487 15.7271 4.88747 15.9345 5.11943 16.0901C5.35138 16.2457 5.61634 16.3453 5.89337 16.381C6.17041 16.4166 6.45194 16.3874 6.71574 16.2956C6.97954 16.2038 7.21839 16.0519 7.41342 15.8519" stroke="black" stroke-linecap="round" stroke-linejoin="round"/>
</svg>
