<svg width="21" height="20" viewBox="0 0 21 20" fill="none" xmlns="http://www.w3.org/2000/svg">
<path d="M1.71191 18.3711H19.2873" stroke="black" stroke-linecap="round"/>
<path d="M12.9259 7.3898C13.4926 7.0477 14.1359 6.85449 14.8178 6.85449C17.096 6.85449 18.9429 9.01091 18.9429 11.671C18.9429 14.3311 17.096 16.4875 14.8178 16.4875C12.8866 16.4875 11.263 14.9662 10.814 12.8738" stroke="black" stroke-linecap="round"/>
<ellipse cx="7.47294" cy="7.92631" rx="5.39335" ry="6.2974" stroke="black" stroke-linecap="round"/>
<path d="M7.47314 18.1785V6.73633" stroke="black" stroke-linecap="round"/>
<path d="M14.8184 18.1785L14.8184 11.3188" stroke="black" stroke-linecap="round"/>
<path d="M9.5798 7.15259L7.47325 9.25914L5.3667 7.15259" stroke="black" stroke-linecap="round"/>
<path d="M9.37139 10.6853L7.47329 12.5834L5.5752 10.6853" stroke="black" stroke-linecap="round"/>
<path d="M16.8601 12.7686L14.8187 14.8099L12.7773 12.7686" stroke="black" stroke-linecap="round"/>
</svg>
