<svg width="21" height="20" viewBox="0 0 21 20" fill="none" xmlns="http://www.w3.org/2000/svg">
<path d="M10.6 17.7063H18.5027C18.9895 17.7063 19.3841 17.3117 19.3841 16.825V16.825C19.3841 16.3382 18.9895 15.9436 18.5027 15.9436H6.6927H5.09408" stroke="black" stroke-linecap="round"/>
<path d="M4.37305 15.5946L8.21785 5.21704" stroke="black" stroke-linecap="round"/>
<path d="M2.76953 15.5946L6.61434 5.21704" stroke="black" stroke-linecap="round"/>
<path d="M9.70156 17.2369H7.38692C6.77478 17.2369 6.19279 16.9711 5.79194 16.5085C5.39109 16.0458 4.80911 15.78 4.19696 15.78H3.2422C2.34365 15.78 1.61523 16.5084 1.61523 17.407C1.61523 18.3055 2.34365 19.034 3.2422 19.034H9.70156C10.1978 19.034 10.6001 18.6317 10.6001 18.1354C10.6001 17.6392 10.1978 17.2369 9.70156 17.2369Z" stroke="black" stroke-linecap="round"/>
<rect x="5.48926" y="3.43848" width="7.33669" height="1.27273" rx="0.636365" transform="rotate(9.12957 5.48926 3.43848)" stroke="black" stroke-linecap="round"/>
<rect x="15.8623" y="17.7068" width="2.37133" height="1.32761" rx="0.663803" stroke="black" stroke-linecap="round"/>
<path d="M9.41152 3.96722L6.09672 0.965332L5.87793 3.56079" stroke="black" stroke-linecap="round" stroke-linejoin="round"/>
<path d="M7.59814 7.46997H16.0567C16.4279 7.46997 16.7289 7.77092 16.7289 8.14215V8.14215C16.7289 8.51338 16.4279 8.81433 16.0567 8.81433H8.91129" stroke="black" stroke-linecap="round" stroke-linejoin="round"/>
</svg>
