<svg width="20" height="20" viewBox="0 0 20 20" fill="none" xmlns="http://www.w3.org/2000/svg">
<g clip-path="url(#clip0_1_3859)">
<path d="M5.02807 7.62727V7.21057C5.02807 6.85751 5.31429 6.57129 5.66736 6.57129V6.57129C6.02042 6.57129 6.30664 6.85751 6.30664 7.21057V12.084" stroke="black" stroke-linecap="round" stroke-linejoin="round"/>
<path d="M8.65087 7.62727V7.21057C8.65087 6.85751 8.93709 6.57129 9.29016 6.57129V6.57129C9.64323 6.57129 9.92944 6.85751 9.92944 7.21057V12.0914" stroke="black" stroke-linecap="round" stroke-linejoin="round"/>
<path d="M1.32373 5.26318H18.6767" stroke="black" stroke-linecap="round" stroke-linejoin="round"/>
<path d="M4.86461 12.812L3.30664 17.3828H16.5519L14.3292 10.2275H11.9024" stroke="black" stroke-linecap="round" stroke-linejoin="round"/>
<path d="M4.51332 8.75781H6.09071H15.4875L18.3682 17.6056V19.1489H1.3584V17.6056L4.51332 8.75781Z" stroke="black" stroke-linecap="round" stroke-linejoin="round"/>
<path d="M6.42725 9.90918L9.91889 9.90918" stroke="black" stroke-linecap="round" stroke-linejoin="round"/>
<path d="M6.42725 11.0063L9.91889 11.0063" stroke="black" stroke-linecap="round" stroke-linejoin="round"/>
<path d="M15.8437 5.26289C15.8437 4.94803 15.7816 4.63625 15.6611 4.34535C15.5407 4.05445 15.364 3.79014 15.1414 3.56749C14.9188 3.34485 14.6544 3.16824 14.3635 3.04775C14.0726 2.92725 13.7609 2.86523 13.446 2.86523C13.1311 2.86523 12.8194 2.92725 12.5285 3.04775C12.2376 3.16824 11.9732 3.34485 11.7506 3.56749C11.528 3.79014 11.3513 4.05445 11.2309 4.34535C11.1104 4.63625 11.0483 4.94803 11.0483 5.26289L13.446 5.26289H15.8437Z" stroke="black" stroke-linecap="round" stroke-linejoin="round"/>
<path d="M13.437 1.76862V0.851074" stroke="black" stroke-linecap="round" stroke-linejoin="round"/>
<path d="M16.3534 3.19031L17.0022 2.5415" stroke="black" stroke-linecap="round" stroke-linejoin="round"/>
<path d="M10.5123 3.19031L9.86353 2.5415" stroke="black" stroke-linecap="round" stroke-linejoin="round"/>
</g>
<defs>
<clipPath id="clip0_1_3859">
<rect width="20" height="20" fill="white"/>
</clipPath>
</defs>
</svg>
