<svg width="21" height="20" viewBox="0 0 21 20" fill="none" xmlns="http://www.w3.org/2000/svg">
<path d="M3.95801 14.0318L4.47669 13.6765C5.07102 13.2695 5.85757 13.2819 6.4387 13.7076L6.60553 13.8298C7.13836 14.2201 7.87438 14.1913 8.38019 13.7665V13.7665C8.90676 13.3244 9.68066 13.3195 10.2073 13.7616V13.7616C10.7169 14.1895 11.4591 14.2022 11.986 13.7959V13.7959C12.4994 13.4 13.2184 13.3975 13.7318 13.7934L13.7508 13.8081C14.2754 14.2126 15.0068 14.2126 15.5314 13.8081L15.6185 13.7408C16.1089 13.3627 16.7733 13.3013 17.3246 13.5832L18.2021 14.0318" stroke="black" stroke-linecap="round"/>
<path d="M5.46826 14.9234L6.60508 15.7561C7.13791 16.1464 7.87393 16.1176 8.37974 15.6928V15.6928C8.90631 15.2507 9.68021 15.2458 10.2068 15.6879V15.6879C10.7164 16.1158 11.4586 16.1285 11.9856 15.7221V15.7221C12.499 15.3263 13.218 15.3238 13.7313 15.7197L13.7504 15.7343C14.275 16.1389 15.0064 16.1389 15.5309 15.7343L16.4212 15.0478" stroke="black" stroke-linecap="round"/>
<path d="M16.8463 12.9959C16.8463 11.4666 16.2388 9.99985 15.1574 8.91844C14.0759 7.83702 12.6092 7.22949 11.0799 7.22949C9.55054 7.22949 8.08383 7.83702 7.00242 8.91843C5.92101 9.99985 5.31348 11.4666 5.31348 12.9959" stroke="black" stroke-linecap="round"/>
<path d="M11.0796 5.24937V3.5791" stroke="black" stroke-linecap="round" stroke-linejoin="round"/>
<path d="M3.33335 12.6108L1.66309 12.6108" stroke="black" stroke-linecap="round" stroke-linejoin="round"/>
<path d="M20.1869 12.6108L18.5166 12.6108" stroke="black" stroke-linecap="round" stroke-linejoin="round"/>
<path d="M17.5194 6.17099L16.3384 7.35205" stroke="black" stroke-linecap="round" stroke-linejoin="round"/>
<path d="M4.63974 6.17099L5.8208 7.35205" stroke="black" stroke-linecap="round" stroke-linejoin="round"/>
</svg>
