<svg width="21" height="20" viewBox="0 0 21 20" fill="none" xmlns="http://www.w3.org/2000/svg">
<path d="M3.70477 9.40781L3.5216 8.34489C3.46281 8.0029 3.79559 7.71238 4.1311 7.71238C4.47035 7.71187 4.54891 7.71238 4.88833 7.71238C6.36532 7.71187 5.67999 7.32933 5.21191 5.9597C5.13166 5.72404 5.03317 5.4751 5.21191 5.31049L6.56195 4.07224C6.74087 3.90763 6.97516 3.90814 7.15356 4.07224L8.5036 5.31049C8.682 5.47458 8.58352 5.72541 8.5036 5.9597C8.0282 7.3508 7.3577 7.71238 8.82207 7.71238L12.3571 7.71187M3.1745 16.1749C3.68603 16.9002 5.475 17.4808 6.34044 17.3831C8.22756 17.1698 8.58437 15.9999 8.50803 15.1576M3.1745 16.1749C3.22681 19.1711 7.6155 20.6203 9.34109 17.6829C9.65615 17.1466 9.88721 16.4645 9.99285 15.6196C10.1014 14.7524 11.8023 10.8522 12.8514 9.75507C13.4473 9.13126 15.7081 6.37751 16.1398 5.83838C16.9116 4.87531 15.2095 3.83266 14.2001 5.08762C12.2794 7.48593 10.9542 10.3165 9.67268 12.9883C9.18109 14.0126 8.75698 14.694 8.05478 15.0707C6.30329 16.0099 4.67534 15.1275 3.74243 15.4979C3.50507 15.5916 3.31269 15.8891 3.1745 16.1749ZM14.8779 7.71187H16.8724C17.2074 7.71187 17.548 8.00631 17.4817 8.34489L17.2985 9.40781M10.2876 11.5384H3.58669C3.41305 11.5384 3.30792 11.3996 3.26907 11.239L3.14349 10.0543C3.10464 9.89378 3.28611 9.75507 3.46059 9.75507H11.1122M13.131 9.75507H17.5449C17.7199 9.75507 17.8625 9.89037 17.8625 10.0543L17.822 11.2387C17.7957 11.4009 17.678 11.5384 17.5049 11.5384H11.9091M16.786 11.8852L15.9441 16.1691C15.8781 16.5059 15.6658 16.8016 15.3342 16.8016H10.0404M4.83687 15.039L4.21732 11.8852" stroke="black" stroke-miterlimit="22.9256" stroke-linecap="round" stroke-linejoin="round"/>
<path d="M9.64838 4.20142C9.24794 3.7966 9.29633 3.14825 9.53613 2.78059C9.77749 2.40888 9.84149 1.8467 9.45464 1.39708" stroke="black" stroke-miterlimit="22.9256" stroke-linecap="round" stroke-linejoin="round"/>
<path d="M11.1967 3.99927C10.6461 3.52561 10.7128 2.76781 11.042 2.33818C11.375 1.90417 11.4626 1.24629 10.9305 0.72127" stroke="black" stroke-miterlimit="22.9256" stroke-linecap="round" stroke-linejoin="round"/>
<path d="M12.6881 4.20142C12.2882 3.7966 12.3364 3.14825 12.5759 2.78059C12.8177 2.40888 12.8812 1.8467 12.4947 1.39708" stroke="black" stroke-miterlimit="22.9256" stroke-linecap="round" stroke-linejoin="round"/>
<circle cx="6.88794" cy="5.93384" r="0.35376" stroke="black"/>
</svg>
