<svg width="21" height="20" viewBox="0 0 21 20" fill="none" xmlns="http://www.w3.org/2000/svg">
<path d="M6.06494 9.61016L7.52909 9.30357C9.55667 8.87899 11.6502 8.87899 13.6778 9.30357L15.1419 9.61016" stroke="black" stroke-linecap="round" stroke-linejoin="round"/>
<path d="M7.00708 15.1206C9.37387 16.4098 11.6827 16.4379 14.1011 15.1206" stroke="black" stroke-linecap="round" stroke-linejoin="round"/>
<path d="M11.0347 16.098C10.9089 17.2915 12.1991 19.078 13.8664 19.078C13.7473 17.3908 12.2189 16.2594 11.0347 16.098Z" stroke="black" stroke-linecap="round" stroke-linejoin="round"/>
<path d="M10.5458 16.098C10.6717 17.2915 9.38143 19.078 7.71419 19.078C7.83324 17.3908 9.36165 16.2594 10.5458 16.098Z" stroke="black" stroke-linecap="round" stroke-linejoin="round"/>
<path d="M14.3885 10.8878C14.3885 12.8784 12.7748 14.4921 10.7842 14.4921H10.4888C8.49819 14.4921 6.88452 12.8784 6.88452 10.8878" stroke="black" stroke-linecap="round" stroke-linejoin="round"/>
<path d="M6.91748 9.34793V6.79187" stroke="black" stroke-linecap="round" stroke-linejoin="round"/>
<path d="M14.3879 9.34812L14.3879 5.48169" stroke="black" stroke-linecap="round" stroke-linejoin="round"/>
<path d="M14.3873 6.79179C14.8058 6.79179 15.2164 6.67895 15.5761 6.46515C15.9358 6.25136 16.2311 5.94452 16.4311 5.57697C16.631 5.20941 16.7281 4.79474 16.7122 4.37662C16.6962 3.95851 16.5678 3.55244 16.3404 3.20118C16.1131 2.84992 15.7952 2.56647 15.4203 2.38069C15.0454 2.19492 14.6273 2.11368 14.2101 2.14555C13.7929 2.17742 13.3921 2.32122 13.0497 2.56179C12.7074 2.80235 12.4362 3.1308 12.2649 3.51251" stroke="black" stroke-linecap="round" stroke-linejoin="round"/>
<path d="M7.96738 6.44756C7.67534 6.6326 7.33881 6.73546 6.99322 6.7453C6.64764 6.75514 6.30579 6.67159 6.0037 6.50347C5.70161 6.33535 5.45045 6.08887 5.27667 5.78999C5.1029 5.49111 5.01294 5.1509 5.01628 4.80519C5.01962 4.45948 5.11613 4.12107 5.29565 3.82561C5.47516 3.53014 5.73104 3.28856 6.03632 3.1263C6.3416 2.96404 6.68499 2.88712 7.03032 2.90363" stroke="black" stroke-linecap="round" stroke-linejoin="round"/>
<path d="M13.5688 2.23757C13.2631 1.76777 12.1929 0.847847 10.3578 0.926629C8.06395 1.02511 6.94986 2.72883 6.85156 3.84292" stroke="black" stroke-linecap="round" stroke-linejoin="round"/>
</svg>
