<svg width="20" height="20" viewBox="0 0 20 20" fill="none" xmlns="http://www.w3.org/2000/svg">
<path d="M4.89951 16.748C4.89951 16.9801 4.71138 17.1682 4.4793 17.1682C4.24722 17.1682 4.05908 16.9801 4.05908 16.748C4.05908 16.5159 4.24722 16.3278 4.4793 16.3278C4.71138 16.3278 4.89951 16.5159 4.89951 16.748Z" fill="black" stroke="black"/>
<path d="M7.04648 14.601C7.04648 14.8331 6.85835 15.0212 6.62627 15.0212C6.39419 15.0212 6.20605 14.8331 6.20605 14.601C6.20605 14.3689 6.39419 14.1808 6.62627 14.1808C6.85835 14.1808 7.04648 14.3689 7.04648 14.601Z" fill="black" stroke="black"/>
<path d="M2.44565 14.2941C2.44565 14.5262 2.25752 14.7143 2.02544 14.7143C1.79336 14.7143 1.60522 14.5262 1.60522 14.2941C1.60522 14.062 1.79336 13.8739 2.02544 13.8739C2.25752 13.8739 2.44565 14.062 2.44565 14.2941Z" fill="black" stroke="black"/>
<path d="M4.59263 12.1471C4.59263 12.3792 4.40449 12.5674 4.17241 12.5674C3.94033 12.5674 3.7522 12.3792 3.7522 12.1471C3.7522 11.9151 3.94033 11.7269 4.17241 11.7269C4.40449 11.7269 4.59263 11.9151 4.59263 12.1471Z" fill="black" stroke="black"/>
<path d="M18.8949 2.33155H16.6941C16.6144 2.33127 16.5355 2.3467 16.4618 2.37697C16.3881 2.40723 16.3211 2.45173 16.2647 2.50792L13.9871 4.78545L4.11782 6.4265C4.0061 6.44499 3.90167 6.49404 3.8161 6.56823C3.73053 6.64241 3.66717 6.73883 3.63303 6.84681C3.59889 6.95479 3.59531 7.07011 3.62267 7.18C3.65004 7.28989 3.70729 7.39006 3.78808 7.46941L11.3032 14.9845C11.3825 15.0653 11.4827 15.1225 11.5926 15.1499C11.7025 15.1773 11.8178 15.1737 11.9258 15.1395C12.0338 15.1054 12.1302 15.042 12.2044 14.9565C12.2785 14.8709 12.3276 14.7665 12.3461 14.6548L13.9871 4.78545" stroke="black" stroke-linecap="round" stroke-linejoin="round"/>
</svg>
