<svg width="20" height="20" viewBox="0 0 20 20" fill="none" xmlns="http://www.w3.org/2000/svg">
<path d="M17.2803 18.1606V1.83984H2.71973V18.1606" stroke="black" stroke-linecap="round" stroke-linejoin="round"/>
<path d="M5.68604 9.74219V6.24805M5.68604 6.24805L6.74609 7.30811M5.68604 6.24805L4.62598 7.30811" stroke="black" stroke-linecap="round" stroke-linejoin="round"/>
<path d="M5.68604 11.5869V15.0811M5.68604 15.0811L6.74609 14.021M5.68604 15.0811L4.62598 14.021" stroke="black" stroke-linecap="round" stroke-linejoin="round"/>
<path d="M10.5879 10.1665V17.6847" stroke="black" stroke-linecap="round" stroke-linejoin="round"/>
<path d="M13.9141 10.1665V17.6847" stroke="black" stroke-linecap="round" stroke-linejoin="round"/>
<path d="M12.251 13.9253L12.251 17.6844" stroke="black" stroke-linecap="round" stroke-linejoin="round"/>
<path d="M15.3534 13.1927V9.80225C15.3534 8.69768 14.458 7.80225 13.3534 7.80225H11.1387C10.0341 7.80225 9.13867 8.69768 9.13867 9.80225V13.1927" stroke="black" stroke-linecap="round" stroke-linejoin="round"/>
<rect x="11.1245" y="3.54688" width="2.50585" height="2.50585" rx="1.25293" stroke="black" stroke-linecap="round" stroke-linejoin="round"/>
</svg>
