<svg width="21" height="20" viewBox="0 0 21 20" fill="none" xmlns="http://www.w3.org/2000/svg">
<path d="M6.2312 16.646V12.9523C6.2312 11.5868 7.06324 10.359 8.3316 9.85304L11.6954 8.51109C12.5114 8.18554 13.0468 7.3956 13.0468 6.517V5.86834C13.0468 4.66361 12.0701 3.68698 10.8654 3.68698C9.66068 3.68698 8.68406 4.66361 8.68406 5.86834V6.61501C8.68406 7.18379 8.22297 7.64487 7.6542 7.64487H7.45763C6.78029 7.64487 6.2312 7.09578 6.2312 6.41844V5.71769C6.2312 3.42203 8.0922 1.56104 10.3879 1.56104H10.9249C13.5171 1.56104 15.6185 3.66247 15.6185 6.25471V16.4139C15.6185 17.5325 14.7117 18.4393 13.5931 18.4393H8.0245C7.03409 18.4393 6.2312 17.6364 6.2312 16.646Z" stroke="black" stroke-linecap="round" stroke-linejoin="round"/>
<circle cx="10.9246" cy="13.8306" r="2.86279" stroke="black"/>
<path d="M9.81266 14.012L10.8372 15.0369L12.0125 12.8066" stroke="black" stroke-linecap="round" stroke-linejoin="round"/>
</svg>
