<svg width="21" height="20" viewBox="0 0 21 20" fill="none" xmlns="http://www.w3.org/2000/svg">
<path d="M4.12957 9.40781L3.9464 8.34489C3.88761 8.0029 4.22039 7.71238 4.5559 7.71238C4.89516 7.71187 4.97371 7.71238 5.31314 7.71238C6.79012 7.71187 6.10479 7.32933 5.63672 5.9597C5.55646 5.72404 5.45797 5.4751 5.63672 5.31049L6.98676 4.07224C7.16567 3.90763 7.39996 3.90814 7.57837 4.07224L8.92841 5.31049C9.10681 5.47458 9.00832 5.72541 8.92841 5.9597C8.453 7.3508 7.7825 7.71238 9.24687 7.71238L12.7819 7.71187M3.59931 16.1749C4.11083 16.9002 5.89981 17.4808 6.76524 17.3831C8.65237 17.1698 9.00917 15.9999 8.93284 15.1576M3.59931 16.1749C3.65162 19.1711 8.04031 20.6203 9.7659 17.6829C10.081 17.1466 10.312 16.4645 10.4177 15.6196C10.5262 14.7524 12.2271 10.8522 13.2762 9.75507C13.8721 9.13126 16.1329 6.37751 16.5647 5.83838C17.3364 4.87531 15.6343 3.83266 14.6249 5.08762C12.7042 7.48593 11.379 10.3165 10.0975 12.9883C9.6059 14.0126 9.18178 14.694 8.47959 15.0707C6.7281 16.0099 5.10014 15.1275 4.16723 15.4979C3.92987 15.5916 3.7375 15.8891 3.59931 16.1749ZM15.3027 7.71187H17.2972C17.6322 7.71187 17.9728 8.00631 17.9065 8.34489L17.7233 9.40781M10.7124 11.5384H4.01149C3.83786 11.5384 3.73272 11.3996 3.69387 11.239L3.56829 10.0543C3.52944 9.89378 3.71091 9.75507 3.8854 9.75507H11.537M13.5558 9.75507H17.9697C18.1447 9.75507 18.2873 9.89037 18.2873 10.0543L18.2468 11.2387C18.2206 11.4009 18.1028 11.5384 17.9297 11.5384H12.3339M17.2108 11.8852L16.3689 16.1691C16.3029 16.5059 16.0906 16.8016 15.759 16.8016H10.4652M5.26168 15.039L4.64212 11.8852" stroke="black" stroke-miterlimit="22.9256" stroke-linecap="round" stroke-linejoin="round"/>
<path d="M10.0732 4.20142C9.67274 3.7966 9.72114 3.14825 9.96093 2.78059C10.2023 2.40888 10.2663 1.8467 9.87944 1.39708" stroke="black" stroke-miterlimit="22.9256" stroke-linecap="round" stroke-linejoin="round"/>
<path d="M11.6215 3.99927C11.0709 3.52561 11.1376 2.76781 11.4668 2.33818C11.7998 1.90417 11.8874 1.24629 11.3553 0.72127" stroke="black" stroke-miterlimit="22.9256" stroke-linecap="round" stroke-linejoin="round"/>
<path d="M13.1129 4.20142C12.713 3.7966 12.7612 3.14825 13.0007 2.78059C13.2425 2.40888 13.306 1.8467 12.9195 1.39708" stroke="black" stroke-miterlimit="22.9256" stroke-linecap="round" stroke-linejoin="round"/>
<circle cx="7.31274" cy="5.93384" r="0.35376" stroke="black"/>
</svg>
