<svg width="21" height="20" viewBox="0 0 21 20" fill="none" xmlns="http://www.w3.org/2000/svg">
<path d="M10.0361 5.0114L9.50552 4.48079C9.13526 4.11053 8.92725 3.60834 8.92725 3.08471V2.90728C8.92725 1.91486 9.73176 1.11035 10.7242 1.11035V1.11035C11.7166 1.11035 12.5211 1.91486 12.5211 2.90728V3.02421C12.5211 3.41353 12.4024 3.79359 12.1807 4.11368L11.5592 5.0114" stroke="black" stroke-linecap="round" stroke-linejoin="round"/>
<path d="M9.46825 7.02009L8.73018 7.15556C8.21515 7.2501 7.75877 7.54535 7.46143 7.97638L7.36068 8.12243C6.79716 8.93933 7.00256 10.0584 7.81946 10.6219V10.6219C8.63636 11.1854 9.75542 10.98 10.3189 10.1631L10.3853 10.0669C10.6064 9.74641 10.7245 9.36615 10.7238 8.97683L10.7219 7.88492" stroke="black" stroke-linecap="round" stroke-linejoin="round"/>
<path d="M12.3211 7.02642L13.06 7.15707C13.5757 7.24823 14.034 7.5405 14.3341 7.96958L14.4358 8.11497C15.0047 8.92817 14.8066 10.0485 13.9934 10.6174V10.6174C13.1802 11.1862 12.0598 10.9882 11.491 10.175L11.4239 10.0791C11.2008 9.76012 11.0802 9.38063 11.0784 8.99132L11.0731 7.89942" stroke="black" stroke-linecap="round" stroke-linejoin="round"/>
<path d="M12.6554 6.79843L13.3915 6.94457C13.9051 7.04654 14.4381 6.94031 14.8734 6.64924L15.0209 6.55061C15.8459 5.99896 16.0674 4.88299 15.5158 4.05803V4.05803C14.9641 3.23306 13.8482 3.01149 13.0232 3.56314L12.926 3.62814C12.6024 3.84455 12.3524 4.15451 12.2096 4.51667L11.8088 5.53237" stroke="black" stroke-linecap="round" stroke-linejoin="round"/>
<path d="M9.4023 6.64901L8.75243 7.02421C8.29895 7.28603 7.76004 7.35698 7.25425 7.22145L7.08286 7.17553C6.12427 6.91867 5.55539 5.93335 5.81225 4.97475V4.97475C6.0691 4.01616 7.05442 3.44728 8.01302 3.70414L8.12597 3.7344C8.50202 3.83517 8.83841 4.04822 9.09022 4.34513L9.79649 5.17787" stroke="black" stroke-linecap="round" stroke-linejoin="round"/>
<path d="M10.9248 18.8896C11.4656 16.6362 13.749 11.859 17.5047 12.0692C17.8353 15.4644 13.474 18.1791 10.9248 18.8896Z" stroke="black" stroke-linecap="round" stroke-linejoin="round"/>
<path d="M10.9248 18.8896C10.384 16.6362 8.10058 11.859 4.34492 12.0692C4.01435 15.4644 8.37558 18.1791 10.9248 18.8896Z" stroke="black" stroke-linecap="round" stroke-linejoin="round"/>
<path d="M10.9248 10.3867V18.7393" stroke="black" stroke-linecap="round" stroke-linejoin="round"/>
<circle cx="10.9249" cy="6.39075" r="1.20178" stroke="black" stroke-linecap="round" stroke-linejoin="round"/>
</svg>
