<svg width="21" height="20" viewBox="0 0 21 20" fill="none" xmlns="http://www.w3.org/2000/svg">
<path d="M10.8752 14.3993C8.97375 12.7058 6.31172 8.35622 10.8752 4.50586C15.3832 8.21817 12.8874 12.7875 10.8752 14.3993Z" stroke="black" stroke-linejoin="round"/>
<path d="M11.4325 14.003C13.9811 13.6132 18.4272 10.904 16.3793 5.43503C15.3842 5.61328 14.5614 5.90747 13.8848 6.28498" stroke="black" stroke-linecap="round" stroke-linejoin="round"/>
<path d="M10.4171 14.003C7.86854 13.6132 3.42241 10.904 5.47033 5.43503C6.4654 5.61328 7.28825 5.90747 7.9648 6.28498" stroke="black" stroke-linecap="round" stroke-linejoin="round"/>
<path d="M12.4008 13.7566C14.3064 14.4997 18.4359 14.402 19.1983 9.83212C18.7282 9.66245 18.2861 9.55026 17.871 9.48762" stroke="black" stroke-linecap="round" stroke-linejoin="round"/>
<path d="M9.44879 13.7566C7.54316 14.4997 3.4137 14.402 2.65134 9.83212C3.12145 9.66245 3.56348 9.55026 3.97859 9.48762" stroke="black" stroke-linecap="round" stroke-linejoin="round"/>
</svg>
