<svg width="21" height="20" viewBox="0 0 21 20" fill="none" xmlns="http://www.w3.org/2000/svg">
<path d="M15.1712 4.52868C15.1712 4.52868 13.9233 4.4928 12.808 5.13918C12.2509 5.46196 11.6164 5.63273 10.971 5.63758C10.956 5.63766 10.9409 5.63775 10.9257 5.63775C10.9105 5.63775 10.8954 5.63775 10.8804 5.63758C10.235 5.63281 9.60043 5.46196 9.04339 5.13918C7.92814 4.49288 6.68028 4.52868 6.68028 4.52868C4.36981 4.52868 3.25947 6.7664 2.73535 8.63114C2.4338 9.70375 2.28564 10.813 2.28564 11.9263V12.3075C2.28564 14.1039 2.61704 14.635 2.68015 14.7365C2.74325 14.8381 3.05095 15.4707 3.79265 15.4707C4.53435 15.4707 4.92095 15.0802 4.92095 15.0802C4.92095 15.0802 6.77506 13.2449 7.13016 12.8934C7.17455 12.8494 7.22053 12.81 7.26701 12.7747C7.52241 12.5805 7.83768 12.4795 8.15977 12.4795H13.6919C14.014 12.4795 14.3293 12.5805 14.5847 12.7747C14.6312 12.81 14.6772 12.8494 14.7215 12.8934C15.0766 13.2448 16.9308 15.0802 16.9308 15.0802C16.9308 15.0802 17.3174 15.4707 18.0591 15.4707C18.8008 15.4707 19.1085 14.8381 19.1716 14.7365C19.2347 14.635 19.5661 14.1039 19.5661 12.3075V11.9263C19.5661 10.813 19.4178 9.70375 19.1164 8.63114C18.5922 6.7664 17.4818 4.52868 15.1714 4.52868H15.1712Z" stroke="black" stroke-linecap="round" stroke-linejoin="round"/>
<path d="M8.36084 8.13827H7.13883V6.92871H6.06934V8.13827H4.84741V9.19695H6.06934V10.4066H7.13883V9.19695H8.36084V8.13827Z" stroke="black" stroke-width="0.7" stroke-linecap="round" stroke-linejoin="round"/>
<path d="M15.7456 7.92984C15.9737 7.70404 15.9737 7.33795 15.7456 7.11216C15.5175 6.88636 15.1477 6.88636 14.9196 7.11216C14.6915 7.33795 14.6915 7.70404 14.9196 7.92984C15.1477 8.15563 15.5175 8.15563 15.7456 7.92984Z" stroke="black" stroke-width="0.7" stroke-linecap="round" stroke-linejoin="round"/>
<path d="M15.7456 10.6916C15.9737 10.4658 15.9737 10.0997 15.7456 9.87388C15.5175 9.64808 15.1477 9.64808 14.9196 9.87388C14.6915 10.0997 14.6915 10.4658 14.9196 10.6916C15.1477 10.9173 15.5175 10.9173 15.7456 10.6916Z" stroke="black" stroke-width="0.7" stroke-linecap="round" stroke-linejoin="round"/>
<path d="M17.1953 9.30972C17.4235 9.08392 17.4235 8.71784 17.1953 8.49204C16.9672 8.26624 16.5974 8.26624 16.3693 8.49204C16.1412 8.71784 16.1412 9.08392 16.3693 9.30972C16.5974 9.53551 16.9672 9.53551 17.1953 9.30972Z" stroke="black" stroke-width="0.7" stroke-linecap="round" stroke-linejoin="round"/>
<path d="M14.2974 9.30972C14.5255 9.08392 14.5255 8.71784 14.2974 8.49204C14.0693 8.26624 13.6995 8.26624 13.4714 8.49204C13.2433 8.71784 13.2433 9.08392 13.4714 9.30972C13.6995 9.53551 14.0693 9.53551 14.2974 9.30972Z" stroke="black" stroke-width="0.7" stroke-linecap="round" stroke-linejoin="round"/>
<path d="M9.79639 11.1982H10.2964" stroke="black" stroke-linecap="round" stroke-linejoin="round"/>
<path d="M11.5562 11.1982L12.0562 11.1982" stroke="black" stroke-linecap="round" stroke-linejoin="round"/>
</svg>
