<svg width="21" height="20" viewBox="0 0 21 20" fill="none" xmlns="http://www.w3.org/2000/svg">
<path d="M3.47559 17.1049V5.61865H18.4575V17.1049" stroke="black" stroke-linecap="round" stroke-linejoin="round"/>
<path d="M3.30947 5.53535L1.89404 2.70557H19.9556L18.4574 5.53535" stroke="black" stroke-linecap="round" stroke-linejoin="round"/>
<path d="M5.41162 17.2941V9.53678H5.49126C6.51553 9.53678 7.51155 9.20091 8.32665 8.58065L8.60963 8.36531C9.24117 7.88474 10.0129 7.62451 10.8065 7.62451V7.62451C11.7068 7.62451 12.5841 7.96766 13.2513 8.57212V8.57212C13.9306 9.18746 14.8237 9.53678 15.7403 9.53678H16.3921V17.2941" stroke="black" stroke-linecap="round" stroke-linejoin="round"/>
<path d="M13.3792 14.8403C13.3792 12.6316 10.9251 11.1592 10.9251 11.1592C10.9251 11.1592 8.47095 12.6316 8.47095 14.8403C8.47095 15.4912 8.7295 16.1154 9.18974 16.5757C9.64998 17.0359 10.2742 17.2945 10.9251 17.2945C11.5759 17.2945 12.2001 17.0359 12.6604 16.5757C13.1206 16.1154 13.3792 15.4912 13.3792 14.8403Z" stroke="black" stroke-linecap="round" stroke-linejoin="round"/>
<path d="M9.69775 16.0673C9.69775 16.3927 9.82703 16.7048 10.0572 16.935C10.2873 17.1651 10.5994 17.2944 10.9248 17.2944C11.2502 17.2944 11.5624 17.1651 11.7925 16.935C12.0226 16.7048 12.1519 16.3927 12.1519 16.0673C12.1519 14.8402 10.9248 14.104 10.9248 14.104C10.9248 14.104 9.69775 14.8402 9.69775 16.0673Z" stroke="black" stroke-linecap="round" stroke-linejoin="round"/>
</svg>
