<svg width="21" height="20" viewBox="0 0 21 20" fill="none" xmlns="http://www.w3.org/2000/svg">
<circle cx="10.0667" cy="11.8354" r="2.93164" stroke="black" stroke-linecap="round" stroke-linejoin="round"/>
<path d="M7.03763 11.823H5.92513C5.53879 11.823 5.18702 11.6005 5.02152 11.2514L3.50994 8.06276C3.17715 7.36075 3.737 6.56396 4.51026 6.63909L11.1876 7.28788C12.0535 7.37201 12.9132 7.07612 13.544 6.47694L18.1039 2.14502" stroke="black" stroke-linecap="round" stroke-linejoin="round"/>
<path d="M13.0266 10.7914L13.2689 10.5237C13.5982 10.1599 13.7805 9.68666 13.7805 9.19592V9.19592C13.7805 8.66858 13.991 8.16305 14.3653 7.79154L19.0955 3.09619" stroke="black" stroke-linecap="round" stroke-linejoin="round"/>
<path d="M13.8889 6.21826L14.8571 7.21355" stroke="black" stroke-linecap="round" stroke-linejoin="round"/>
<path d="M9.10767 14.6509L10.0661 17.855L11.0242 14.6509" stroke="black" stroke-linecap="round" stroke-linejoin="round"/>
<path d="M5.82056 17.8549C5.75534 17.4578 5.52537 16.6031 5.1272 16.3608C5.58767 16.4914 6.56527 16.9157 6.79192 17.5685C7.01857 16.7526 6.93924 15.472 6.79192 15.0073C7.25278 15.3531 8.13369 16.4068 7.9705 17.8549" stroke="black" stroke-linecap="round" stroke-linejoin="round"/>
<path d="M14.5009 17.855C14.2385 17.207 14.2525 16.3618 14.6506 16.1196C14.1902 16.2501 13.4077 16.9158 13.1811 17.5685C12.9544 16.7526 13.266 14.8597 13.4134 14.395C12.9525 14.7408 11.8393 16.4069 12.0025 17.855" stroke="black" stroke-linecap="round" stroke-linejoin="round"/>
</svg>
