<svg width="21" height="20" viewBox="0 0 21 20" fill="none" xmlns="http://www.w3.org/2000/svg">
<path d="M11.7126 16.9522L3.27882 11.6254C2.31266 11.0152 1.72681 9.9522 1.72681 8.80947V8.80947C1.72681 7.66258 2.31689 6.59638 3.28869 5.98734L8.89368 2.47461L19.8355 9.54616L13.2188 13.5755C12.7081 13.8865 12.4239 14.4652 12.4899 15.0595V15.0595C12.616 16.1943 13.8907 16.8012 14.8511 16.1838L19.7289 13.0481C19.9658 12.8958 20.0845 12.6133 20.0275 12.3374V12.3374C19.9331 11.8815 19.4193 11.6526 19.0173 11.8874L13.8629 14.8976" stroke="black" stroke-linecap="round" stroke-linejoin="round"/>
<path d="M8.82397 4.87744L16.026 9.64538" stroke="black" stroke-linecap="round" stroke-linejoin="round"/>
<path d="M3.87158 8.39404L11.0736 13.162" stroke="black" stroke-linecap="round" stroke-linejoin="round"/>
<path d="M12.1899 12.0297L9.26855 10.0957" stroke="black" stroke-linecap="round" stroke-linejoin="round"/>
<path d="M13.3109 11.1937L10.3896 9.25977" stroke="black" stroke-linecap="round" stroke-linejoin="round"/>
<path d="M14.5338 10.328L11.6125 8.39404" stroke="black" stroke-linecap="round" stroke-linejoin="round"/>
<path d="M7.92392 9.32792L5.04995 7.43269L7.57688 5.82275L10.3901 7.65799L7.92392 9.32792Z" stroke="black" stroke-linecap="round" stroke-linejoin="round"/>
</svg>
