<svg width="21" height="20" viewBox="0 0 21 20" fill="none" xmlns="http://www.w3.org/2000/svg">
<g clip-path="url(#clip0_358_40949)">
<path d="M5.95288 7.62727V7.21057C5.95288 6.85751 6.23909 6.57129 6.59216 6.57129V6.57129C6.94523 6.57129 7.23145 6.85751 7.23145 7.21057V12.084" stroke="black" stroke-linecap="round" stroke-linejoin="round"/>
<path d="M9.57592 7.62727V7.21057C9.57592 6.85751 9.86214 6.57129 10.2152 6.57129V6.57129C10.5683 6.57129 10.8545 6.85751 10.8545 7.21057V12.0914" stroke="black" stroke-linecap="round" stroke-linejoin="round"/>
<path d="M2.24854 5.26318H19.6015" stroke="black" stroke-linecap="round" stroke-linejoin="round"/>
<path d="M5.78941 12.812L4.23145 17.3828H17.4767L15.254 10.2275H12.8272" stroke="black" stroke-linecap="round" stroke-linejoin="round"/>
<path d="M5.43813 8.75781H7.01551H16.4123L19.293 17.6056V19.1489H2.2832V17.6056L5.43813 8.75781Z" stroke="black" stroke-linecap="round" stroke-linejoin="round"/>
<path d="M7.35205 9.90918L10.8437 9.90918" stroke="black" stroke-linecap="round" stroke-linejoin="round"/>
<path d="M7.35205 11.0063L10.8437 11.0063" stroke="black" stroke-linecap="round" stroke-linejoin="round"/>
<path d="M16.7685 5.26289C16.7685 4.94803 16.7064 4.63625 16.586 4.34535C16.4655 4.05445 16.2888 3.79014 16.0662 3.56749C15.8436 3.34485 15.5792 3.16824 15.2883 3.04775C14.9975 2.92725 14.6857 2.86523 14.3708 2.86523C14.0559 2.86523 13.7442 2.92725 13.4533 3.04775C13.1624 3.16824 12.898 3.34485 12.6754 3.56749C12.4528 3.79014 12.2761 4.05445 12.1557 4.34535C12.0352 4.63625 11.9731 4.94803 11.9731 5.26289L14.3708 5.26289H16.7685Z" stroke="black" stroke-linecap="round" stroke-linejoin="round"/>
<path d="M14.3618 1.76862V0.851074" stroke="black" stroke-linecap="round" stroke-linejoin="round"/>
<path d="M17.2784 3.19031L17.9272 2.5415" stroke="black" stroke-linecap="round" stroke-linejoin="round"/>
<path d="M11.4369 3.19031L10.7881 2.5415" stroke="black" stroke-linecap="round" stroke-linejoin="round"/>
</g>
<defs>
<clipPath id="clip0_358_40949">
<rect width="20" height="20" fill="white" transform="translate(0.924805)"/>
</clipPath>
</defs>
</svg>
