<svg width="21" height="20" viewBox="0 0 21 20" fill="none" xmlns="http://www.w3.org/2000/svg">
<path d="M12.0475 6.53336C12.1292 6.73008 12.1718 6.94979 12.1718 7.17971C12.1718 8.0049 11.613 8.67373 10.9265 8.67373C10.24 8.67373 9.67725 8.0049 9.67725 7.17971C9.67725 6.9457 9.71982 6.7265 9.80153 6.52979" stroke="black" stroke-linecap="round" stroke-linejoin="round"/>
<path d="M12.0038 5.77588C12.4877 5.85763 12.8043 5.99865 12.8043 6.15858C12.8043 6.31851 12.5053 6.44829 12.0464 6.53413C11.9363 6.55661 11.8149 6.57143 11.6867 6.58625C11.4553 6.6123 11.1955 6.62712 10.9254 6.62712C10.6552 6.62712 10.3949 6.6123 10.164 6.58625C10.0358 6.57143 9.91149 6.55661 9.80091 6.53055C9.34193 6.4488 9.04639 6.31493 9.04639 6.15909C9.04639 6.00325 9.36297 5.85814 9.8469 5.77639" stroke="black" stroke-linecap="round" stroke-linejoin="round"/>
<path d="M9.84717 5.77554C9.85451 5.15882 10.3311 4.66064 10.9256 4.66064C11.5201 4.66064 11.9967 5.15882 12.0041 5.77554" stroke="black" stroke-linecap="round" stroke-linejoin="round"/>
<path d="M12.4847 8.24707L13.3273 8.8459C13.5539 9.00685 13.7457 9.21481 13.891 9.45751L15.1079 11.4865L16.8998 12.4537C17.1543 12.5912 17.2634 12.911 17.1489 13.1854C17.0256 13.4802 16.6933 13.6095 16.4154 13.471L14.6035 12.5661L13.1145 10.5647L13.3171 15.4632C10.8387 16.4376 8.53206 15.4632 8.53206 15.4632L8.73464 10.5647L7.24565 12.5661L5.43373 13.471C5.1558 13.61 4.82306 13.4802 4.70024 13.1854C4.58575 12.911 4.69437 12.5912 4.94931 12.4537L6.74117 11.4865L7.9581 9.45751C8.10342 9.21532 8.29523 9.00685 8.52178 8.8459L9.36438 8.24707L10.9224 9.43196L12.4842 8.24707H12.4847Z" stroke="black" stroke-linecap="round" stroke-linejoin="round"/>
<path d="M4.58575 10.9338C4.98273 10.9338 5.30455 10.5977 5.30455 10.1832C5.30455 9.76867 4.98273 9.43262 4.58575 9.43262C4.18876 9.43262 3.86694 9.76867 3.86694 10.1832C3.86694 10.5977 4.18876 10.9338 4.58575 10.9338Z" stroke="black" stroke-linecap="round" stroke-linejoin="round"/>
<path d="M17.2637 10.9338C17.6607 10.9338 17.9825 10.5977 17.9825 10.1832C17.9825 9.76867 17.6607 9.43262 17.2637 9.43262C16.8667 9.43262 16.5449 9.76867 16.5449 10.1832C16.5449 10.5977 16.8667 10.9338 17.2637 10.9338Z" stroke="black" stroke-linecap="round" stroke-linejoin="round"/>
<path d="M6.65729 4.83209C6.74849 4.42864 6.5092 4.02439 6.12283 3.92916C5.73646 3.83394 5.34932 4.08381 5.25813 4.48726C5.16694 4.89071 5.40623 5.29497 5.7926 5.39019C6.17897 5.48541 6.5661 5.23555 6.65729 4.83209Z" stroke="black" stroke-linecap="round" stroke-linejoin="round"/>
<path d="M16.3473 5.1909C16.628 4.89778 16.628 4.42253 16.3473 4.12941C16.0666 3.83629 15.6115 3.83629 15.3308 4.12941C15.0501 4.42253 15.0501 4.89778 15.3308 5.1909C15.6115 5.48402 16.0666 5.48402 16.3473 5.1909Z" stroke="black" stroke-linecap="round" stroke-linejoin="round"/>
<path d="M11.4328 2.57762C11.7135 2.2845 11.7135 1.80925 11.4328 1.51613C11.1521 1.22301 10.6969 1.22301 10.4162 1.51613C10.1355 1.80925 10.1355 2.2845 10.4162 2.57762C10.6969 2.87074 11.1521 2.87074 11.4328 2.57762Z" stroke="black" stroke-linecap="round" stroke-linejoin="round"/>
<path d="M8.79987 15.5806L8.53662 18.9528" stroke="black" stroke-linecap="round" stroke-linejoin="round"/>
<path d="M13.2928 18.8918L13.0408 15.6401" stroke="black" stroke-linecap="round" stroke-linejoin="round"/>
<path d="M11.2943 12.6579C11.2943 12.8429 11.151 12.9926 10.9738 12.9926C10.7967 12.9926 10.6533 12.8429 10.6533 12.6579C10.6533 12.473 10.7967 12.3232 10.9738 12.3232C11.151 12.3232 11.2943 12.473 11.2943 12.6579Z" fill="black"/>
<path d="M10.9748 11.1357C11.1518 11.1357 11.2953 10.9858 11.2953 10.801C11.2953 10.6161 11.1518 10.4663 10.9748 10.4663C10.7978 10.4663 10.6543 10.6161 10.6543 10.801C10.6543 10.9858 10.7978 11.1357 10.9748 11.1357Z" fill="black"/>
<path d="M11.2943 14.5153C11.2943 14.7003 11.151 14.85 10.9738 14.85C10.7967 14.85 10.6533 14.7003 10.6533 14.5153C10.6533 14.3304 10.7967 14.1807 10.9738 14.1807C11.151 14.1807 11.2943 14.3304 11.2943 14.5153Z" fill="black"/>
<path d="M10.9231 18.1621V19.0139" stroke="black" stroke-linecap="round" stroke-linejoin="round"/>
</svg>
