<svg width="21" height="20" viewBox="0 0 21 20" fill="none" xmlns="http://www.w3.org/2000/svg">
<g clip-path="url(#clip0_373_42261)">
<path d="M19.5477 11.8584V1.68652L18.5026 3.35912C17.6244 4.76459 17.2044 6.40811 17.3006 8.06259L17.5213 11.8584L17.088 17.1428C17.0235 17.929 17.6442 18.6026 18.433 18.6026C19.2015 18.6026 19.8148 17.9618 19.7812 17.1941L19.5477 11.8584Z" stroke="black" stroke-linecap="round" stroke-linejoin="round"/>
<path d="M2.00439 1.58496V5.47909C2.00439 5.96298 2.23218 6.41863 2.61925 6.70901V6.70901C3.02337 7.01218 3.25277 7.49454 3.23291 7.99935L2.8774 17.0394C2.84801 17.787 3.44609 18.4091 4.19422 18.4091V18.4091C4.95401 18.4091 5.55641 17.7683 5.50954 17.0099L4.95021 7.95892C4.92046 7.47753 5.12173 7.01075 5.4922 6.70194V6.70194C5.83746 6.41413 6.03708 5.98787 6.03708 5.53838V1.58496" stroke="black" stroke-linecap="round" stroke-linejoin="round"/>
<path d="M3.33813 5.36791V1.39746" stroke="black" stroke-linecap="round" stroke-linejoin="round"/>
<path d="M4.70117 5.36791V1.39746" stroke="black" stroke-linecap="round" stroke-linejoin="round"/>
<path d="M17.5625 11.8677H19.4615" stroke="black" stroke-linecap="round" stroke-linejoin="round"/>
<path d="M6.13467 4.34802C7.51619 3.06089 9.36942 2.27344 11.4066 2.27344C13.9034 2.27344 16.1239 3.45633 17.5383 5.29228M17.2441 15.0849C15.8259 16.7145 13.7365 17.7446 11.4066 17.7446C8.97212 17.7446 6.80032 16.6201 5.38232 14.8621" stroke="black" stroke-linecap="round" stroke-linejoin="round"/>
<path d="M11.8883 5.80587C10.9471 5.6593 9.98391 5.82776 9.14837 6.28506C8.31284 6.74237 7.65178 7.4629 7.26798 8.33465C6.88418 9.2064 6.79912 10.1805 7.02604 11.1056C7.25296 12.0307 7.77914 12.8549 8.52278 13.45C9.26643 14.0452 10.1859 14.3781 11.1382 14.3968C12.0905 14.4156 13.0223 14.1192 13.7888 13.5537C14.5553 12.9883 15.1135 12.1854 15.3767 11.27C15.6398 10.3546 15.5932 9.37785 15.244 8.49167" stroke="black" stroke-linecap="round" stroke-linejoin="round"/>
</g>
<defs>
<clipPath id="clip0_373_42261">
<rect width="20" height="20" fill="white" transform="translate(0.924805)"/>
</clipPath>
</defs>
</svg>
