<svg width="21" height="20" viewBox="0 0 21 20" fill="none" xmlns="http://www.w3.org/2000/svg">
<path d="M15.2934 16.5546C15.4099 15.9735 15.4916 14.6019 14.8869 13.7643C14.4066 13.0991 14.7562 10.6433 13.9246 10.5047C12.3475 10.2419 13.8462 14.0401 12.2307 14.0401C10.656 14.0401 8.90008 11.7172 7.76194 10.7255C7.34479 10.3928 6.71158 10.4457 6.33838 10.8974C7.76194 12.978 9.70414 15.6371 12.2307 17.2565" stroke="black" stroke-linecap="round" stroke-linejoin="round"/>
<path d="M8.02734 10.7236C8.32275 10.4794 8.92186 10.0267 9.64628 10.8591C10.5518 11.8997 10.9758 13.5757 11.2456 13.7106" stroke="black" stroke-linecap="round" stroke-linejoin="round"/>
<path d="M2.49072 9.30029H19.3583" stroke="black" stroke-linecap="round" stroke-linejoin="round"/>
<path d="M12.5246 18.99L11.5386 17.5116L16.1914 16.3076L17.9155 18.99" stroke="black" stroke-linecap="round" stroke-linejoin="round"/>
<path d="M17.2144 9.29989C17.2144 7.69782 16.5518 6.16137 15.3723 5.02853C14.1928 3.8957 12.593 3.25928 10.925 3.25928C9.2569 3.25928 7.65715 3.8957 6.47764 5.02853C5.29814 6.16137 4.6355 7.69782 4.6355 9.29989L17.2144 9.29989Z" stroke="black" stroke-linecap="round" stroke-linejoin="round"/>
<circle cx="10.9251" cy="1.638" r="0.629209" fill="black"/>
</svg>
