<svg width="21" height="20" viewBox="0 0 21 20" fill="none" xmlns="http://www.w3.org/2000/svg">
<path d="M16.0188 9.24635L18.3062 6.5376" stroke="black" stroke-linecap="round" stroke-linejoin="round"/>
<path d="M16.5708 8.43082C15.7908 8.24682 14.1783 7.39494 13.9678 5.45947C15.5716 5.45947 16.4657 6.03787 16.9916 7.7734" stroke="black" stroke-linecap="round" stroke-linejoin="round"/>
<path d="M10.8646 11.2712C10.6631 10.0353 11.0753 7.4162 14.3359 6.82715" stroke="black" stroke-linecap="round" stroke-linejoin="round"/>
<path d="M18.5294 11.2185C18.5558 10.526 18.3192 8.99906 17.1621 8.43115" stroke="black" stroke-linecap="round" stroke-linejoin="round"/>
<path d="M7.82695 7.59275C8.24766 7.34739 9.31321 7.40593 9.7604 5.82776C9.96897 5.09168 11.1173 4.68799 11.943 5.46009C12.3637 5.85351 12.5741 6.22219 12.7056 7.35337" stroke="black" stroke-linecap="round" stroke-linejoin="round"/>
<path d="M11.1536 4.99568L11.3701 3.7947" stroke="black" stroke-linecap="round" stroke-linejoin="round"/>
<path d="M14.7576 18.827L7.39225 18.827C7.1964 18.827 7.00465 18.7715 6.84618 18.6564C5.38499 17.5951 2.87939 14.9762 2.87939 11.666H18.9702C18.9702 15.1705 16.1618 17.9002 14.7576 18.827Z" stroke="black" stroke-linecap="round" stroke-linejoin="round"/>
<path d="M3.00586 3.99951C3.59576 4.32242 4.85133 5.33052 5.1544 6.77964" stroke="black" stroke-linecap="round" stroke-linejoin="round"/>
<path d="M3.8699 11.4552C3.61544 10.5085 3.32739 7.64734 4.8423 7.03737C6.3572 6.42741 7.6766 7.46021 8.28718 8.69415C8.71668 9.5619 9.33901 10.903 10.5486 11.4552" stroke="black" stroke-linecap="round" stroke-linejoin="round"/>
<path d="M4.50073 5.06514C4.5972 4.42524 4.50073 3.43471 5.78946 2.80364C7.31311 2.05754 7.90197 1.61161 8.31394 1.17334C8.71695 2.61083 8.5185 5.42794 4.50073 5.19654" stroke="black" stroke-linecap="round" stroke-linejoin="round"/>
</svg>
