<svg width="20" height="20" viewBox="0 0 20 20" fill="none" xmlns="http://www.w3.org/2000/svg">
<g clip-path="url(#clip0_1_3542)">
<path d="M11.5864 15.4634H18.3648" stroke="black" stroke-linecap="round" stroke-linejoin="round"/>
<path d="M3.58887 9.47363V10.98" stroke="black" stroke-linecap="round" stroke-linejoin="round"/>
<path d="M14.3945 13.7778H14.8112" stroke="black" stroke-linecap="round" stroke-linejoin="round"/>
<path d="M14.3945 16.9336H14.8112" stroke="black" stroke-linecap="round" stroke-linejoin="round"/>
<path d="M11.5505 12.02H18.3289" stroke="black" stroke-linecap="round" stroke-linejoin="round"/>
<path d="M0.798828 18.9185H19.201" stroke="black" stroke-linecap="round" stroke-linejoin="round"/>
<path d="M1.55054 18.7877V1.08154H18.4613V18.7877" stroke="black" stroke-linecap="round" stroke-linejoin="round"/>
<path d="M10.0649 18.8748V1.125" stroke="black" stroke-linecap="round" stroke-linejoin="round"/>
<path d="M11.4697 2.94043H18.3902" stroke="black" stroke-linecap="round" stroke-linejoin="round"/>
<path d="M11.9131 6.74824L14.3212 5.12158L17.1313 7.23971H13.5663" stroke="black" stroke-linecap="round" stroke-linejoin="round"/>
<path d="M13.2536 3.67003C13.2693 3.5307 13.3216 3.39799 13.405 3.28531C13.4885 3.17263 13.6002 3.08397 13.7289 3.02827C13.8576 2.97258 13.9987 2.95183 14.138 2.96811C14.2772 2.98439 14.4098 3.03714 14.5221 3.12101C14.6345 3.20489 14.7228 3.31694 14.778 3.44583C14.8332 3.57472 14.8534 3.71591 14.8366 3.85512C14.8198 3.99433 14.7666 4.12665 14.6823 4.23871C14.598 4.35077 14.4856 4.43861 14.3565 4.49335L14.3565 4.9147" stroke="black" stroke-linecap="round" stroke-linejoin="round"/>
</g>
<defs>
<clipPath id="clip0_1_3542">
<rect width="20" height="20" fill="white"/>
</clipPath>
</defs>
</svg>
