<svg width="81" height="80" viewBox="0 0 81 80" fill="none" xmlns="http://www.w3.org/2000/svg">
<path d="M7.06709 6.33688L7.06743 6.33654C9.6623 3.73861 13.0847 2.38358 18.2022 1.6948C23.3486 1.00213 30.0575 1 39.1367 1H42.3367H42.3584C51.4269 1 58.1292 0.999999 63.2716 1.68994C68.3891 2.37654 71.8111 3.72986 74.4057 6.32918C77.0013 8.92945 78.3548 12.3523 79.0427 17.4679C79.7346 22.6125 79.7367 29.3182 79.7367 38.3966V39.1992C79.7367 48.2724 79.735 55.5917 79.041 61.3476C78.3456 67.1144 76.9746 71.1022 74.4064 73.6702C71.8116 76.2647 68.3891 77.6181 63.2713 78.3061C58.1249 78.9979 51.4158 79 42.3367 79H39.1367C30.0575 79 23.3485 78.9979 18.2021 78.3061C13.0843 77.6181 9.6618 76.2647 7.06698 73.6702C4.47218 71.0756 3.11867 67.6534 2.43068 62.5362C1.73882 57.3902 1.73669 50.6818 1.73669 41.6034V38.4037C1.73669 29.3254 1.73882 22.6174 2.43068 17.4717C3.11866 12.3547 4.47216 8.9324 7.06709 6.33688Z" stroke="black" stroke-width="2" stroke-miterlimit="10"/>
<path d="M13.7095 22.7029H22.9609C23.2648 38.0629 30.0853 44.5679 35.4878 45.9099V22.7029H44.1984V35.9556C49.5322 35.3843 55.1372 29.3481 57.0273 22.7083H65.7379C65.0263 26.1532 63.6066 29.4151 61.5675 32.2899C59.5284 35.1648 56.9138 37.5906 53.8874 39.4156C57.2653 41.0817 60.2488 43.4407 62.6408 46.3368C65.0328 49.233 66.7789 52.6003 67.7636 56.2164H58.1776C57.2935 53.0756 55.4954 50.2639 53.0089 48.1342C50.5223 46.0044 47.458 44.6513 44.2002 44.2446V56.2164H43.153C24.681 56.2038 14.1472 43.6284 13.7095 22.7029Z" fill="black"/>
</svg>
