<svg width="64" height="65" viewBox="0 0 64 65" fill="none" xmlns="http://www.w3.org/2000/svg">
<path fill-rule="evenodd" clip-rule="evenodd" d="M9.86191 0.475586H54.1381C59.5845 0.475586 64 4.89094 64 10.3375V54.6137C64 60.0601 59.5845 64.4756 54.1381 64.4756H9.86191C4.41536 64.4756 0 60.0601 0 54.6137V10.3375C0 4.89094 4.41536 0.475586 9.86191 0.475586Z" fill="#4C75A3"/>
<path fill-rule="evenodd" clip-rule="evenodd" d="M31.463 45.2781H34.0809C34.0809 45.2781 34.8715 45.1909 35.2758 44.756C35.6473 44.3562 35.6354 43.606 35.6354 43.606C35.6354 43.606 35.5842 40.0932 37.2143 39.5759C38.8219 39.066 40.8856 42.9709 43.073 44.4725C44.7271 45.6084 45.9841 45.3598 45.9841 45.3598L51.8334 45.2781C51.8334 45.2781 54.893 45.0893 53.4422 42.6836C53.3234 42.4871 52.597 40.904 49.093 37.6516C45.425 34.2474 45.9167 34.7981 50.3347 28.9097C53.0253 25.3237 54.1007 23.1345 53.7647 22.1969C53.4445 21.3036 51.4654 21.5396 51.4654 21.5396L44.8797 21.5803C44.8797 21.5803 44.391 21.5138 44.0292 21.7304C43.6752 21.9421 43.4481 22.4369 43.4481 22.4369C43.4481 22.4369 42.4053 25.2117 41.0157 27.5719C38.0831 32.5514 36.9103 32.815 36.431 32.5053C35.3157 31.7846 35.5944 29.6105 35.5944 28.0656C35.5944 23.2397 36.3264 21.2276 34.169 20.7067C33.4532 20.534 32.9259 20.4197 31.095 20.401C28.745 20.3771 26.7564 20.4083 25.6302 20.96C24.881 21.3269 24.3029 22.1443 24.6552 22.1914C25.0906 22.2494 26.0761 22.4574 26.5987 23.1684C27.2737 24.0869 27.2501 26.1486 27.2501 26.1486C27.2501 26.1486 27.638 31.8295 26.3445 32.5349C25.4569 33.0189 24.2391 32.0309 21.6245 27.5131C20.2852 25.199 19.2736 22.6408 19.2736 22.6408C19.2736 22.6408 19.0788 22.1628 18.7308 21.907C18.3088 21.597 17.7192 21.4987 17.7192 21.4987L11.4608 21.5396C11.4608 21.5396 10.5215 21.5658 10.1763 21.9744C9.86927 22.338 10.1518 23.0893 10.1518 23.0893C10.1518 23.0893 15.0512 34.5521 20.5992 40.3287C25.6868 45.6257 31.463 45.2781 31.463 45.2781Z" fill="white"/>
</svg>
