<svg width="80" height="80" viewBox="0 0 80 80" fill="none" xmlns="http://www.w3.org/2000/svg">
<path d="M58.0534 47.9462C57.0712 47.4462 52.1962 45.0534 51.2855 44.7319C50.3748 44.3926 49.7141 44.2319 49.0534 45.2319C48.3927 46.2319 46.4998 48.4462 45.9105 49.1248C45.3391 49.7855 44.7498 49.8748 43.7677 49.3748C37.9462 46.4641 34.1248 44.1784 30.2855 37.5891C29.2677 35.8391 31.3034 35.9641 33.1962 32.1784C33.5177 31.5176 33.3569 30.9462 33.1069 30.4462C32.8569 29.9462 30.8748 25.0712 30.0534 23.0891C29.2498 21.1605 28.4284 21.4284 27.8212 21.3926C27.2498 21.3569 26.5891 21.3569 25.9284 21.3569C25.2677 21.3569 24.1962 21.6069 23.2855 22.5891C22.3748 23.5891 19.8212 25.9819 19.8212 30.8569C19.8212 35.7319 23.3748 40.4462 23.8569 41.1069C24.3569 41.7676 30.8391 51.7676 40.7855 56.0712C47.0712 58.7855 49.5355 59.0176 52.6784 58.5534C54.5891 58.2676 58.5355 56.1605 59.3569 53.8391C60.1784 51.5176 60.1784 49.5355 59.9284 49.1248C59.6962 48.6784 59.0355 48.4284 58.0534 47.9462Z" fill="black"/>
<path d="M6.58947 59.7285L6.69957 59.3265L6.49166 58.9654C3.11506 53.0999 1.33929 46.4506 1.33929 39.6429C1.33929 18.338 18.6773 1 39.9821 1C50.3063 1 60.0158 5.0197 67.3099 12.3313C74.623 19.6619 79 29.3607 79 39.6607C79 60.9531 61.2817 78.3036 39.9821 78.3036H39.9643C33.488 78.3036 27.1351 76.6845 21.4973 73.6046L21.1484 73.414L20.7639 73.5149L1.42231 78.5927L6.58947 59.7285Z" stroke="black" stroke-width="2"/>
</svg>
