<svg width="64" height="65" viewBox="0 0 64 65" fill="none" xmlns="http://www.w3.org/2000/svg">
<path d="M16.9151 55.4811L17.9614 56C22.3211 58.5946 27.2039 59.8055 32.0867 59.8055C47.4328 59.8055 59.9886 47.3514 59.9886 32.1298C59.9886 24.8649 57.0241 17.773 51.7925 12.5838C46.5609 7.39464 39.5854 4.4541 32.0867 4.4541C16.7407 4.4541 4.18483 16.9082 4.35922 32.3028C4.35922 37.4919 5.9287 42.5082 8.5445 46.8325L9.24205 47.8703L6.45186 58.0757L16.9151 55.4811Z" fill="#00E676"/>
<path d="M54.7575 9.81613C48.8283 3.76207 40.6322 0.475586 32.2616 0.475586C14.4741 0.475586 0.174387 14.8323 0.348774 32.3026C0.348774 37.8377 1.91826 43.1999 4.53406 48.0432L0 64.4756L16.9155 60.1513C21.624 62.7459 26.8556 63.9567 32.0872 63.9567C49.7003 63.9567 64 49.5999 64 32.1296C64 23.654 60.6866 15.6972 54.7575 9.81613ZM32.2616 58.5945C27.5531 58.5945 22.8447 57.3837 18.8338 54.9621L17.7875 54.4432L7.67302 57.0378L10.2888 47.1783L9.59128 46.1404C1.91826 33.8594 5.58038 17.5999 18.1362 9.9891C30.6921 2.37829 46.9101 6.01072 54.5831 18.4648C62.2561 30.9188 58.594 47.0053 46.0381 54.6161C42.0272 57.2107 37.1444 58.5945 32.2616 58.5945ZM47.6076 39.3945L45.6894 38.5296C45.6894 38.5296 42.8992 37.3188 41.1553 36.454C40.9809 36.454 40.8065 36.281 40.6322 36.281C40.109 36.281 39.7602 36.454 39.4114 36.6269C39.4114 36.6269 39.2371 36.7999 36.7956 39.5675C36.6213 39.9134 36.2725 40.0864 35.9237 40.0864H35.7493C35.5749 40.0864 35.2262 39.9134 35.0518 39.7405L34.1798 39.3945C32.2616 38.5296 30.5177 37.4918 29.1226 36.108C28.7738 35.7621 28.2507 35.4161 27.9019 35.0702C26.6812 33.8594 25.4605 32.4756 24.5886 30.9188L24.4142 30.5729C24.2398 30.3999 24.2398 30.2269 24.0654 29.881C24.0654 29.535 24.0654 29.1891 24.2398 29.0161C24.2398 29.0161 24.9373 28.1513 25.4605 27.6323C25.8093 27.2864 25.9837 26.7675 26.3324 26.4215C26.6812 25.9026 26.8556 25.2107 26.6812 24.6918C26.5068 23.8269 24.4142 19.1567 23.891 18.1188C23.5422 17.5999 23.1935 17.4269 22.6703 17.254H20.752C20.4033 17.254 20.0545 17.4269 19.7057 17.4269L19.5313 17.5999C19.1826 17.7729 18.8338 18.1188 18.485 18.2918C18.1362 18.6377 17.9619 18.9837 17.6131 19.3296C16.3924 20.8864 15.6948 22.7891 15.6948 24.6918C15.6948 26.0756 16.0436 27.4594 16.5668 28.6702L16.7411 29.1891C18.3106 32.4756 20.4033 35.4161 23.1935 38.0107L23.891 38.7026C24.4142 39.2215 24.9373 39.5675 25.2861 40.0864C28.9482 43.1999 33.1335 45.4486 37.842 46.6594C38.3651 46.8323 39.0627 46.8323 39.5858 47.0053H41.3297C42.2016 47.0053 43.248 46.6594 43.9455 46.3134C44.4687 45.9675 44.8174 45.9675 45.1662 45.6215L45.515 45.2756C45.8638 44.9296 46.2125 44.7567 46.5613 44.4107C46.9101 44.0648 47.2589 43.7188 47.4332 43.3729C47.782 42.681 47.9564 41.8161 48.1308 40.9513V39.7405C48.1308 39.7405 47.9564 39.5675 47.6076 39.3945Z" fill="white"/>
</svg>
